MulatAbay-ThinItalic.ufo
<glyph name="quotedbl" format="2">
  <advance width="655"/>
  <unicode hex="0022"/>
  <note>
uni0022
</note>
  <outline>
    <contour>
      <point x="358" y="1122" type="line"/>
      <point x="408" y="1122" type="line"/>
      <point x="466" y="1393" type="line"/>
      <point x="491" y="1536" type="line"/>
      <point x="437" y="1536" type="line"/>
    </contour>
    <contour>
      <point x="157" y="1122" type="line"/>
      <point x="207" y="1122" type="line"/>
      <point x="265" y="1393" type="line"/>
      <point x="290" y="1536" type="line"/>
      <point x="235" y="1536" type="line"/>
    </contour>
  </outline>
</glyph>
<glyph name="numbersign" format="2">
  <advance width="1261"/>
  <unicode hex="0023"/>
  <note>
uni0023
</note>
  <outline>
    <contour>
      <point x="57" y="0" type="line"/>
      <point x="113" y="0" type="line"/>
      <point x="260" y="410" type="line"/>
      <point x="624" y="410" type="line"/>
      <point x="476" y="0" type="line"/>
      <point x="532" y="0" type="line"/>
      <point x="680" y="410" type="line"/>
      <point x="974" y="410" type="line"/>
      <point x="983" y="462" type="line"/>
      <point x="698" y="462" type="line"/>
      <point x="886" y="986" type="line"/>
      <point x="1150" y="986" type="line"/>
      <point x="1160" y="1040" type="line"/>
      <point x="906" y="1040" type="line"/>
      <point x="1055" y="1456" type="line"/>
      <point x="999" y="1456" type="line"/>
      <point x="850" y="1040" type="line"/>
      <point x="485" y="1040" type="line"/>
      <point x="634" y="1456" type="line"/>
      <point x="578" y="1456" type="line"/>
      <point x="430" y="1040" type="line"/>
      <point x="120" y="1040" type="line"/>
      <point x="110" y="986" type="line"/>
      <point x="410" y="986" type="line"/>
      <point x="223" y="462" type="line"/>
      <point x="-58" y="462" type="line"/>
      <point x="-67" y="410" type="line"/>
      <point x="204" y="410" type="line"/>
    </contour>
    <contour>
      <point x="279" y="462" type="line"/>
      <point x="465" y="986" type="line"/>
      <point x="830" y="986" type="line"/>
      <point x="642" y="462" type="line"/>
    </contour>
  </outline>
</glyph>
<glyph name="dollar" format="2">
  <advance width="1121"/>
  <unicode hex="0024"/>
  <note>
uni0024
</note>
  <outline>
    <contour>
      <point x="338" y="-208" type="line"/>
      <point x="393" y="-208" type="line"/>
      <point x="426" y="-20" type="line"/>
      <point x="660" y="-7"/>
      <point x="834" y="134"/>
      <point x="871" y="346" type="curve" smooth="yes"/>
      <point x="916" y="598"/>
      <point x="746" y="677"/>
      <point x="518" y="760" type="curve" smooth="yes"/>
      <point x="324" y="831"/>
      <point x="189" y="893"/>
      <point x="227" y="1112" type="curve" smooth="yes"/>
      <point x="260" y="1296"/>
      <point x="423" y="1424"/>
      <point x="639" y="1424" type="curve" smooth="yes"/>
      <point x="862" y="1424"/>
      <point x="973" y="1274"/>
      <point x="933" y="1047" type="curve"/>
      <point x="987" y="1047" type="line"/>
      <point x="1032" y="1306"/>
      <point x="921" y="1463"/>
      <point x="678" y="1476" type="curve"/>
      <point x="711" y="1663" type="line"/>
      <point x="656" y="1663" type="line"/>
      <point x="623" y="1476" type="line"/>
      <point x="393" y="1468"/>
      <point x="211" y="1327"/>
      <point x="173" y="1110" type="curve" smooth="yes"/>
      <point x="130" y="867"/>
      <point x="283" y="785"/>
      <point x="488" y="710" type="curve" smooth="yes"/>
      <point x="686" y="636"/>
      <point x="856" y="568"/>
      <point x="817" y="344" type="curve" smooth="yes"/>
      <point x="786" y="168"/>
      <point x="610" y="32"/>
      <point x="401" y="32" type="curve" smooth="yes"/>
      <point x="148" y="32"/>
      <point x="15" y="173"/>
      <point x="56" y="409" type="curve"/>
      <point x="2" y="409" type="line"/>
      <point x="-44" y="146"/>
      <point x="90" y="-10"/>
      <point x="371" y="-21" type="curve"/>
    </contour>
  </outline>
</glyph>
<glyph name="percent" format="2">
  <advance width="1500"/>
  <unicode hex="0025"/>
  <note>
uni0025
</note>
  <outline>
    <contour>
      <point x="254" y="131" type="line"/>
      <point x="1166" y="1269" type="line"/>
      <point x="1126" y="1300" type="line"/>
      <point x="215" y="162" type="line"/>
    </contour>
    <contour>
      <point x="949" y="-21" type="curve" smooth="yes"/>
      <point x="1102" y="-21"/>
      <point x="1241" y="107"/>
      <point x="1271" y="279" type="curve" smooth="yes"/>
      <point x="1284" y="350" type="line" smooth="yes"/>
      <point x="1316" y="531"/>
      <point x="1222" y="657"/>
      <point x="1066" y="657" type="curve" smooth="yes"/>
      <point x="911" y="657"/>
      <point x="772" y="529"/>
      <point x="742" y="357" type="curve" smooth="yes"/>
      <point x="729" y="284" type="line" smooth="yes"/>
      <point x="698" y="104"/>
      <point x="794" y="-21"/>
    </contour>
    <contour>
      <point x="958" y="34" type="curve" smooth="yes"/>
      <point x="826" y="34"/>
      <point x="758" y="136"/>
      <point x="783" y="279" type="curve" smooth="yes"/>
      <point x="796" y="353" type="line" smooth="yes"/>
      <point x="823" y="505"/>
      <point x="924" y="602"/>
      <point x="1056" y="602" type="curve" smooth="yes"/>
      <point x="1190" y="602"/>
      <point x="1257" y="508"/>
      <point x="1230" y="357" type="curve" smooth="yes"/>
      <point x="1217" y="284" type="line" smooth="yes"/>
      <point x="1191" y="136"/>
      <point x="1089" y="34"/>
    </contour>
    <contour>
      <point x="338" y="800" type="curve" smooth="yes"/>
      <point x="493" y="800"/>
      <point x="630" y="930"/>
      <point x="660" y="1099" type="curve" smooth="yes"/>
      <point x="673" y="1171" type="line" smooth="yes"/>
      <point x="704" y="1348"/>
      <point x="612" y="1477"/>
      <point x="456" y="1477" type="curve" smooth="yes"/>
      <point x="301" y="1477"/>
      <point x="161" y="1348"/>
      <point x="131" y="1176" type="curve" smooth="yes"/>
      <point x="118" y="1105" type="line" smooth="yes"/>
      <point x="86" y="925"/>
      <point x="182" y="800"/>
    </contour>
    <contour>
      <point x="348" y="855" type="curve" smooth="yes"/>
      <point x="215" y="855"/>
      <point x="148" y="960"/>
      <point x="172" y="1099" type="curve" smooth="yes"/>
      <point x="184" y="1169" type="line" smooth="yes"/>
      <point x="211" y="1322"/>
      <point x="319" y="1422"/>
      <point x="446" y="1422" type="curve" smooth="yes"/>
      <point x="575" y="1422"/>
      <point x="644" y="1320"/>
      <point x="619" y="1176" type="curve" smooth="yes"/>
      <point x="606" y="1104" type="line" smooth="yes"/>
      <point x="580" y="956"/>
      <point x="476" y="855"/>
    </contour>
  </outline>
</glyph>
<glyph name="parenleft" format="2">
  <advance width="700"/>
  <unicode hex="0028"/>
  <note>
uni0028
</note>
  <outline>
    <contour>
      <point x="288" y="-470" type="curve"/>
      <point x="315" y="-427" type="line"/>
      <point x="196" y="-338"/>
      <point x="109" y="-109"/>
      <point x="90" y="163" type="curve" smooth="yes"/>
      <point x="80" y="298"/>
      <point x="87" y="432"/>
      <point x="111" y="564" type="curve" smooth="yes"/>
      <point x="120" y="616" type="line" smooth="yes"/>
      <point x="181" y="933"/>
      <point x="402" y="1422"/>
      <point x="669" y="1580" type="curve"/>
      <point x="657" y="1623" type="line"/>
      <point x="490" y="1528"/>
      <point x="308" y="1290"/>
      <point x="188" y="1011" type="curve" smooth="yes"/>
      <point x="129" y="872"/>
      <point x="86" y="730"/>
      <point x="61" y="586" type="curve" smooth="yes"/>
      <point x="3" y="259"/>
      <point x="28" y="-27"/>
      <point x="118" y="-239" type="curve" smooth="yes"/>
      <point x="163" y="-344"/>
      <point x="220" y="-421"/>
    </contour>
  </outline>
</glyph>
<glyph name="parenright" format="2">
  <advance width="712"/>
  <unicode hex="0029"/>
  <note>
uni0029
</note>
  <outline>
    <contour>
      <point x="-227" y="-470" type="line"/>
      <point x="-55" y="-373"/>
      <point x="119" y="-150"/>
      <point x="240" y="131" type="curve" smooth="yes"/>
      <point x="300" y="271"/>
      <point x="344" y="416"/>
      <point x="370" y="566" type="curve" smooth="yes"/>
      <point x="425" y="881"/>
      <point x="402" y="1165"/>
      <point x="311" y="1386" type="curve" smooth="yes"/>
      <point x="266" y="1497"/>
      <point x="209" y="1576"/>
      <point x="142" y="1623" type="curve"/>
      <point x="116" y="1580" type="line"/>
      <point x="234" y="1492"/>
      <point x="321" y="1267"/>
      <point x="341" y="996" type="curve" smooth="yes"/>
      <point x="351" y="860"/>
      <point x="344" y="725"/>
      <point x="320" y="590" type="curve" smooth="yes"/>
      <point x="259" y="245"/>
      <point x="40" y="-260"/>
      <point x="-238" y="-427" type="curve"/>
    </contour>
  </outline>
</glyph>
<glyph name="asterisk" format="2">
  <advance width="856"/>
  <unicode hex="002A"/>
  <note>
uni002A
</note>
  <outline>
    <contour>
      <point x="130" y="661" type="line"/>
      <point x="415" y="986" type="line"/>
      <point x="600" y="664" type="line"/>
      <point x="653" y="697" type="line"/>
      <point x="460" y="1014" type="line"/>
      <point x="844" y="1151" type="line"/>
      <point x="834" y="1204" type="line"/>
      <point x="456" y="1061" type="line"/>
      <point x="526" y="1456" type="line"/>
      <point x="476" y="1456" type="line"/>
      <point x="406" y="1062" type="line"/>
      <point x="68" y="1195" type="line"/>
      <point x="40" y="1141" type="line"/>
      <point x="382" y="1017" type="line"/>
      <point x="90" y="693" type="line"/>
    </contour>
  </outline>
</glyph>
<glyph name="plus" format="2">
  <advance width="1151"/>
  <unicode hex="002B"/>
  <note>
uni002B
</note>
  <outline>
    <contour>
      <point x="370" y="146" type="line"/>
      <point x="425" y="146" type="line"/>
      <point x="514" y="649" type="line"/>
      <point x="995" y="649" type="line"/>
      <point x="1004" y="702" type="line"/>
      <point x="523" y="702" type="line"/>
      <point x="612" y="1206" type="line"/>
      <point x="557" y="1206" type="line"/>
      <point x="468" y="702" type="line"/>
      <point x="6" y="702" type="line"/>
      <point x="-3" y="649" type="line"/>
      <point x="459" y="649" type="line"/>
    </contour>
  </outline>
</glyph>
<glyph name="comma" format="2">
  <advance width="383"/>
  <unicode hex="002C"/>
  <note>
uni002C
</note>
  <outline>
    <contour>
      <point x="-107" y="-255" type="line"/>
      <point x="-26" y="-182"/>
      <point x="25" y="-93"/>
      <point x="47" y="13" type="curve" smooth="yes"/>
      <point x="72" y="159" type="line"/>
      <point x="18" y="159" type="line"/>
      <point x="-12" y="-8" type="line"/>
      <point x="-30" y="-82"/>
      <point x="-72" y="-154"/>
      <point x="-138" y="-223" type="curve"/>
    </contour>
  </outline>
</glyph>
<glyph name="period" format="2">
  <advance width="539"/>
  <unicode hex="002E"/>
  <note>
uni002E
</note>
  <outline>
    <contour>
      <point x="10" y="-6" type="curve" smooth="yes"/>
      <point x="41" y="-6"/>
      <point x="70" y="18"/>
      <point x="76" y="49" type="curve" smooth="yes"/>
      <point x="81" y="80"/>
      <point x="60" y="105"/>
      <point x="30" y="105" type="curve" smooth="yes"/>
      <point x="-1" y="105"/>
      <point x="-30" y="80"/>
      <point x="-35" y="49" type="curve" smooth="yes"/>
      <point x="-41" y="18"/>
      <point x="-21" y="-6"/>
    </contour>
  </outline>
</glyph>
<glyph name="one" format="2">
  <advance width="1150"/>
  <unicode hex="0031"/>
  <note>
uni0031
</note>
  <outline>
    <contour>
      <point x="414" y="0" type="line"/>
      <point x="468" y="0" type="line"/>
      <point x="726" y="1460" type="line"/>
      <point x="715" y="1460" type="line"/>
      <point x="224" y="1290" type="line"/>
      <point x="213" y="1231" type="line"/>
      <point x="659" y="1388" type="line"/>
    </contour>
  </outline>
</glyph>
<glyph name="two" format="2">
  <advance width="1150"/>
  <unicode hex="0032"/>
  <note>
uni0032
</note>
  <outline>
    <contour>
      <point x="-38" y="0" type="line"/>
      <point x="833" y="0" type="line"/>
      <point x="843" y="54" type="line"/>
      <point x="43" y="54" type="line"/>
      <point x="573" y="567" type="line"/>
      <point x="839" y="836"/>
      <point x="927" y="972"/>
      <point x="947" y="1085" type="curve" smooth="yes"/>
      <point x="990" y="1332"/>
      <point x="864" y="1476"/>
      <point x="605" y="1476" type="curve" smooth="yes"/>
      <point x="358" y="1476"/>
      <point x="152" y="1282"/>
      <point x="110" y="1045" type="curve"/>
      <point x="164" y="1045" type="line"/>
      <point x="203" y="1261"/>
      <point x="388" y="1422"/>
      <point x="596" y="1422" type="curve" smooth="yes"/>
      <point x="821" y="1422"/>
      <point x="929" y="1298"/>
      <point x="892" y="1085" type="curve" smooth="yes"/>
      <point x="870" y="961"/>
      <point x="766" y="818"/>
      <point x="570" y="627" type="curve" smooth="yes"/>
      <point x="-28" y="54" type="line"/>
    </contour>
  </outline>
</glyph>
<glyph name="three" format="2">
  <advance width="1150"/>
  <unicode hex="0033"/>
  <note>
uni0033
</note>
  <outline>
    <contour>
      <point x="379" y="-20" type="curve" smooth="yes"/>
      <point x="640" y="-20"/>
      <point x="841" y="138"/>
      <point x="884" y="386" type="curve" smooth="yes"/>
      <point x="918" y="578"/>
      <point x="826" y="701"/>
      <point x="644" y="745" type="curve"/>
      <point x="819" y="796"/>
      <point x="948" y="926"/>
      <point x="975" y="1081" type="curve" smooth="yes"/>
      <point x="1018" y="1324"/>
      <point x="885" y="1476"/>
      <point x="633" y="1476" type="curve" smooth="yes"/>
      <point x="255" y="1473"/>
      <point x="141" y="1123"/>
      <point x="133" y="1074" type="curve"/>
      <point x="187" y="1074" type="line"/>
      <point x="223" y="1282"/>
      <point x="405" y="1422"/>
      <point x="624" y="1422" type="curve" smooth="yes"/>
      <point x="848" y="1422"/>
      <point x="958" y="1292"/>
      <point x="922" y="1085" type="curve" smooth="yes"/>
      <point x="890" y="904"/>
      <point x="712" y="770"/>
      <point x="484" y="770" type="curve" smooth="yes"/>
      <point x="362" y="770" type="line"/>
      <point x="352" y="714" type="line"/>
      <point x="466" y="714" type="line" smooth="yes"/>
      <point x="742" y="714"/>
      <point x="867" y="597"/>
      <point x="830" y="382" type="curve" smooth="yes"/>
      <point x="791" y="165"/>
      <point x="627" y="34"/>
      <point x="388" y="34" type="curve" smooth="yes"/>
      <point x="148" y="34"/>
      <point x="0" y="192"/>
      <point x="38" y="405" type="curve"/>
      <point x="-16" y="405" type="line"/>
      <point x="-63" y="138"/>
      <point x="128" y="-20"/>
    </contour>
  </outline>
</glyph>
<glyph name="four" format="2">
  <advance width="1150"/>
  <unicode hex="0034"/>
  <note>
uni0034
</note>
  <outline>
    <contour>
      <point x="597" y="0" type="line"/>
      <point x="651" y="0" type="line"/>
      <point x="721" y="397" type="line"/>
      <point x="973" y="397" type="line"/>
      <point x="983" y="451" type="line"/>
      <point x="731" y="451" type="line"/>
      <point x="908" y="1456" type="line"/>
      <point x="843" y="1456" type="line"/>
      <point x="-33" y="427" type="line"/>
      <point x="-39" y="397" type="line"/>
      <point x="667" y="397" type="line"/>
    </contour>
    <contour>
      <point x="55" y="451" type="line"/>
      <point x="734" y="1253" type="line"/>
      <point x="842" y="1391" type="line"/>
      <point x="677" y="451" type="line"/>
    </contour>
  </outline>
</glyph>
<glyph name="five" format="2">
  <advance width="1121"/>
  <unicode hex="0035"/>
  <note>
uni0035
</note>
  <outline>
    <contour>
      <point x="420" y="-20" type="curve" smooth="yes"/>
      <point x="684" y="-20"/>
      <point x="859" y="148"/>
      <point x="915" y="464" type="curve" smooth="yes"/>
      <point x="963" y="736"/>
      <point x="826" y="916"/>
      <point x="565" y="916" type="curve" smooth="yes"/>
      <point x="455" y="916"/>
      <point x="322" y="876"/>
      <point x="243" y="819" type="curve"/>
      <point x="405" y="1403" type="line"/>
      <point x="1066" y="1403" type="line"/>
      <point x="1075" y="1456" type="line"/>
      <point x="365" y="1456" type="line"/>
      <point x="175" y="762" type="line"/>
      <point x="213" y="746" type="line"/>
      <point x="310" y="826"/>
      <point x="416" y="862"/>
      <point x="556" y="862" type="curve" smooth="yes"/>
      <point x="784" y="862"/>
      <point x="902" y="705"/>
      <point x="860" y="462" type="curve" smooth="yes"/>
      <point x="810" y="181"/>
      <point x="669" y="34"/>
      <point x="429" y="34" type="curve" smooth="yes"/>
      <point x="204" y="34"/>
      <point x="95" y="155"/>
      <point x="114" y="383" type="curve"/>
      <point x="59" y="383" type="line"/>
      <point x="34" y="131"/>
      <point x="170" y="-20"/>
    </contour>
  </outline>
</glyph>
<glyph name="six" format="2">
  <advance width="1150"/>
  <unicode hex="0036"/>
  <note>
uni0036
</note>
  <outline>
    <contour>
      <point x="408" y="-20" type="curve" smooth="yes"/>
      <point x="666" y="-20"/>
      <point x="860" y="217"/>
      <point x="907" y="480" type="curve" smooth="yes"/>
      <point x="957" y="767"/>
      <point x="826" y="957"/>
      <point x="570" y="957" type="curve" smooth="yes"/>
      <point x="395" y="957"/>
      <point x="223" y="870"/>
      <point x="121" y="733" type="curve"/>
      <point x="216" y="1169"/>
      <point x="492" y="1422"/>
      <point x="900" y="1422" type="curve"/>
      <point x="909" y="1476" type="line"/>
      <point x="448" y="1476"/>
      <point x="145" y="1177"/>
      <point x="54" y="660" type="curve" smooth="yes"/>
      <point x="22" y="481" type="line" smooth="yes"/>
      <point x="-54" y="47"/>
      <point x="270" y="-20"/>
    </contour>
    <contour>
      <point x="417" y="33" type="curve" smooth="yes"/>
      <point x="169" y="33"/>
      <point x="30" y="218"/>
      <point x="78" y="493" type="curve" smooth="yes"/>
      <point x="101" y="621" type="line"/>
      <point x="169" y="782"/>
      <point x="367" y="903"/>
      <point x="553" y="903" type="curve" smooth="yes"/>
      <point x="785" y="903"/>
      <point x="898" y="739"/>
      <point x="853" y="480" type="curve" smooth="yes"/>
      <point x="813" y="255"/>
      <point x="624" y="33"/>
    </contour>
  </outline>
</glyph>
<glyph name="eight" format="2">
  <advance width="1121"/>
  <unicode hex="0038"/>
  <note>
uni0038
</note>
  <outline>
    <contour>
      <point x="371" y="-20" type="curve" smooth="yes"/>
      <point x="651" y="-20"/>
      <point x="861" y="132"/>
      <point x="904" y="379" type="curve" smooth="yes"/>
      <point x="934" y="550"/>
      <point x="837" y="694"/>
      <point x="656" y="745" type="curve"/>
      <point x="824" y="793"/>
      <point x="958" y="923"/>
      <point x="987" y="1086" type="curve" smooth="yes"/>
      <point x="1028" y="1321"/>
      <point x="884" y="1476"/>
      <point x="630" y="1476" type="curve" smooth="yes"/>
      <point x="378" y="1476"/>
      <point x="184" y="1326"/>
      <point x="142" y="1086" type="curve" smooth="yes"/>
      <point x="113" y="923"/>
      <point x="197" y="793"/>
      <point x="349" y="745" type="curve"/>
      <point x="149" y="694"/>
      <point x="6" y="551"/>
      <point x="-24" y="379" type="curve" smooth="yes"/>
      <point x="-67" y="132"/>
      <point x="85" y="-20"/>
    </contour>
    <contour>
      <point x="380" y="34" type="curve" smooth="yes"/>
      <point x="130" y="34"/>
      <point x="-7" y="169"/>
      <point x="29" y="374" type="curve" smooth="yes"/>
      <point x="65" y="575"/>
      <point x="257" y="718"/>
      <point x="499" y="718" type="curve" smooth="yes"/>
      <point x="739" y="718"/>
      <point x="883" y="574"/>
      <point x="848" y="374" type="curve" smooth="yes"/>
      <point x="812" y="170"/>
      <point x="626" y="34"/>
    </contour>
    <contour>
      <point x="508" y="772" type="curve" smooth="yes"/>
      <point x="290" y="772"/>
      <point x="163" y="902"/>
      <point x="197" y="1091" type="curve" smooth="yes"/>
      <point x="232" y="1290"/>
      <point x="406" y="1422"/>
      <point x="621" y="1422" type="curve" smooth="yes"/>
      <point x="830" y="1422"/>
      <point x="967" y="1280"/>
      <point x="934" y="1091" type="curve" smooth="yes"/>
      <point x="901" y="904"/>
      <point x="724" y="772"/>
    </contour>
  </outline>
</glyph>
<glyph name="nine" format="2">
  <advance width="1121"/>
  <unicode hex="0039"/>
  <note>
uni0039
</note>
  <outline>
    <contour>
      <point x="104" y="-20" type="line"/>
      <point x="152" y="-20" type="line" smooth="yes"/>
      <point x="578" y="-15"/>
      <point x="846" y="248"/>
      <point x="933" y="740" type="curve" smooth="yes"/>
      <point x="962" y="907" type="line" smooth="yes"/>
      <point x="1026" y="1275"/>
      <point x="900" y="1476"/>
      <point x="600" y="1476" type="curve" smooth="yes"/>
      <point x="440" y="1476"/>
      <point x="284" y="1380"/>
      <point x="182" y="1221" type="curve" smooth="yes"/>
      <point x="132" y="1141"/>
      <point x="98" y="1053"/>
      <point x="81" y="958" type="curve" smooth="yes"/>
      <point x="35" y="700"/>
      <point x="157" y="468"/>
      <point x="415" y="468" type="curve" smooth="yes"/>
      <point x="601" y="468"/>
      <point x="778" y="571"/>
      <point x="876" y="724" type="curve"/>
      <point x="797" y="275"/>
      <point x="548" y="38"/>
      <point x="158" y="34" type="curve" smooth="yes"/>
      <point x="115" y="34" type="line"/>
    </contour>
    <contour>
      <point x="424" y="522" type="curve" smooth="yes"/>
      <point x="191" y="522"/>
      <point x="96" y="737"/>
      <point x="135" y="958" type="curve" smooth="yes"/>
      <point x="177" y="1190"/>
      <point x="361" y="1422"/>
      <point x="595" y="1422" type="curve" smooth="yes"/>
      <point x="855" y="1422"/>
      <point x="967" y="1239"/>
      <point x="907" y="902" type="curve" smooth="yes"/>
      <point x="896" y="840" type="line"/>
      <point x="809" y="648"/>
      <point x="622" y="522"/>
    </contour>
  </outline>
</glyph>
<glyph name="question" format="2">
  <advance width="893"/>
  <unicode hex="003F"/>
  <note>
uni003F
</note>
  <outline>
    <contour>
      <point x="275" y="400" type="curve"/>
      <point x="329" y="400" type="line"/>
      <point x="352" y="530"/>
      <point x="413" y="629"/>
      <point x="513" y="698" type="curve"/>
      <point x="714" y="855"/>
      <point x="779" y="957"/>
      <point x="806" y="1110" type="curve" smooth="yes"/>
      <point x="845" y="1334"/>
      <point x="737" y="1476"/>
      <point x="527" y="1476" type="curve" smooth="yes"/>
      <point x="318" y="1476"/>
      <point x="140" y="1332"/>
      <point x="99" y="1116" type="curve"/>
      <point x="153" y="1116" type="line"/>
      <point x="187" y="1296"/>
      <point x="326" y="1423"/>
      <point x="518" y="1423" type="curve" smooth="yes"/>
      <point x="698" y="1423"/>
      <point x="786" y="1305"/>
      <point x="752" y="1112" type="curve" smooth="yes"/>
      <point x="721" y="933"/>
      <point x="636" y="854"/>
      <point x="492" y="739" type="curve" smooth="yes"/>
      <point x="352" y="627"/>
      <point x="304" y="549"/>
    </contour>
    <contour>
      <point x="234" y="-6" type="curve" smooth="yes"/>
      <point x="265" y="-6"/>
      <point x="294" y="18"/>
      <point x="300" y="49" type="curve" smooth="yes"/>
      <point x="305" y="80"/>
      <point x="284" y="105"/>
      <point x="254" y="105" type="curve" smooth="yes"/>
      <point x="223" y="105"/>
      <point x="194" y="80"/>
      <point x="189" y="49" type="curve" smooth="yes"/>
      <point x="183" y="18"/>
      <point x="203" y="-6"/>
    </contour>
  </outline>
</glyph>
<glyph name="at" format="2">
  <advance width="1902"/>
  <unicode hex="0040"/>
  <note>
uni0040
</note>
  <outline>
    <contour>
      <point x="638" y="-453" type="curve" smooth="yes"/>
      <point x="760" y="-453"/>
      <point x="917" y="-420"/>
      <point x="1012" y="-364" type="curve"/>
      <point x="996" y="-318" type="line"/>
      <point x="902" y="-367"/>
      <point x="772" y="-398"/>
      <point x="652" y="-398" type="curve" smooth="yes"/>
      <point x="157" y="-398"/>
      <point x="-27" y="-13"/>
      <point x="80" y="478" type="curve" smooth="yes"/>
      <point x="157" y="814"/>
      <point x="351" y="1093"/>
      <point x="621" y="1242" type="curve" smooth="yes"/>
      <point x="756" y="1317"/>
      <point x="899" y="1354"/>
      <point x="1048" y="1354" type="curve" smooth="yes"/>
      <point x="1543" y="1354"/>
      <point x="1740" y="1071"/>
      <point x="1614" y="523" type="curve" smooth="yes"/>
      <point x="1546" y="216"/>
      <point x="1397" y="35"/>
      <point x="1218" y="35" type="curve" smooth="yes"/>
      <point x="1088" y="35"/>
      <point x="1036" y="129"/>
      <point x="1080" y="293" type="curve" smooth="yes"/>
      <point x="1232" y="878" type="line"/>
      <point x="1140" y="966"/>
      <point x="1078" y="988"/>
      <point x="1001" y="988" type="curve" smooth="yes"/>
      <point x="917" y="988"/>
      <point x="835" y="959"/>
      <point x="760" y="905" type="curve" smooth="yes"/>
      <point x="631" y="812"/>
      <point x="524" y="648"/>
      <point x="467" y="436" type="curve" smooth="yes"/>
      <point x="394" y="160"/>
      <point x="456" y="-20"/>
      <point x="638" y="-20" type="curve" smooth="yes"/>
      <point x="786" y="-20"/>
      <point x="911" y="57"/>
      <point x="1011" y="210" type="curve"/>
      <point x="1001" y="66"/>
      <point x="1072" y="-20"/>
      <point x="1206" y="-20" type="curve" smooth="yes"/>
      <point x="1461" y="-20"/>
      <point x="1622" y="281"/>
      <point x="1671" y="523" type="curve" smooth="yes"/>
      <point x="1798" y="1095"/>
      <point x="1585" y="1411"/>
      <point x="1062" y="1411" type="curve" smooth="yes"/>
      <point x="730" y="1411"/>
      <point x="433" y="1253"/>
      <point x="235" y="970" type="curve" smooth="yes"/>
      <point x="136" y="829"/>
      <point x="66" y="665"/>
      <point x="25" y="478" type="curve" smooth="yes"/>
      <point x="-57" y="101"/>
      <point x="15" y="-191"/>
      <point x="228" y="-341" type="curve" smooth="yes"/>
      <point x="335" y="-416"/>
      <point x="472" y="-453"/>
    </contour>
    <contour>
      <point x="645" y="34" type="curve" smooth="yes"/>
      <point x="428" y="34"/>
      <point x="481" y="352"/>
      <point x="562" y="557" type="curve" smooth="yes"/>
      <point x="657" y="792"/>
      <point x="819" y="933"/>
      <point x="989" y="933" type="curve" smooth="yes"/>
      <point x="1073" y="933"/>
      <point x="1134" y="906"/>
      <point x="1170" y="851" type="curve"/>
      <point x="1038" y="344" type="line"/>
      <point x="933" y="137"/>
      <point x="812" y="34"/>
    </contour>
  </outline>
</glyph>
<glyph name="B" format="2">
  <advance width="1275"/>
  <unicode hex="0042"/>
  <note>
uni0042
</note>
  <outline>
    <contour>
      <point x="9" y="0" type="line"/>
      <point x="478" y="0" type="line" smooth="yes"/>
      <point x="765" y="0"/>
      <point x="961" y="153"/>
      <point x="1005" y="401" type="curve" smooth="yes"/>
      <point x="1036" y="576"/>
      <point x="925" y="729"/>
      <point x="745" y="753" type="curve"/>
      <point x="913" y="785"/>
      <point x="1028" y="907"/>
      <point x="1059" y="1083" type="curve" smooth="yes"/>
      <point x="1102" y="1326"/>
      <point x="962" y="1456"/>
      <point x="649" y="1456" type="curve" smooth="yes"/>
      <point x="266" y="1456" type="line"/>
    </contour>
    <contour>
      <point x="73" y="54" type="line"/>
      <point x="190" y="719" type="line"/>
      <point x="632" y="719" type="line" smooth="yes"/>
      <point x="859" y="715"/>
      <point x="983" y="583"/>
      <point x="951" y="399" type="curve" smooth="yes"/>
      <point x="912" y="183"/>
      <point x="740" y="54"/>
      <point x="494" y="54" type="curve" smooth="yes"/>
    </contour>
    <contour>
      <point x="200" y="773" type="line"/>
      <point x="310" y="1402" type="line"/>
      <point x="651" y="1402" type="line" smooth="yes"/>
      <point x="924" y="1399"/>
      <point x="1041" y="1294"/>
      <point x="1005" y="1087" type="curve" smooth="yes"/>
      <point x="967" y="872"/>
      <point x="814" y="773"/>
      <point x="549" y="773" type="curve" smooth="yes"/>
    </contour>
  </outline>
</glyph>
<glyph name="C" format="2">
  <advance width="1333"/>
  <unicode hex="0043"/>
  <note>
uni0043
</note>
  <outline>
    <contour>
      <point x="469" y="-20" type="curve" smooth="yes"/>
      <point x="776" y="-20"/>
      <point x="989" y="146"/>
      <point x="1070" y="446" type="curve"/>
      <point x="1016" y="446" type="line"/>
      <point x="939" y="171"/>
      <point x="756" y="34"/>
      <point x="478" y="34" type="curve" smooth="yes"/>
      <point x="53" y="34"/>
      <point x="85" y="482"/>
      <point x="115" y="649" type="curve" smooth="yes"/>
      <point x="147" y="833" type="line" smooth="yes"/>
      <point x="210" y="1192"/>
      <point x="440" y="1422"/>
      <point x="723" y="1422" type="curve" smooth="yes"/>
      <point x="1000" y="1422"/>
      <point x="1132" y="1280"/>
      <point x="1116" y="1012" type="curve"/>
      <point x="1170" y="1012" type="line"/>
      <point x="1194" y="1311"/>
      <point x="1036" y="1476"/>
      <point x="732" y="1476" type="curve" smooth="yes"/>
      <point x="383" y="1476"/>
      <point x="153" y="1178"/>
      <point x="93" y="837" type="curve" smooth="yes"/>
      <point x="-8" y="263"/>
      <point x="45" y="-20"/>
    </contour>
  </outline>
</glyph>
<glyph name="D" format="2">
  <advance width="1340"/>
  <unicode hex="0044"/>
  <note>
uni0044
</note>
  <outline>
    <contour>
      <point x="9" y="0" type="line"/>
      <point x="417" y="0" type="line" smooth="yes"/>
      <point x="772" y="0"/>
      <point x="1062" y="274"/>
      <point x="1126" y="639" type="curve" smooth="yes"/>
      <point x="1159" y="828" type="line" smooth="yes"/>
      <point x="1208" y="1111"/>
      <point x="1060" y="1456"/>
      <point x="669" y="1456" type="curve" smooth="yes"/>
      <point x="266" y="1456" type="line"/>
    </contour>
    <contour>
      <point x="73" y="54" type="line"/>
      <point x="310" y="1402" type="line"/>
      <point x="667" y="1402" type="line" smooth="yes"/>
      <point x="1148" y="1402"/>
      <point x="1115" y="880"/>
      <point x="1104" y="820" type="curve" smooth="yes"/>
      <point x="1071" y="633" type="line" smooth="yes"/>
      <point x="999" y="226"/>
      <point x="647" y="54"/>
      <point x="422" y="54" type="curve" smooth="yes"/>
    </contour>
  </outline>
</glyph>
<glyph name="E" format="2">
  <advance width="1166"/>
  <unicode hex="0045"/>
  <note>
uni0045
</note>
  <outline>
    <contour>
      <point x="9" y="0" type="line"/>
      <point x="895" y="0" type="line"/>
      <point x="905" y="54" type="line"/>
      <point x="73" y="54" type="line"/>
      <point x="191" y="722" type="line"/>
      <point x="921" y="722" type="line"/>
      <point x="930" y="776" type="line"/>
      <point x="200" y="776" type="line"/>
      <point x="310" y="1402" type="line"/>
      <point x="1142" y="1402" type="line"/>
      <point x="1152" y="1456" type="line"/>
      <point x="266" y="1456" type="line"/>
    </contour>
  </outline>
</glyph>
<glyph name="G" format="2">
  <advance width="1395"/>
  <unicode hex="0047"/>
  <note>
uni0047
</note>
  <outline>
    <contour>
      <point x="508" y="-20" type="curve" smooth="yes"/>
      <point x="729" y="-20"/>
      <point x="945" y="55"/>
      <point x="1036" y="156" type="curve"/>
      <point x="1125" y="660" type="line"/>
      <point x="626" y="660" type="line"/>
      <point x="616" y="605" type="line"/>
      <point x="1061" y="605" type="line"/>
      <point x="986" y="181" type="line"/>
      <point x="909" y="100"/>
      <point x="712" y="34"/>
      <point x="517" y="34" type="curve" smooth="yes"/>
      <point x="193" y="34"/>
      <point x="57" y="298"/>
      <point x="114" y="620" type="curve" smooth="yes"/>
      <point x="154" y="852" type="line" smooth="yes"/>
      <point x="215" y="1193"/>
      <point x="452" y="1422"/>
      <point x="745" y="1422" type="curve" smooth="yes"/>
      <point x="1005" y="1422"/>
      <point x="1144" y="1294"/>
      <point x="1139" y="1062" type="curve"/>
      <point x="1193" y="1062" type="line"/>
      <point x="1210" y="1318"/>
      <point x="1043" y="1476"/>
      <point x="754" y="1476" type="curve" smooth="yes"/>
      <point x="363" y="1474"/>
      <point x="166" y="1225"/>
      <point x="102" y="858" type="curve" smooth="yes"/>
      <point x="57" y="608" type="line" smooth="yes"/>
      <point x="-4" y="259"/>
      <point x="162" y="-20"/>
    </contour>
  </outline>
</glyph>
<glyph name="J" format="2">
  <advance width="1125"/>
  <unicode hex="004A"/>
  <note>
uni004A
</note>
  <outline>
    <contour>
      <point x="316" y="-20" type="curve" smooth="yes"/>
      <point x="569" y="-20"/>
      <point x="768" y="161"/>
      <point x="817" y="442" type="curve" smooth="yes"/>
      <point x="996" y="1456" type="line"/>
      <point x="942" y="1456" type="line"/>
      <point x="761" y="432" type="line" smooth="yes"/>
      <point x="714" y="187"/>
      <point x="539" y="34"/>
      <point x="325" y="34" type="curve" smooth="yes"/>
      <point x="81" y="34"/>
      <point x="-18" y="164"/>
      <point x="24" y="401" type="curve"/>
      <point x="-30" y="401" type="line"/>
      <point x="-78" y="130"/>
      <point x="44" y="-20"/>
    </contour>
  </outline>
</glyph>
<glyph name="O" format="2">
  <advance width="1364"/>
  <unicode hex="004F"/>
  <note>
uni004F
</note>
  <outline>
    <contour>
      <point x="489" y="-20" type="curve" smooth="yes"/>
      <point x="706" y="-20"/>
      <point x="899" y="91"/>
      <point x="1023" y="285" type="curve" smooth="yes"/>
      <point x="1085" y="382"/>
      <point x="1127" y="493"/>
      <point x="1149" y="619" type="curve" smooth="yes"/>
      <point x="1188" y="837" type="line" smooth="yes"/>
      <point x="1232" y="1086"/>
      <point x="1174" y="1291"/>
      <point x="1025" y="1397" type="curve" smooth="yes"/>
      <point x="951" y="1450"/>
      <point x="859" y="1476"/>
      <point x="750" y="1476" type="curve" smooth="yes"/>
      <point x="534" y="1476"/>
      <point x="341" y="1366"/>
      <point x="216" y="1171" type="curve" smooth="yes"/>
      <point x="154" y="1074"/>
      <point x="112" y="962"/>
      <point x="90" y="837" type="curve" smooth="yes"/>
      <point x="53" y="627" type="line" smooth="yes"/>
      <point x="19" y="432"/>
      <point x="44" y="273"/>
      <point x="118" y="161" type="curve" smooth="yes"/>
      <point x="194" y="45"/>
      <point x="322" y="-20"/>
    </contour>
    <contour>
      <point x="498" y="34" type="curve" smooth="yes"/>
      <point x="173" y="34"/>
      <point x="50" y="293"/>
      <point x="106" y="619" type="curve" smooth="yes"/>
      <point x="144" y="832" type="line" smooth="yes"/>
      <point x="208" y="1196"/>
      <point x="441" y="1422"/>
      <point x="741" y="1422" type="curve" smooth="yes"/>
      <point x="1045" y="1422"/>
      <point x="1196" y="1191"/>
      <point x="1134" y="839" type="curve" smooth="yes"/>
      <point x="1097" y="627" type="line" smooth="yes"/>
      <point x="1032" y="260"/>
      <point x="802" y="34"/>
    </contour>
  </outline>
</glyph>
<glyph name="R" format="2">
  <advance width="1340"/>
  <unicode hex="0052"/>
  <note>
uni0052
</note>
  <outline>
    <contour>
      <point x="4" y="0" type="line"/>
      <point x="58" y="0" type="line"/>
      <point x="168" y="623" type="line"/>
      <point x="673" y="623" type="line"/>
      <point x="950" y="0" type="line"/>
      <point x="1016" y="0" type="line"/>
      <point x="731" y="637" type="line"/>
      <point x="928" y="673"/>
      <point x="1094" y="837"/>
      <point x="1129" y="1036" type="curve" smooth="yes"/>
      <point x="1174" y="1295"/>
      <point x="1017" y="1456"/>
      <point x="725" y="1456" type="curve" smooth="yes"/>
      <point x="261" y="1456" type="line"/>
    </contour>
    <contour>
      <point x="178" y="677" type="line"/>
      <point x="305" y="1402" type="line"/>
      <point x="711" y="1402" type="line" smooth="yes"/>
      <point x="977" y="1402"/>
      <point x="1115" y="1263"/>
      <point x="1075" y="1036" type="curve" smooth="yes"/>
      <point x="1038" y="829"/>
      <point x="861" y="677"/>
      <point x="637" y="677" type="curve" smooth="yes"/>
    </contour>
  </outline>
</glyph>
<glyph name="S" format="2">
  <advance width="1215"/>
  <unicode hex="0053"/>
  <note>
uni0053
</note>
  <outline>
    <contour>
      <point x="439" y="-20" type="curve" smooth="yes"/>
      <point x="692" y="-20"/>
      <point x="954" y="102"/>
      <point x="998" y="351" type="curve" smooth="yes"/>
      <point x="1018" y="466"/>
      <point x="988" y="558"/>
      <point x="907" y="627" type="curve" smooth="yes"/>
      <point x="750" y="760"/>
      <point x="417" y="778"/>
      <point x="270" y="911" type="curve" smooth="yes"/>
      <point x="210" y="965"/>
      <point x="189" y="1035"/>
      <point x="204" y="1122" type="curve" smooth="yes"/>
      <point x="234" y="1294"/>
      <point x="430" y="1422"/>
      <point x="686" y="1422" type="curve" smooth="yes"/>
      <point x="941" y="1422"/>
      <point x="1089" y="1263"/>
      <point x="1051" y="1046" type="curve"/>
      <point x="1105" y="1046" type="line"/>
      <point x="1134" y="1211"/>
      <point x="1073" y="1349"/>
      <point x="938" y="1422" type="curve" smooth="yes"/>
      <point x="869" y="1458"/>
      <point x="788" y="1476"/>
      <point x="695" y="1476" type="curve" smooth="yes"/>
      <point x="408" y="1476"/>
      <point x="187" y="1332"/>
      <point x="150" y="1120" type="curve" smooth="yes"/>
      <point x="105" y="866"/>
      <point x="324" y="787"/>
      <point x="546" y="722" type="curve" smooth="yes"/>
      <point x="765" y="659"/>
      <point x="985" y="589"/>
      <point x="943" y="349" type="curve" smooth="yes"/>
      <point x="910" y="162"/>
      <point x="703" y="34"/>
      <point x="448" y="34" type="curve" smooth="yes"/>
      <point x="161" y="34"/>
      <point x="-10" y="172"/>
      <point x="32" y="411" type="curve"/>
      <point x="-22" y="411" type="line"/>
      <point x="-53" y="235"/>
      <point x="8" y="103"/>
      <point x="164" y="33" type="curve" smooth="yes"/>
      <point x="242" y="-3"/>
      <point x="334" y="-20"/>
    </contour>
  </outline>
</glyph>
<glyph name="T" format="2">
  <advance width="1224"/>
  <unicode hex="0054"/>
  <note>
uni0054
</note>
  <outline>
    <contour>
      <point x="394" y="0" type="line"/>
      <point x="448" y="0" type="line"/>
      <point x="695" y="1402" type="line"/>
      <point x="1225" y="1402" type="line"/>
      <point x="1235" y="1456" type="line"/>
      <point x="121" y="1456" type="line"/>
      <point x="111" y="1402" type="line"/>
      <point x="641" y="1402" type="line"/>
    </contour>
  </outline>
</glyph>
<glyph name="U" format="2">
  <advance width="1328"/>
  <unicode hex="0055"/>
  <note>
uni0055
</note>
  <anchor x="338" y="1089" name="he"/>
  <outline>
    <contour>
      <point x="489" y="-20" type="curve" smooth="yes"/>
      <point x="794" y="-20"/>
      <point x="1018" y="162"/>
      <point x="1072" y="470" type="curve" smooth="yes"/>
      <point x="1246" y="1456" type="line"/>
      <point x="1192" y="1456" type="line"/>
      <point x="1019" y="473" type="line" smooth="yes"/>
      <point x="971" y="202"/>
      <point x="766" y="34"/>
      <point x="498" y="34" type="curve" smooth="yes"/>
      <point x="230" y="34"/>
      <point x="84" y="203"/>
      <point x="131" y="472" type="curve" smooth="yes"/>
      <point x="305" y="1456" type="line"/>
      <point x="251" y="1456" type="line"/>
      <point x="76" y="466" type="line" smooth="yes"/>
      <point x="24" y="163"/>
      <point x="183" y="-20"/>
    </contour>
  </outline>
</glyph>
<glyph name="W" format="2">
  <advance width="1817"/>
  <unicode hex="0057"/>
  <note>
uni0057
</note>
  <outline>
    <contour>
      <point x="263" y="0" type="line"/>
      <point x="324" y="0" type="line"/>
      <point x="978" y="1368" type="line"/>
      <point x="1149" y="0" type="line"/>
      <point x="1210" y="0" type="line"/>
      <point x="1859" y="1456" type="line"/>
      <point x="1800" y="1456" type="line"/>
      <point x="1191" y="90" type="line"/>
      <point x="1025" y="1456" type="line"/>
      <point x="965" y="1456" type="line"/>
      <point x="314" y="90" type="line"/>
      <point x="187" y="1456" type="line"/>
      <point x="127" y="1456" type="line"/>
    </contour>
  </outline>
</glyph>
<glyph name="Y" format="2">
  <advance width="1230"/>
  <unicode hex="0059"/>
  <note>
uni0059
</note>
  <outline>
    <contour>
      <point x="391" y="0" type="line"/>
      <point x="445" y="0" type="line"/>
      <point x="543" y="553" type="line"/>
      <point x="1251" y="1456" type="line"/>
      <point x="1185" y="1456" type="line"/>
      <point x="524" y="602" type="line"/>
      <point x="171" y="1456" type="line"/>
      <point x="99" y="1456" type="line"/>
      <point x="489" y="553" type="line"/>
    </contour>
  </outline>
</glyph>
<glyph name="Z" format="2">
  <advance width="1226"/>
  <unicode hex="005A"/>
  <note>
uni005A
</note>
  <outline>
    <contour>
      <point x="-97" y="0" type="line"/>
      <point x="939" y="0" type="line"/>
      <point x="949" y="54" type="line"/>
      <point x="-13" y="54" type="line"/>
      <point x="1157" y="1418" type="line"/>
      <point x="1164" y="1456" type="line"/>
      <point x="200" y="1456" type="line"/>
      <point x="191" y="1403" type="line"/>
      <point x="1080" y="1403" type="line"/>
      <point x="-89" y="44" type="line"/>
    </contour>
  </outline>
</glyph>
<glyph name="bracketleft" format="2">
  <advance width="543"/>
  <unicode hex="005B"/>
  <note>
uni005B
</note>
  <outline>
    <contour>
      <point x="-65" y="-312" type="line"/>
      <point x="218" y="-312" type="line"/>
      <point x="228" y="-258" type="line"/>
      <point x="-1" y="-258" type="line"/>
      <point x="328" y="1610" type="line"/>
      <point x="557" y="1610" type="line"/>
      <point x="567" y="1664" type="line"/>
      <point x="284" y="1664" type="line"/>
    </contour>
  </outline>
</glyph>
<glyph name="bracketright" format="2">
  <advance width="439"/>
  <unicode hex="005D"/>
  <note>
uni005D
</note>
  <outline>
    <contour>
      <point x="-254" y="-312" type="line"/>
      <point x="29" y="-312" type="line"/>
      <point x="378" y="1664" type="line"/>
      <point x="95" y="1664" type="line"/>
      <point x="85" y="1610" type="line"/>
      <point x="313" y="1610" type="line"/>
      <point x="-16" y="-258" type="line"/>
      <point x="-244" y="-258" type="line"/>
    </contour>
  </outline>
</glyph>
<glyph name="b" format="2">
  <advance width="1121"/>
  <unicode hex="0062"/>
  <note>
uni0062
</note>
  <outline>
    <contour>
      <point x="399" y="-20" type="curve" smooth="yes"/>
      <point x="649" y="-20"/>
      <point x="842" y="194"/>
      <point x="902" y="531" type="curve" smooth="yes"/>
      <point x="905" y="548" type="line" smooth="yes"/>
      <point x="967" y="899"/>
      <point x="848" y="1102"/>
      <point x="595" y="1102" type="curve" smooth="yes"/>
      <point x="431" y="1102"/>
      <point x="290" y="1028"/>
      <point x="189" y="885" type="curve"/>
      <point x="304" y="1536" type="line"/>
      <point x="250" y="1536" type="line"/>
      <point x="-21" y="0" type="line"/>
      <point x="33" y="0" type="line"/>
      <point x="63" y="171" type="line"/>
      <point x="116" y="51"/>
      <point x="236" y="-20"/>
    </contour>
    <contour>
      <point x="409" y="34" type="curve" smooth="yes"/>
      <point x="225" y="34"/>
      <point x="112" y="121"/>
      <point x="82" y="274" type="curve"/>
      <point x="169" y="770" type="line"/>
      <point x="259" y="954"/>
      <point x="405" y="1048"/>
      <point x="586" y="1048" type="curve" smooth="yes"/>
      <point x="807" y="1048"/>
      <point x="904" y="863"/>
      <point x="850" y="552" type="curve" smooth="yes"/>
      <point x="790" y="216"/>
      <point x="632" y="34"/>
    </contour>
  </outline>
</glyph>
<glyph name="c" format="2">
  <advance width="1072"/>
  <unicode hex="0063"/>
  <note>
uni0063
</note>
  <outline>
    <contour>
      <point x="365" y="-20" type="curve" smooth="yes"/>
      <point x="588" y="-20"/>
      <point x="779" y="119"/>
      <point x="827" y="328" type="curve"/>
      <point x="773" y="328" type="line"/>
      <point x="729" y="144"/>
      <point x="570" y="34"/>
      <point x="374" y="34" type="curve" smooth="yes"/>
      <point x="133" y="34"/>
      <point x="18" y="217"/>
      <point x="72" y="520" type="curve" smooth="yes"/>
      <point x="78" y="555" type="line" smooth="yes"/>
      <point x="133" y="864"/>
      <point x="310" y="1048"/>
      <point x="551" y="1048" type="curve" smooth="yes"/>
      <point x="752" y="1048"/>
      <point x="868" y="920"/>
      <point x="843" y="725" type="curve"/>
      <point x="897" y="725" type="line"/>
      <point x="928" y="953"/>
      <point x="790" y="1102"/>
      <point x="561" y="1102" type="curve" smooth="yes"/>
      <point x="293" y="1102"/>
      <point x="83" y="890"/>
      <point x="25" y="562" type="curve" smooth="yes"/>
      <point x="19" y="526" type="line" smooth="yes"/>
      <point x="-40" y="190"/>
      <point x="94" y="-20"/>
    </contour>
  </outline>
</glyph>
<glyph name="d" format="2">
  <advance width="1155"/>
  <unicode hex="0064"/>
  <note>
uni0064
</note>
  <outline>
    <contour>
      <point x="334" y="-20" type="curve" smooth="yes"/>
      <point x="497" y="-20"/>
      <point x="642" y="50"/>
      <point x="737" y="173" type="curve"/>
      <point x="706" y="0" type="line"/>
      <point x="760" y="0" type="line"/>
      <point x="1031" y="1536" type="line"/>
      <point x="977" y="1536" type="line"/>
      <point x="862" y="883" type="line"/>
      <point x="810" y="1028"/>
      <point x="697" y="1102"/>
      <point x="534" y="1102" type="curve" smooth="yes"/>
      <point x="281" y="1102"/>
      <point x="89" y="897"/>
      <point x="29" y="552" type="curve" smooth="yes"/>
      <point x="-35" y="191"/>
      <point x="83" y="-20"/>
    </contour>
    <contour>
      <point x="342" y="34" type="curve" smooth="yes"/>
      <point x="119" y="34"/>
      <point x="27" y="224"/>
      <point x="81" y="531" type="curve" smooth="yes"/>
      <point x="141" y="871"/>
      <point x="302" y="1048"/>
      <point x="523" y="1048" type="curve" smooth="yes"/>
      <point x="706" y="1048"/>
      <point x="813" y="957"/>
      <point x="843" y="775" type="curve"/>
      <point x="753" y="268" type="line"/>
      <point x="665" y="115"/>
      <point x="521" y="34"/>
    </contour>
  </outline>
</glyph>
<glyph name="e" format="2">
  <advance width="1032"/>
  <unicode hex="0065"/>
  <note>
uni0065
</note>
  <outline>
    <contour>
      <point x="367" y="-20" type="curve" smooth="yes"/>
      <point x="525" y="-20"/>
      <point x="655" y="38"/>
      <point x="757" y="155" type="curve"/>
      <point x="723" y="182" type="line"/>
      <point x="627" y="81"/>
      <point x="521" y="33"/>
      <point x="376" y="33" type="curve" smooth="yes"/>
      <point x="105" y="33"/>
      <point x="-6" y="248"/>
      <point x="52" y="577" type="curve"/>
      <point x="863" y="577" type="line"/>
      <point x="873" y="634" type="line" smooth="yes"/>
      <point x="922" y="914"/>
      <point x="786" y="1102"/>
      <point x="545" y="1102" type="curve" smooth="yes"/>
      <point x="379" y="1102"/>
      <point x="213" y="1004"/>
      <point x="104" y="837" type="curve" smooth="yes"/>
      <point x="49" y="754"/>
      <point x="13" y="662"/>
      <point x="-5" y="562" type="curve" smooth="yes"/>
      <point x="-13" y="517" type="line" smooth="yes"/>
      <point x="-64" y="226"/>
      <point x="87" y="-20"/>
    </contour>
    <contour>
      <point x="64" y="631" type="line"/>
      <point x="133" y="874"/>
      <point x="324" y="1048"/>
      <point x="535" y="1048" type="curve" smooth="yes"/>
      <point x="760" y="1048"/>
      <point x="858" y="856"/>
      <point x="818" y="631" type="curve"/>
    </contour>
  </outline>
</glyph>
<glyph name="f" format="2">
  <advance width="711"/>
  <unicode hex="0066"/>
  <note>
uni0066
</note>
  <outline>
    <contour>
      <point x="63" y="0" type="line"/>
      <point x="117" y="0" type="line"/>
      <point x="298" y="1027" type="line"/>
      <point x="584" y="1027" type="line"/>
      <point x="594" y="1082" type="line"/>
      <point x="308" y="1082" type="line"/>
      <point x="335" y="1236" type="line" smooth="yes"/>
      <point x="365" y="1407"/>
      <point x="470" y="1503"/>
      <point x="612" y="1503" type="curve" smooth="yes"/>
      <point x="657" y="1503"/>
      <point x="696" y="1498"/>
      <point x="729" y="1488" type="curve"/>
      <point x="746" y="1540" type="line"/>
      <point x="712" y="1551"/>
      <point x="670" y="1557"/>
      <point x="621" y="1557" type="curve" smooth="yes"/>
      <point x="443" y="1557"/>
      <point x="318" y="1440"/>
      <point x="282" y="1240" type="curve" smooth="yes"/>
      <point x="254" y="1082" type="line"/>
      <point x="66" y="1082" type="line"/>
      <point x="56" y="1027" type="line"/>
      <point x="244" y="1027" type="line"/>
    </contour>
  </outline>
</glyph>
<glyph name="g" format="2">
  <advance width="1149"/>
  <unicode hex="0067"/>
  <note>
uni0067
</note>
  <outline>
    <contour>
      <point x="273" y="-436" type="curve" smooth="yes"/>
      <point x="525" y="-436"/>
      <point x="712" y="-266"/>
      <point x="763" y="19" type="curve" smooth="yes"/>
      <point x="950" y="1082" type="line"/>
      <point x="895" y="1082" type="line"/>
      <point x="860" y="884" type="line"/>
      <point x="809" y="1027"/>
      <point x="694" y="1102"/>
      <point x="533" y="1102" type="curve" smooth="yes"/>
      <point x="280" y="1102"/>
      <point x="88" y="897"/>
      <point x="25" y="538" type="curve" smooth="yes"/>
      <point x="-36" y="191"/>
      <point x="82" y="-20"/>
      <point x="333" y="-20" type="curve" smooth="yes"/>
      <point x="494" y="-20"/>
      <point x="638" y="48"/>
      <point x="734" y="171" type="curve"/>
      <point x="705" y="5" type="line" smooth="yes"/>
      <point x="658" y="-242"/>
      <point x="504" y="-383"/>
      <point x="281" y="-383" type="curve" smooth="yes"/>
      <point x="146" y="-383"/>
      <point x="61" y="-325"/>
      <point x="-4" y="-218" type="curve"/>
      <point x="-49" y="-254" type="line"/>
      <point x="16" y="-371"/>
      <point x="128" y="-436"/>
    </contour>
    <contour>
      <point x="341" y="34" type="curve" smooth="yes"/>
      <point x="120" y="34"/>
      <point x="24" y="222"/>
      <point x="79" y="531" type="curve" smooth="yes"/>
      <point x="139" y="871"/>
      <point x="299" y="1048"/>
      <point x="522" y="1048" type="curve" smooth="yes"/>
      <point x="708" y="1048"/>
      <point x="813" y="954"/>
      <point x="839" y="767" type="curve"/>
      <point x="753" y="276" type="line"/>
      <point x="673" y="123"/>
      <point x="524" y="34"/>
    </contour>
  </outline>
</glyph>
<glyph name="k" format="2">
  <advance width="1038"/>
  <unicode hex="006B"/>
  <note>
uni006B
</note>
  <outline>
    <contour>
      <point x="-19" y="0" type="line"/>
      <point x="35" y="0" type="line"/>
      <point x="114" y="448" type="line"/>
      <point x="295" y="583" type="line"/>
      <point x="297" y="585" type="line"/>
      <point x="692" y="0" type="line"/>
      <point x="762" y="0" type="line"/>
      <point x="344" y="621" type="line"/>
      <point x="922" y="1082" type="line"/>
      <point x="845" y="1082" type="line"/>
      <point x="125" y="507" type="line"/>
      <point x="306" y="1536" type="line"/>
      <point x="252" y="1536" type="line"/>
    </contour>
  </outline>
</glyph>
<glyph name="m" format="2">
  <advance width="1795"/>
  <unicode hex="006D"/>
  <note>
uni006D
</note>
  <outline>
    <contour>
      <point x="-21" y="0" type="line"/>
      <point x="34" y="0" type="line"/>
      <point x="155" y="684" type="line"/>
      <point x="228" y="880"/>
      <point x="395" y="1049"/>
      <point x="599" y="1049" type="curve" smooth="yes"/>
      <point x="804" y="1049"/>
      <point x="876" y="944"/>
      <point x="838" y="727" type="curve" smooth="yes"/>
      <point x="710" y="0" type="line"/>
      <point x="764" y="0" type="line"/>
      <point x="891" y="720" type="line"/>
      <point x="922" y="846"/>
      <point x="1086" y="1045"/>
      <point x="1333" y="1049" type="curve" smooth="yes"/>
      <point x="1538" y="1052"/>
      <point x="1610" y="939"/>
      <point x="1568" y="702" type="curve" smooth="yes"/>
      <point x="1444" y="0" type="line"/>
      <point x="1498" y="0" type="line"/>
      <point x="1623" y="706" type="line" smooth="yes"/>
      <point x="1668" y="970"/>
      <point x="1579" y="1102"/>
      <point x="1346" y="1102" type="curve" smooth="yes"/>
      <point x="1167" y="1102"/>
      <point x="994" y="1002"/>
      <point x="902" y="846" type="curve"/>
      <point x="898" y="1027"/>
      <point x="793" y="1102"/>
      <point x="612" y="1102" type="curve" smooth="yes"/>
      <point x="447" y="1102"/>
      <point x="284" y="1002"/>
      <point x="180" y="826" type="curve"/>
      <point x="225" y="1082" type="line"/>
      <point x="170" y="1082" type="line"/>
    </contour>
  </outline>
</glyph>
<glyph name="o" format="2">
  <advance width="1168"/>
  <unicode hex="006F"/>
  <note>
uni006F
</note>
  <outline>
    <contour>
      <point x="371" y="-20" type="curve" smooth="yes"/>
      <point x="555" y="-20"/>
      <point x="722" y="77"/>
      <point x="830" y="241" type="curve" smooth="yes"/>
      <point x="884" y="323"/>
      <point x="920" y="416"/>
      <point x="938" y="520" type="curve" smooth="yes"/>
      <point x="946" y="568" type="line" smooth="yes"/>
      <point x="999" y="868"/>
      <point x="857" y="1102"/>
      <point x="567" y="1102" type="curve" smooth="yes"/>
      <point x="384" y="1102"/>
      <point x="215" y="1005"/>
      <point x="107" y="841" type="curve" smooth="yes"/>
      <point x="53" y="758"/>
      <point x="17" y="665"/>
      <point x="-2" y="562" type="curve" smooth="yes"/>
      <point x="-10" y="514" type="line" smooth="yes"/>
      <point x="-76" y="140"/>
      <point x="146" y="-20"/>
    </contour>
    <contour>
      <point x="380" y="34" type="curve" smooth="yes"/>
      <point x="116" y="34"/>
      <point x="-1" y="261"/>
      <point x="45" y="520" type="curve" smooth="yes"/>
      <point x="101" y="837"/>
      <point x="310" y="1048"/>
      <point x="557" y="1048" type="curve" smooth="yes"/>
      <point x="818" y="1048"/>
      <point x="936" y="818"/>
      <point x="886" y="531" type="curve" smooth="yes"/>
      <point x="834" y="239"/>
      <point x="627" y="34"/>
    </contour>
  </outline>
</glyph>
<glyph name="p" format="2">
  <advance width="1149"/>
  <unicode hex="0070"/>
  <note>
uni0070
</note>
  <outline>
    <contour>
      <point x="-94" y="-416" type="line"/>
      <point x="-40" y="-416" type="line"/>
      <point x="63" y="168" type="line"/>
      <point x="114" y="51"/>
      <point x="235" y="-20"/>
      <point x="399" y="-20" type="curve" smooth="yes"/>
      <point x="649" y="-20"/>
      <point x="842" y="194"/>
      <point x="902" y="531" type="curve" smooth="yes"/>
      <point x="905" y="548" type="line" smooth="yes"/>
      <point x="967" y="899"/>
      <point x="848" y="1102"/>
      <point x="595" y="1102" type="curve" smooth="yes"/>
      <point x="433" y="1102"/>
      <point x="289" y="1026"/>
      <point x="190" y="889" type="curve"/>
      <point x="224" y="1082" type="line"/>
      <point x="170" y="1082" type="line"/>
    </contour>
    <contour>
      <point x="409" y="34" type="curve" smooth="yes"/>
      <point x="227" y="34"/>
      <point x="110" y="120"/>
      <point x="81" y="269" type="curve"/>
      <point x="170" y="775" type="line"/>
      <point x="257" y="951"/>
      <point x="405" y="1048"/>
      <point x="586" y="1048" type="curve" smooth="yes"/>
      <point x="809" y="1048"/>
      <point x="905" y="863"/>
      <point x="851" y="552" type="curve" smooth="yes"/>
      <point x="791" y="213"/>
      <point x="631" y="34"/>
    </contour>
  </outline>
</glyph>
<glyph name="r" format="2">
  <advance width="693"/>
  <unicode hex="0072"/>
  <note>
uni0072
</note>
  <outline>
    <contour>
      <point x="-19" y="0" type="line"/>
      <point x="35" y="0" type="line"/>
      <point x="160" y="709" type="line"/>
      <point x="237" y="924"/>
      <point x="393" y="1065"/>
      <point x="573" y="1049" type="curve" smooth="yes"/>
      <point x="642" y="1043" type="line"/>
      <point x="657" y="1091" type="line"/>
      <point x="639" y="1098"/>
      <point x="614" y="1102"/>
      <point x="583" y="1102" type="curve" smooth="yes"/>
      <point x="405" y="1102"/>
      <point x="272" y="1008"/>
      <point x="186" y="857" type="curve"/>
      <point x="226" y="1082" type="line"/>
      <point x="172" y="1082" type="line"/>
    </contour>
  </outline>
</glyph>
<glyph name="s" format="2">
  <advance width="1056"/>
  <unicode hex="0073"/>
  <note>
uni0073
</note>
  <outline>
    <contour>
      <point x="319" y="-20" type="curve" smooth="yes"/>
      <point x="545" y="-20"/>
      <point x="719" y="93"/>
      <point x="749" y="264" type="curve" smooth="yes"/>
      <point x="768" y="375"/>
      <point x="737" y="448"/>
      <point x="643" y="504" type="curve" smooth="yes"/>
      <point x="596" y="532"/>
      <point x="530" y="556"/>
      <point x="444" y="577" type="curve" smooth="yes"/>
      <point x="273" y="618"/>
      <point x="195" y="661"/>
      <point x="164" y="717" type="curve" smooth="yes"/>
      <point x="148" y="744"/>
      <point x="144" y="782"/>
      <point x="153" y="831" type="curve" smooth="yes"/>
      <point x="175" y="955"/>
      <point x="310" y="1048"/>
      <point x="499" y="1048" type="curve" smooth="yes"/>
      <point x="696" y="1048"/>
      <point x="812" y="938"/>
      <point x="786" y="793" type="curve"/>
      <point x="841" y="793" type="line"/>
      <point x="874" y="982"/>
      <point x="742" y="1102"/>
      <point x="509" y="1102" type="curve" smooth="yes"/>
      <point x="294" y="1102"/>
      <point x="126" y="988"/>
      <point x="98" y="829" type="curve" smooth="yes"/>
      <point x="71" y="672"/>
      <point x="147" y="590"/>
      <point x="406" y="533" type="curve" smooth="yes"/>
      <point x="622" y="486"/>
      <point x="718" y="396"/>
      <point x="695" y="265" type="curve" smooth="yes"/>
      <point x="672" y="137"/>
      <point x="522" y="34"/>
      <point x="328" y="34" type="curve" smooth="yes"/>
      <point x="118" y="34"/>
      <point x="4" y="123"/>
      <point x="20" y="275" type="curve"/>
      <point x="-34" y="275" type="line"/>
      <point x="-65" y="102"/>
      <point x="76" y="-20"/>
    </contour>
  </outline>
</glyph>
<glyph name="t" format="2">
  <advance width="648"/>
  <unicode hex="0074"/>
  <note>
uni0074
</note>
  <outline>
    <contour>
      <point x="265" y="-20" type="curve" smooth="yes"/>
      <point x="318" y="-20"/>
      <point x="356" y="-16"/>
      <point x="380" y="-8" type="curve"/>
      <point x="380" y="43" type="line"/>
      <point x="337" y="37"/>
      <point x="301" y="34"/>
      <point x="271" y="34" type="curve" smooth="yes"/>
      <point x="154" y="34"/>
      <point x="121" y="106"/>
      <point x="148" y="259" type="curve" smooth="yes"/>
      <point x="283" y="1027" type="line"/>
      <point x="529" y="1027" type="line"/>
      <point x="539" y="1082" type="line"/>
      <point x="293" y="1082" type="line"/>
      <point x="344" y="1374" type="line"/>
      <point x="289" y="1374" type="line"/>
      <point x="238" y="1082" type="line"/>
      <point x="38" y="1082" type="line"/>
      <point x="28" y="1027" type="line"/>
      <point x="228" y="1027" type="line"/>
      <point x="92" y="252" type="line" smooth="yes"/>
      <point x="60" y="64"/>
      <point x="107" y="-20"/>
    </contour>
  </outline>
</glyph>
<glyph name="u" format="2">
  <advance width="1129"/>
  <unicode hex="0075"/>
  <note>
uni0075
</note>
  <outline>
    <contour>
      <point x="330" y="-20" type="curve" smooth="yes"/>
      <point x="518" y="-20"/>
      <point x="652" y="55"/>
      <point x="737" y="175" type="curve"/>
      <point x="706" y="0" type="line"/>
      <point x="761" y="0" type="line"/>
      <point x="952" y="1082" type="line"/>
      <point x="897" y="1082" type="line"/>
      <point x="763" y="321" type="line"/>
      <point x="695" y="133"/>
      <point x="544" y="34"/>
      <point x="337" y="34" type="curve" smooth="yes"/>
      <point x="143" y="34"/>
      <point x="61" y="154"/>
      <point x="99" y="383" type="curve" smooth="yes"/>
      <point x="222" y="1082" type="line"/>
      <point x="168" y="1082" type="line"/>
      <point x="45" y="385" type="line" smooth="yes"/>
      <point x="1" y="121"/>
      <point x="94" y="-20"/>
    </contour>
  </outline>
</glyph>
<glyph name="w" format="2">
  <advance width="1550"/>
  <unicode hex="0077"/>
  <note>
uni0077
</note>
  <outline>
    <contour>
      <point x="206" y="0" type="line"/>
      <point x="260" y="0" type="line"/>
      <point x="756" y="1007" type="line"/>
      <point x="896" y="0" type="line"/>
      <point x="950" y="0" type="line"/>
      <point x="1456" y="1082" type="line"/>
      <point x="1393" y="1082" type="line"/>
      <point x="935" y="80" type="line"/>
      <point x="797" y="1082" type="line"/>
      <point x="742" y="1082" type="line"/>
      <point x="248" y="80" type="line"/>
      <point x="145" y="1082" type="line"/>
      <point x="83" y="1082" type="line"/>
    </contour>
  </outline>
</glyph>
<glyph name="x" format="2">
  <advance width="1015"/>
  <unicode hex="0078"/>
  <note>
uni0078
</note>
  <outline>
    <contour>
      <point x="-136" y="0" type="line"/>
      <point x="-69" y="0" type="line"/>
      <point x="387" y="508" type="line"/>
      <point x="664" y="0" type="line"/>
      <point x="731" y="0" type="line"/>
      <point x="429" y="555" type="line"/>
      <point x="902" y="1082" type="line"/>
      <point x="834" y="1082" type="line"/>
      <point x="404" y="602" type="line"/>
      <point x="143" y="1082" type="line"/>
      <point x="75" y="1082" type="line"/>
      <point x="362" y="555" type="line"/>
    </contour>
  </outline>
</glyph>
<glyph name="y" format="2">
  <advance width="969"/>
  <unicode hex="0079"/>
  <note>
uni0079
</note>
  <outline>
    <contour>
      <point x="-100" y="-437" type="curve" smooth="yes"/>
      <point x="20" y="-437"/>
      <point x="121" y="-376"/>
      <point x="226" y="-188" type="curve" smooth="yes"/>
      <point x="934" y="1082" type="line"/>
      <point x="874" y="1082" type="line"/>
      <point x="317" y="84" type="line"/>
      <point x="92" y="1082" type="line"/>
      <point x="33" y="1082" type="line"/>
      <point x="274" y="6" type="line"/>
      <point x="177" y="-173" type="line" smooth="yes"/>
      <point x="95" y="-322"/>
      <point x="3" y="-399"/>
      <point x="-106" y="-384" type="curve" smooth="yes"/>
      <point x="-170" y="-375" type="line"/>
      <point x="-178" y="-426" type="line"/>
      <point x="-164" y="-433"/>
      <point x="-139" y="-437"/>
    </contour>
  </outline>
</glyph>
<glyph name="z" format="2">
  <advance width="1015"/>
  <unicode hex="007A"/>
  <note>
uni007A
</note>
  <outline>
    <contour>
      <point x="-104" y="0" type="line"/>
      <point x="739" y="0" type="line"/>
      <point x="749" y="54" type="line"/>
      <point x="-21" y="54" type="line"/>
      <point x="863" y="1034" type="line"/>
      <point x="871" y="1082" type="line"/>
      <point x="118" y="1082" type="line"/>
      <point x="108" y="1027" type="line"/>
      <point x="788" y="1027" type="line"/>
      <point x="-96" y="44" type="line"/>
    </contour>
  </outline>
</glyph>
<glyph name="braceleft" format="2">
  <advance width="693"/>
  <unicode hex="007B"/>
  <note>
uni007B
</note>
  <outline>
    <contour>
      <point x="373" y="-441" type="curve"/>
      <point x="402" y="-395" type="line"/>
      <point x="223" y="-331"/>
      <point x="153" y="-191"/>
      <point x="191" y="26" type="curve" smooth="yes"/>
      <point x="231" y="255" type="line" smooth="yes"/>
      <point x="263" y="434"/>
      <point x="211" y="541"/>
      <point x="77" y="576" type="curve"/>
      <point x="223" y="609"/>
      <point x="312" y="716"/>
      <point x="344" y="897" type="curve" smooth="yes"/>
      <point x="385" y="1125" type="line" smooth="yes"/>
      <point x="424" y="1349"/>
      <point x="543" y="1491"/>
      <point x="740" y="1552" type="curve"/>
      <point x="733" y="1597" type="line"/>
      <point x="509" y="1530"/>
      <point x="377" y="1383"/>
      <point x="333" y="1136" type="curve" smooth="yes"/>
      <point x="289" y="889" type="line" smooth="yes"/>
      <point x="256" y="702"/>
      <point x="156" y="609"/>
      <point x="-10" y="609" type="curve"/>
      <point x="-22" y="543" type="line"/>
      <point x="145" y="543"/>
      <point x="211" y="449"/>
      <point x="178" y="261" type="curve" smooth="yes"/>
      <point x="136" y="20" type="line" smooth="yes"/>
      <point x="92" y="-227"/>
      <point x="172" y="-374"/>
    </contour>
  </outline>
</glyph>
<glyph name="braceright" format="2">
  <advance width="693"/>
  <unicode hex="007D"/>
  <note>
uni007D
</note>
  <outline>
    <contour>
      <point x="-250" y="-441" type="line"/>
      <point x="-22" y="-373"/>
      <point x="107" y="-227"/>
      <point x="151" y="21" type="curve" smooth="yes"/>
      <point x="193" y="258" type="line" smooth="yes"/>
      <point x="226" y="448"/>
      <point x="326" y="543"/>
      <point x="493" y="543" type="curve"/>
      <point x="505" y="609" type="line"/>
      <point x="338" y="609"/>
      <point x="271" y="703"/>
      <point x="304" y="892" type="curve" smooth="yes"/>
      <point x="348" y="1141" type="line" smooth="yes"/>
      <point x="388" y="1382"/>
      <point x="311" y="1530"/>
      <point x="110" y="1597" type="curve"/>
      <point x="88" y="1552" type="line"/>
      <point x="263" y="1492"/>
      <point x="331" y="1349"/>
      <point x="291" y="1124" type="curve" smooth="yes"/>
      <point x="251" y="897" type="line" smooth="yes"/>
      <point x="219" y="716"/>
      <point x="271" y="609"/>
      <point x="406" y="576" type="curve"/>
      <point x="259" y="541"/>
      <point x="170" y="434"/>
      <point x="138" y="255" type="curve" smooth="yes"/>
      <point x="97" y="22" type="line" smooth="yes"/>
      <point x="59" y="-191"/>
      <point x="-60" y="-330"/>
      <point x="-260" y="-395" type="curve"/>
    </contour>
  </outline>
</glyph>
<glyph name="sterling" format="2">
  <advance width="1190"/>
  <unicode hex="00A3"/>
  <note>
uni00A3
</note>
  <outline>
    <contour>
      <point x="-92" y="0" type="line"/>
      <point x="870" y="0" type="line"/>
      <point x="879" y="54" type="line"/>
      <point x="122" y="54" type="line"/>
      <point x="179" y="113"/>
      <point x="218" y="207"/>
      <point x="238" y="336" type="curve" smooth="yes"/>
      <point x="287" y="667" type="line"/>
      <point x="655" y="667" type="line"/>
      <point x="664" y="721" type="line"/>
      <point x="294" y="721" type="line"/>
      <point x="341" y="1039" type="line"/>
      <point x="384" y="1283"/>
      <point x="525" y="1422"/>
      <point x="721" y="1422" type="curve" smooth="yes"/>
      <point x="920" y="1422"/>
      <point x="1020" y="1301"/>
      <point x="982" y="1089" type="curve"/>
      <point x="1036" y="1089" type="line"/>
      <point x="1078" y="1328"/>
      <point x="961" y="1476"/>
      <point x="730" y="1476" type="curve" smooth="yes"/>
      <point x="506" y="1476"/>
      <point x="335" y="1311"/>
      <point x="287" y="1039" type="curve"/>
      <point x="240" y="721" type="line"/>
      <point x="31" y="721" type="line"/>
      <point x="22" y="667" type="line"/>
      <point x="233" y="667" type="line"/>
      <point x="184" y="336" type="line" smooth="yes"/>
      <point x="162" y="193"/>
      <point x="105" y="73"/>
      <point x="38" y="54" type="curve"/>
      <point x="-82" y="54" type="line"/>
    </contour>
  </outline>
</glyph>
<glyph name="currency" format="2">
  <advance width="1460"/>
  <unicode hex="00A4"/>
  <note>
uni00A4
</note>
  <outline>
    <contour>
      <point x="1020" y="-117" type="line"/>
      <point x="1078" y="-81" type="line"/>
      <point x="960" y="63" type="line"/>
      <point x="1151" y="254"/>
      <point x="1188" y="387"/>
      <point x="1212" y="518" type="curve" smooth="yes"/>
      <point x="1245" y="708"/>
      <point x="1181" y="859"/>
      <point x="1113" y="974" type="curve"/>
      <point x="1291" y="1128" type="line"/>
      <point x="1247" y="1175" type="line"/>
      <point x="1072" y="1023" type="line"/>
      <point x="980" y="1104"/>
      <point x="869" y="1144"/>
      <point x="738" y="1144" type="curve" smooth="yes"/>
      <point x="608" y="1144"/>
      <point x="389" y="1082"/>
      <point x="260" y="944" type="curve"/>
      <point x="139" y="1094" type="line"/>
      <point x="89" y="1038" type="line"/>
      <point x="210" y="887" type="line"/>
      <point x="115" y="778"/>
      <point x="57" y="655"/>
      <point x="33" y="518" type="curve" smooth="yes"/>
      <point x="9" y="383"/>
      <point x="23" y="264"/>
      <point x="73" y="160" type="curve"/>
      <point x="-90" y="19" type="line"/>
      <point x="-48" y="-26" type="line"/>
      <point x="110" y="110" type="line"/>
      <point x="183" y="-35"/>
      <point x="379" y="-110"/>
      <point x="517" y="-110" type="curve" smooth="yes"/>
      <point x="656" y="-110"/>
      <point x="787" y="-66"/>
      <point x="908" y="22" type="curve"/>
    </contour>
    <contour>
      <point x="516" y="-52" type="curve" smooth="yes"/>
      <point x="229" y="-52"/>
      <point x="35" y="200"/>
      <point x="91" y="513" type="curve" smooth="yes"/>
      <point x="145" y="819"/>
      <point x="422" y="1075"/>
      <point x="715" y="1075" type="curve" smooth="yes"/>
      <point x="1154" y="1070"/>
      <point x="1166" y="670"/>
      <point x="1141" y="529" type="curve" smooth="yes"/>
      <point x="1088" y="228"/>
      <point x="822" y="-52"/>
    </contour>
  </outline>
</glyph>
<glyph name="brokenbar" format="2">
  <advance width="398"/>
  <unicode hex="00A6"/>
  <note>
uni00A6
</note>
  <outline>
    <contour>
      <point x="104" y="698" type="line"/>
      <point x="158" y="698" type="line"/>
      <point x="292" y="1456" type="line"/>
      <point x="238" y="1456" type="line"/>
    </contour>
    <contour>
      <point x="-66" y="-270" type="line"/>
      <point x="-12" y="-270" type="line"/>
      <point x="120" y="482" type="line"/>
      <point x="66" y="482" type="line"/>
    </contour>
  </outline>
</glyph>
<glyph name="dieresis" format="2">
  <advance width="906"/>
  <unicode hex="00A8"/>
  <note>
uni00A8
</note>
  <outline>
    <contour>
      <point x="279" y="1366" type="curve" smooth="yes"/>
      <point x="310" y="1366"/>
      <point x="339" y="1390"/>
      <point x="345" y="1421" type="curve" smooth="yes"/>
      <point x="350" y="1452"/>
      <point x="329" y="1477"/>
      <point x="299" y="1477" type="curve" smooth="yes"/>
      <point x="268" y="1477"/>
      <point x="239" y="1452"/>
      <point x="234" y="1421" type="curve" smooth="yes"/>
      <point x="228" y="1390"/>
      <point x="248" y="1366"/>
    </contour>
    <contour>
      <point x="724" y="1366" type="curve" smooth="yes"/>
      <point x="755" y="1366"/>
      <point x="784" y="1390"/>
      <point x="790" y="1421" type="curve" smooth="yes"/>
      <point x="795" y="1452"/>
      <point x="774" y="1477"/>
      <point x="744" y="1477" type="curve" smooth="yes"/>
      <point x="713" y="1477"/>
      <point x="684" y="1452"/>
      <point x="679" y="1421" type="curve" smooth="yes"/>
      <point x="673" y="1390"/>
      <point x="693" y="1366"/>
    </contour>
  </outline>
</glyph>
<glyph name="copyright" format="2">
  <advance width="1609"/>
  <unicode hex="00A9"/>
  <note>
uni00A9
</note>
  <outline>
    <contour>
      <point x="639" y="-21" type="curve" smooth="yes"/>
      <point x="901" y="-21"/>
      <point x="1163" y="129"/>
      <point x="1324" y="358" type="curve" smooth="yes"/>
      <point x="1405" y="473"/>
      <point x="1457" y="596"/>
      <point x="1481" y="729" type="curve" smooth="yes"/>
      <point x="1528" y="998"/>
      <point x="1440" y="1244"/>
      <point x="1242" y="1377" type="curve" smooth="yes"/>
      <point x="1144" y="1443"/>
      <point x="1030" y="1476"/>
      <point x="902" y="1476" type="curve" smooth="yes"/>
      <point x="646" y="1476"/>
      <point x="386" y="1335"/>
      <point x="220" y="1104" type="curve" smooth="yes"/>
      <point x="138" y="989"/>
      <point x="85" y="864"/>
      <point x="61" y="729" type="curve" smooth="yes"/>
      <point x="14" y="464"/>
      <point x="98" y="221"/>
      <point x="294" y="83" type="curve" smooth="yes"/>
      <point x="392" y="14"/>
      <point x="507" y="-21"/>
    </contour>
    <contour>
      <point x="688" y="302" type="curve" smooth="yes"/>
      <point x="876" y="302"/>
      <point x="1006" y="413"/>
      <point x="1042" y="616" type="curve"/>
      <point x="990" y="616" type="line"/>
      <point x="959" y="443"/>
      <point x="862" y="357"/>
      <point x="698" y="357" type="curve" smooth="yes"/>
      <point x="538" y="357"/>
      <point x="457" y="490"/>
      <point x="492" y="689" type="curve" smooth="yes"/>
      <point x="505" y="763" type="line" smooth="yes"/>
      <point x="541" y="970"/>
      <point x="671" y="1102"/>
      <point x="830" y="1102" type="curve" smooth="yes"/>
      <point x="988" y="1102"/>
      <point x="1061" y="1017"/>
      <point x="1031" y="842" type="curve"/>
      <point x="1083" y="842" type="line"/>
      <point x="1117" y="1039"/>
      <point x="1030" y="1155"/>
      <point x="839" y="1155" type="curve" smooth="yes"/>
      <point x="650" y="1155"/>
      <point x="491" y="999"/>
      <point x="451" y="768" type="curve" smooth="yes"/>
      <point x="437" y="693" type="line" smooth="yes"/>
      <point x="396" y="458"/>
      <point x="496" y="302"/>
    </contour>
    <contour>
      <point x="648" y="34" type="curve" smooth="yes"/>
      <point x="416" y="34"/>
      <point x="224" y="164"/>
      <point x="144" y="380" type="curve" smooth="yes"/>
      <point x="104" y="487"/>
      <point x="95" y="604"/>
      <point x="117" y="729" type="curve" smooth="yes"/>
      <point x="161" y="981"/>
      <point x="328" y="1209"/>
      <point x="552" y="1330" type="curve" smooth="yes"/>
      <point x="664" y="1391"/>
      <point x="777" y="1421"/>
      <point x="893" y="1421" type="curve" smooth="yes"/>
      <point x="1126" y="1421"/>
      <point x="1320" y="1288"/>
      <point x="1399" y="1076" type="curve" smooth="yes"/>
      <point x="1438" y="969"/>
      <point x="1447" y="854"/>
      <point x="1425" y="729" type="curve" smooth="yes"/>
      <point x="1381" y="481"/>
      <point x="1218" y="253"/>
      <point x="993" y="128" type="curve" smooth="yes"/>
      <point x="880" y="65"/>
      <point x="766" y="34"/>
    </contour>
  </outline>
</glyph>
<glyph name="ordfeminine" format="2">
  <advance width="898"/>
  <unicode hex="00AA"/>
  <note>
uni00AA
</note>
  <outline>
    <contour>
      <point x="348" y="691" type="curve" smooth="yes"/>
      <point x="443" y="691"/>
      <point x="546" y="743"/>
      <point x="612" y="823" type="curve"/>
      <point x="607" y="780"/>
      <point x="608" y="741"/>
      <point x="614" y="705" type="curve"/>
      <point x="672" y="705" type="line"/>
      <point x="664" y="763"/>
      <point x="666" y="823"/>
      <point x="677" y="884" type="curve" smooth="yes"/>
      <point x="733" y="1200" type="line" smooth="yes"/>
      <point x="764" y="1376"/>
      <point x="682" y="1476"/>
      <point x="527" y="1476" type="curve" smooth="yes"/>
      <point x="355" y="1476"/>
      <point x="219" y="1379"/>
      <point x="195" y="1243" type="curve"/>
      <point x="249" y="1243" type="line"/>
      <point x="271" y="1364"/>
      <point x="373" y="1422"/>
      <point x="518" y="1422" type="curve" smooth="yes"/>
      <point x="651" y="1422"/>
      <point x="702" y="1340"/>
      <point x="678" y="1201" type="curve" smooth="yes"/>
      <point x="666" y="1132" type="line"/>
      <point x="496" y="1132" type="line" smooth="yes"/>
      <point x="293" y="1132"/>
      <point x="162" y="1045"/>
      <point x="136" y="900" type="curve" smooth="yes"/>
      <point x="114" y="773"/>
      <point x="187" y="691"/>
    </contour>
    <contour>
      <point x="359" y="746" type="curve" smooth="yes"/>
      <point x="228" y="746"/>
      <point x="172" y="799"/>
      <point x="191" y="904" type="curve" smooth="yes"/>
      <point x="211" y="1020"/>
      <point x="311" y="1078"/>
      <point x="489" y="1078" type="curve" smooth="yes" name="❌"/>
      <point x="656" y="1078" type="line" name="❌"/>
      <point x="625" y="899" type="line"/>
      <point x="584" y="820"/>
      <point x="452" y="746"/>
    </contour>
  </outline>
</glyph>
<glyph name="registered" format="2">
  <advance width="1674"/>
  <unicode hex="00AE"/>
  <note>
uni00AE
</note>
  <outline>
    <contour>
      <point x="631" y="-21" type="curve" smooth="yes"/>
      <point x="893" y="-21"/>
      <point x="1155" y="129"/>
      <point x="1316" y="358" type="curve" smooth="yes"/>
      <point x="1397" y="473"/>
      <point x="1449" y="596"/>
      <point x="1473" y="729" type="curve" smooth="yes"/>
      <point x="1520" y="998"/>
      <point x="1432" y="1244"/>
      <point x="1234" y="1377" type="curve" smooth="yes"/>
      <point x="1136" y="1443"/>
      <point x="1022" y="1476"/>
      <point x="894" y="1476" type="curve" smooth="yes"/>
      <point x="638" y="1476"/>
      <point x="378" y="1335"/>
      <point x="212" y="1104" type="curve" smooth="yes"/>
      <point x="130" y="989"/>
      <point x="77" y="864"/>
      <point x="53" y="729" type="curve" smooth="yes"/>
      <point x="6" y="464"/>
      <point x="90" y="221"/>
      <point x="286" y="83" type="curve" smooth="yes"/>
      <point x="384" y="14"/>
      <point x="499" y="-21"/>
    </contour>
    <contour>
      <point x="640" y="34" type="curve" smooth="yes"/>
      <point x="404" y="34"/>
      <point x="212" y="169"/>
      <point x="134" y="383" type="curve" smooth="yes"/>
      <point x="95" y="490"/>
      <point x="86" y="605"/>
      <point x="108" y="729" type="curve" smooth="yes"/>
      <point x="152" y="978"/>
      <point x="315" y="1204"/>
      <point x="540" y="1328" type="curve" smooth="yes"/>
      <point x="766" y="1453"/>
      <point x="1048" y="1462"/>
      <point x="1244" y="1290" type="curve" smooth="yes"/>
      <point x="1309" y="1234"/>
      <point x="1359" y="1161"/>
      <point x="1391" y="1076" type="curve" smooth="yes"/>
      <point x="1430" y="969"/>
      <point x="1439" y="854"/>
      <point x="1417" y="729" type="curve" smooth="yes"/>
      <point x="1372" y="478"/>
      <point x="1208" y="252"/>
      <point x="985" y="128" type="curve" smooth="yes"/>
      <point x="872" y="65"/>
      <point x="758" y="34"/>
    </contour>
    <contour>
      <point x="460" y="326" type="line"/>
      <point x="515" y="326" type="line"/>
      <point x="577" y="678" type="line"/>
      <point x="802" y="678" type="line" smooth="yes"/>
      <point x="927" y="675"/>
      <point x="963" y="625"/>
      <point x="942" y="502" type="curve" smooth="yes"/>
      <point x="925" y="409"/>
      <point x="920" y="350"/>
      <point x="925" y="326" type="curve"/>
      <point x="984" y="326" type="line"/>
      <point x="987" y="342" type="line"/>
      <point x="981" y="375"/>
      <point x="985" y="428"/>
      <point x="998" y="502" type="curve" smooth="yes"/>
      <point x="1018" y="615"/>
      <point x="986" y="684"/>
      <point x="902" y="710" type="curve"/>
      <point x="1012" y="751"/>
      <point x="1075" y="820"/>
      <point x="1092" y="916" type="curve" smooth="yes"/>
      <point x="1120" y="1076"/>
      <point x="1038" y="1156"/>
      <point x="845" y="1156" type="curve" smooth="yes"/>
      <point x="606" y="1156" type="line"/>
    </contour>
    <contour>
      <point x="587" y="734" type="line"/>
      <point x="651" y="1101" type="line"/>
      <point x="849" y="1101" type="line" smooth="yes"/>
      <point x="1005" y="1098"/>
      <point x="1060" y="1048"/>
      <point x="1037" y="917" type="curve" smooth="yes"/>
      <point x="1018" y="808"/>
      <point x="920" y="734"/>
      <point x="792" y="734" type="curve" smooth="yes"/>
    </contour>
  </outline>
</glyph>
<glyph name="macron" format="2">
  <advance width="938"/>
  <unicode hex="00AF"/>
  <note>
uni00AF
</note>
  <outline>
    <contour>
      <point x="185" y="1383" type="line"/>
      <point x="752" y="1383" type="line"/>
      <point x="761" y="1436" type="line"/>
      <point x="194" y="1436" type="line"/>
    </contour>
  </outline>
</glyph>
<glyph name="threesuperior" format="2">
  <advance width="751"/>
  <unicode hex="00B3"/>
  <note>
uni00B3
</note>
  <outline>
    <contour>
      <point x="291" y="653" type="curve" smooth="yes"/>
      <point x="454" y="653"/>
      <point x="577" y="742"/>
      <point x="601" y="875" type="curve" smooth="yes"/>
      <point x="617" y="971"/>
      <point x="570" y="1040"/>
      <point x="460" y="1067" type="curve"/>
      <point x="566" y="1098"/>
      <point x="634" y="1170"/>
      <point x="647" y="1246" type="curve" smooth="yes"/>
      <point x="671" y="1382"/>
      <point x="588" y="1464"/>
      <point x="429" y="1464" type="curve" smooth="yes"/>
      <point x="277" y="1464"/>
      <point x="148" y="1374"/>
      <point x="126" y="1246" type="curve"/>
      <point x="179" y="1246" type="line"/>
      <point x="197" y="1347"/>
      <point x="299" y="1415"/>
      <point x="421" y="1415" type="curve" smooth="yes"/>
      <point x="547" y="1415"/>
      <point x="612" y="1352"/>
      <point x="593" y="1249" type="curve" smooth="yes"/>
      <point x="577" y="1157"/>
      <point x="481" y="1091"/>
      <point x="346" y="1090" type="curve" smooth="yes"/>
      <point x="271" y="1090" type="line"/>
      <point x="263" y="1041" type="line"/>
      <point x="323" y="1041" type="line" smooth="yes"/>
      <point x="491" y="1041"/>
      <point x="566" y="985"/>
      <point x="546" y="874" type="curve" smooth="yes"/>
      <point x="527" y="766"/>
      <point x="437" y="701"/>
      <point x="300" y="701" type="curve" smooth="yes"/>
      <point x="162" y="701"/>
      <point x="80" y="777"/>
      <point x="99" y="881" type="curve"/>
      <point x="45" y="881" type="line"/>
      <point x="21" y="746"/>
      <point x="126" y="653"/>
    </contour>
  </outline>
</glyph>
<glyph name="acute" format="2">
  <advance width="511"/>
  <unicode hex="00B4"/>
  <note>
uni00B4
</note>
  <outline>
    <contour>
      <point x="159" y="1270" type="line"/>
      <point x="219" y="1270" type="line"/>
      <point x="461" y="1536" type="line"/>
      <point x="395" y="1536" type="line"/>
    </contour>
  </outline>
</glyph>
<glyph name="cedilla" format="2">
  <advance width="507"/>
  <unicode hex="00B8"/>
  <note>
uni00B8
</note>
  <outline>
    <contour>
      <point x="-179" y="-435" type="line"/>
      <point x="-2" y="-435"/>
      <point x="119" y="-358"/>
      <point x="139" y="-245" type="curve" smooth="yes"/>
      <point x="157" y="-143"/>
      <point x="108" y="-87"/>
      <point x="-8" y="-76" type="curve"/>
      <point x="16" y="0" type="line"/>
      <point x="-37" y="0" type="line"/>
      <point x="-83" y="-121" type="line"/>
      <point x="63" y="-137"/>
      <point x="97" y="-170"/>
      <point x="84" y="-245" type="curve" smooth="yes"/>
      <point x="69" y="-328"/>
      <point x="-43" y="-386"/>
      <point x="-178" y="-386" type="curve"/>
    </contour>
  </outline>
</glyph>
<glyph name="onesuperior" format="2">
  <advance width="728"/>
  <unicode hex="00B9"/>
  <note>
uni00B9
</note>
  <outline>
    <contour>
      <point x="305" y="664" type="line"/>
      <point x="359" y="664" type="line"/>
      <point x="499" y="1455" type="line" name="❌"/>
      <point x="490" y="1455" type="line" name="❌"/>
      <point x="180" y="1358" type="line"/>
      <point x="170" y="1305" type="line"/>
      <point x="433" y="1386" type="line"/>
    </contour>
  </outline>
</glyph>
<glyph name="ordmasculine" format="2">
  <advance width="931"/>
  <unicode hex="00BA"/>
  <note>
uni00BA
</note>
  <outline>
    <contour>
      <point x="385" y="690" type="curve" smooth="yes"/>
      <point x="566" y="690"/>
      <point x="711" y="823"/>
      <point x="747" y="1024" type="curve" smooth="yes"/>
      <point x="767" y="1136" type="line" smooth="yes"/>
      <point x="803" y="1344"/>
      <point x="704" y="1476"/>
      <point x="521" y="1476" type="curve" smooth="yes"/>
      <point x="339" y="1476"/>
      <point x="194" y="1341"/>
      <point x="158" y="1141" type="curve" smooth="yes"/>
      <point x="139" y="1029" type="line" smooth="yes"/>
      <point x="102" y="820"/>
      <point x="202" y="690"/>
    </contour>
    <contour>
      <point x="394" y="744" type="curve" smooth="yes"/>
      <point x="236" y="744"/>
      <point x="161" y="849"/>
      <point x="192" y="1024" type="curve" smooth="yes"/>
      <point x="211" y="1135" type="line" smooth="yes"/>
      <point x="243" y="1315"/>
      <point x="360" y="1422"/>
      <point x="512" y="1422" type="curve" smooth="yes"/>
      <point x="665" y="1422"/>
      <point x="744" y="1312"/>
      <point x="714" y="1141" type="curve" smooth="yes"/>
      <point x="694" y="1028" type="line" smooth="yes"/>
      <point x="664" y="853"/>
      <point x="549" y="744"/>
    </contour>
  </outline>
</glyph>
<glyph name="questiondown" format="2">
  <advance width="969"/>
  <unicode hex="00BF"/>
  <note>
uni00BF
</note>
  <outline>
    <contour>
      <point x="203" y="-381" type="curve" smooth="yes"/>
      <point x="419" y="-381"/>
      <point x="580" y="-244"/>
      <point x="622" y="-21" type="curve"/>
      <point x="568" y="-21" type="line"/>
      <point x="529" y="-210"/>
      <point x="396" y="-328"/>
      <point x="212" y="-328" type="curve" smooth="yes"/>
      <point x="24" y="-328"/>
      <point x="-67" y="-216"/>
      <point x="-32" y="-17" type="curve" smooth="yes"/>
      <point x="-8" y="118"/>
      <point x="54" y="222"/>
      <point x="178" y="327" type="curve"/>
      <point x="403" y="508"/>
      <point x="415" y="539"/>
      <point x="446" y="695" type="curve"/>
      <point x="392" y="695" type="line"/>
      <point x="362" y="547"/>
      <point x="326" y="498"/>
      <point x="249" y="445" type="curve"/>
      <point x="18" y="264"/>
      <point x="-57" y="146"/>
      <point x="-85" y="-15" type="curve" smooth="yes"/>
      <point x="-124" y="-235"/>
      <point x="-17" y="-381"/>
    </contour>
    <contour>
      <point x="467" y="990" type="curve" smooth="yes"/>
      <point x="497" y="990"/>
      <point x="526" y="1015"/>
      <point x="532" y="1046" type="curve" smooth="yes"/>
      <point x="537" y="1077"/>
      <point x="517" y="1101"/>
      <point x="486" y="1101" type="curve" smooth="yes"/>
      <point x="456" y="1101"/>
      <point x="426" y="1077"/>
      <point x="421" y="1046" type="curve" smooth="yes"/>
      <point x="415" y="1015"/>
      <point x="436" y="990"/>
    </contour>
  </outline>
</glyph>
<glyph name="AE" format="2">
  <advance width="1914"/>
  <unicode hex="00C6"/>
  <note>
uni00C6
</note>
  <outline>
    <contour>
      <point x="-141" y="0" type="line"/>
      <point x="-76" y="0" type="line"/>
      <point x="255" y="425" type="line"/>
      <point x="882" y="425" type="line"/>
      <point x="825" y="0" type="line"/>
      <point x="1577" y="0" type="line"/>
      <point x="1587" y="54" type="line"/>
      <point x="886" y="54" type="line"/>
      <point x="977" y="732" type="line"/>
      <point x="1563" y="732" type="line"/>
      <point x="1573" y="786" type="line"/>
      <point x="985" y="786" type="line"/>
      <point x="1067" y="1402" type="line"/>
      <point x="1763" y="1402" type="line"/>
      <point x="1773" y="1456" type="line"/>
      <point x="997" y="1456" type="line"/>
    </contour>
    <contour>
      <point x="296" y="478" type="line"/>
      <point x="1013" y="1398" type="line"/>
      <point x="889" y="478" type="line"/>
    </contour>
  </outline>
</glyph>
<glyph name="Oslash" format="2">
  <advance width="1408"/>
  <unicode hex="00D8"/>
  <note>
uni00D8
</note>
  <outline>
    <contour>
      <point x="-27" y="-75" type="line"/>
      <point x="39" y="-75" type="line"/>
      <point x="174" y="92" type="line"/>
      <point x="254" y="17"/>
      <point x="359" y="-20"/>
      <point x="489" y="-20" type="curve" smooth="yes"/>
      <point x="706" y="-20"/>
      <point x="899" y="91"/>
      <point x="1023" y="285" type="curve" smooth="yes"/>
      <point x="1085" y="382"/>
      <point x="1127" y="493"/>
      <point x="1149" y="619" type="curve" smooth="yes"/>
      <point x="1188" y="839" type="line" smooth="yes"/>
      <point x="1219" y="1015"/>
      <point x="1200" y="1160"/>
      <point x="1134" y="1275" type="curve"/>
      <point x="1313" y="1495" type="line"/>
      <point x="1247" y="1495" type="line"/>
      <point x="1105" y="1319" type="line"/>
      <point x="1023" y="1424"/>
      <point x="904" y="1476"/>
      <point x="750" y="1476" type="curve" smooth="yes"/>
      <point x="534" y="1476"/>
      <point x="341" y="1366"/>
      <point x="216" y="1171" type="curve" smooth="yes"/>
      <point x="154" y="1074"/>
      <point x="112" y="962"/>
      <point x="90" y="837" type="curve" smooth="yes"/>
      <point x="53" y="629" type="line" smooth="yes"/>
      <point x="15" y="414"/>
      <point x="44" y="247"/>
      <point x="139" y="130" type="curve"/>
    </contour>
    <contour>
      <point x="498" y="34" type="curve" smooth="yes"/>
      <point x="378" y="34"/>
      <point x="282" y="68"/>
      <point x="211" y="137" type="curve"/>
      <point x="1096" y="1227" type="line"/>
      <point x="1149" y="1126"/>
      <point x="1162" y="997"/>
      <point x="1134" y="839" type="curve" smooth="yes"/>
      <point x="1097" y="627" type="line" smooth="yes"/>
      <point x="1032" y="260"/>
      <point x="802" y="34"/>
    </contour>
    <contour>
      <point x="177" y="176" type="line"/>
      <point x="97" y="282"/>
      <point x="73" y="430"/>
      <point x="106" y="619" type="curve" smooth="yes"/>
      <point x="144" y="832" type="line" smooth="yes"/>
      <point x="208" y="1196"/>
      <point x="441" y="1422"/>
      <point x="741" y="1422" type="curve" smooth="yes"/>
      <point x="888" y="1422"/>
      <point x="996" y="1372"/>
      <point x="1067" y="1273" type="curve"/>
    </contour>
  </outline>
</glyph>
<glyph name="Thorn" format="2">
  <advance width="1219"/>
  <unicode hex="00DE"/>
  <note>
uni00DE
</note>
  <outline>
    <contour>
      <point x="9" y="0" type="line"/>
      <point x="63" y="0" type="line"/>
      <point x="122" y="334" type="line"/>
      <point x="507" y="334" type="line" smooth="yes"/>
      <point x="776" y="339"/>
      <point x="972" y="498"/>
      <point x="1014" y="738" type="curve" smooth="yes"/>
      <point x="1045" y="912"/>
      <point x="980" y="1044"/>
      <point x="839" y="1105" type="curve" smooth="yes"/>
      <point x="784" y="1129"/>
      <point x="718" y="1142"/>
      <point x="642" y="1143" type="curve" smooth="yes"/>
      <point x="265" y="1143" type="line"/>
      <point x="320" y="1456" type="line"/>
      <point x="266" y="1456" type="line"/>
    </contour>
    <contour>
      <point x="132" y="388" type="line"/>
      <point x="255" y="1089" type="line"/>
      <point x="641" y="1089" type="line" smooth="yes"/>
      <point x="872" y="1084"/>
      <point x="996" y="940"/>
      <point x="960" y="736" type="curve" smooth="yes"/>
      <point x="924" y="533"/>
      <point x="744" y="388"/>
      <point x="503" y="388" type="curve" smooth="yes"/>
    </contour>
  </outline>
</glyph>
<glyph name="ae" format="2">
  <advance width="1729"/>
  <unicode hex="00E6"/>
  <note>
uni00E6
</note>
  <outline>
    <contour>
      <point x="254" y="-20" type="curve" smooth="yes"/>
      <point x="446" y="-20"/>
      <point x="627" y="75"/>
      <point x="718" y="230" type="curve"/>
      <point x="760" y="77"/>
      <point x="878" y="-20"/>
      <point x="1074" y="-20" type="curve" smooth="yes"/>
      <point x="1220" y="-20"/>
      <point x="1337" y="17"/>
      <point x="1461" y="122" type="curve"/>
      <point x="1438" y="164" type="line"/>
      <point x="1338" y="77"/>
      <point x="1219" y="34"/>
      <point x="1083" y="34" type="curve" smooth="yes"/>
      <point x="831" y="34"/>
      <point x="716" y="209"/>
      <point x="781" y="577" type="curve"/>
      <point x="1568" y="577" type="line"/>
      <point x="1582" y="656" type="line" smooth="yes"/>
      <point x="1632" y="940"/>
      <point x="1505" y="1102"/>
      <point x="1257" y="1102" type="curve" smooth="yes"/>
      <point x="1083" y="1102"/>
      <point x="920" y="997"/>
      <point x="813" y="814" type="curve"/>
      <point x="815" y="1001"/>
      <point x="713" y="1102"/>
      <point x="525" y="1102" type="curve" smooth="yes"/>
      <point x="289" y="1102"/>
      <point x="101" y="971"/>
      <point x="67" y="778" type="curve"/>
      <point x="119" y="771" type="line"/>
      <point x="149" y="938"/>
      <point x="304" y="1048"/>
      <point x="515" y="1048" type="curve" smooth="yes"/>
      <point x="712" y="1048"/>
      <point x="786" y="928"/>
      <point x="749" y="720" type="curve" smooth="yes"/>
      <point x="733" y="630" type="line"/>
      <point x="436" y="630" type="line" smooth="yes"/>
      <point x="167" y="630"/>
      <point x="-11" y="495"/>
      <point x="-48" y="284" type="curve" smooth="yes"/>
      <point x="-81" y="97"/>
      <point x="30" y="-20"/>
    </contour>
    <contour>
      <point x="262" y="32" type="curve" smooth="yes"/>
      <point x="67" y="32"/>
      <point x="-21" y="125"/>
      <point x="7" y="280" type="curve" smooth="yes"/>
      <point x="38" y="456"/>
      <point x="200" y="575"/>
      <point x="423" y="575" type="curve" smooth="yes"/>
      <point x="724" y="575" type="line"/>
      <point x="662" y="225" type="line"/>
      <point x="573" y="126"/>
      <point x="394" y="32"/>
    </contour>
    <contour>
      <point x="794" y="632" type="line"/>
      <point x="863" y="884"/>
      <point x="1043" y="1048"/>
      <point x="1247" y="1048" type="curve" smooth="yes"/>
      <point x="1464" y="1048"/>
      <point x="1570" y="896"/>
      <point x="1529" y="664" type="curve" smooth="yes"/>
      <point x="1524" y="632" type="line"/>
    </contour>
  </outline>
</glyph>
<glyph name="eth" format="2">
  <advance width="1183"/>
  <unicode hex="00F0"/>
  <note>
uni00F0
</note>
  <outline>
    <contour>
      <point x="435" y="-20" type="curve" smooth="yes"/>
      <point x="593" y="-20"/>
      <point x="744" y="81"/>
      <point x="843" y="250" type="curve" smooth="yes"/>
      <point x="892" y="334"/>
      <point x="926" y="429"/>
      <point x="945" y="535" type="curve" smooth="yes"/>
      <point x="959" y="615" type="line" smooth="yes"/>
      <point x="1012" y="920"/>
      <point x="974" y="1141"/>
      <point x="842" y="1308" type="curve"/>
      <point x="1049" y="1413" type="line"/>
      <point x="1029" y="1461" type="line"/>
      <point x="807" y="1348" type="line"/>
      <point x="723" y="1439"/>
      <point x="625" y="1501"/>
      <point x="468" y="1562" type="curve"/>
      <point x="416" y="1527" type="line"/>
      <point x="562" y="1470"/>
      <point x="673" y="1401"/>
      <point x="751" y="1320" type="curve"/>
      <point x="509" y="1197" type="line"/>
      <point x="529" y="1149" type="line"/>
      <point x="787" y="1280" type="line"/>
      <point x="884" y="1160"/>
      <point x="937" y="1004"/>
      <point x="924" y="780" type="curve"/>
      <point x="863" y="892"/>
      <point x="729" y="953"/>
      <point x="578" y="953" type="curve" smooth="yes"/>
      <point x="309" y="953"/>
      <point x="119" y="773"/>
      <point x="64" y="465" type="curve" smooth="yes"/>
      <point x="32" y="285"/>
      <point x="88" y="127"/>
      <point x="212" y="43" type="curve" smooth="yes"/>
      <point x="275" y="1"/>
      <point x="349" y="-20"/>
    </contour>
    <contour>
      <point x="449" y="38" type="curve" smooth="yes"/>
      <point x="197" y="38"/>
      <point x="80" y="240"/>
      <point x="119" y="465" type="curve" smooth="yes"/>
      <point x="167" y="736"/>
      <point x="332" y="895"/>
      <point x="568" y="895" type="curve" smooth="yes"/>
      <point x="745" y="895"/>
      <point x="877" y="812"/>
      <point x="914" y="672" type="curve"/>
      <point x="887" y="520" type="line" smooth="yes"/>
      <point x="839" y="233"/>
      <point x="657" y="38"/>
    </contour>
  </outline>
</glyph>
<glyph name="divide" format="2">
  <advance width="1159"/>
  <unicode hex="00F7"/>
  <note>
uni00F7
</note>
  <outline>
    <contour>
      <point x="3" y="686" type="line"/>
      <point x="1001" y="686" type="line"/>
      <point x="1010" y="738" type="line"/>
      <point x="12" y="738" type="line"/>
    </contour>
    <contour>
      <point x="437" y="246" type="curve" smooth="yes"/>
      <point x="467" y="246"/>
      <point x="497" y="270"/>
      <point x="502" y="301" type="curve" smooth="yes"/>
      <point x="508" y="332"/>
      <point x="487" y="357"/>
      <point x="456" y="357" type="curve" smooth="yes"/>
      <point x="425" y="357"/>
      <point x="397" y="332"/>
      <point x="391" y="301" type="curve" smooth="yes"/>
      <point x="386" y="270"/>
      <point x="406" y="246"/>
    </contour>
    <contour>
      <point x="574" y="1024" type="curve" smooth="yes"/>
      <point x="604" y="1024"/>
      <point x="634" y="1048"/>
      <point x="639" y="1079" type="curve" smooth="yes"/>
      <point x="645" y="1110"/>
      <point x="624" y="1135"/>
      <point x="593" y="1135" type="curve" smooth="yes"/>
      <point x="563" y="1135"/>
      <point x="534" y="1110"/>
      <point x="528" y="1079" type="curve" smooth="yes"/>
      <point x="523" y="1048"/>
      <point x="543" y="1024"/>
    </contour>
  </outline>
</glyph>
<glyph name="oslash" format="2">
  <advance width="1160"/>
  <unicode hex="00F8"/>
  <note>
uni00F8
</note>
  <outline>
    <contour>
      <point x="-11" y="-145" type="line"/>
      <point x="52" y="-145" type="line"/>
      <point x="166" y="28" type="line"/>
      <point x="226" y="-4"/>
      <point x="293" y="-20"/>
      <point x="368" y="-20" type="curve" smooth="yes"/>
      <point x="668" y="-20"/>
      <point x="883" y="226"/>
      <point x="935" y="520" type="curve" smooth="yes"/>
      <point x="978" y="762"/>
      <point x="931" y="923"/>
      <point x="820" y="1016" type="curve"/>
      <point x="955" y="1219" type="line"/>
      <point x="892" y="1219" type="line"/>
      <point x="778" y="1047" type="line"/>
      <point x="715" y="1084"/>
      <point x="644" y="1102"/>
      <point x="564" y="1102" type="curve" smooth="yes"/>
      <point x="252" y="1102"/>
      <point x="47" y="854"/>
      <point x="-12" y="522" type="curve" smooth="yes"/>
      <point x="-47" y="319"/>
      <point x="1" y="148"/>
      <point x="122" y="56" type="curve"/>
    </contour>
    <contour>
      <point x="155" y="107" type="line"/>
      <point x="54" y="192"/>
      <point x="11" y="344"/>
      <point x="42" y="520" type="curve" smooth="yes"/>
      <point x="98" y="837"/>
      <point x="307" y="1048"/>
      <point x="554" y="1048" type="curve" smooth="yes"/>
      <point x="628" y="1048"/>
      <point x="691" y="1030"/>
      <point x="744" y="995" type="curve"/>
    </contour>
    <contour>
      <point x="377" y="34" type="curve" smooth="yes"/>
      <point x="309" y="34"/>
      <point x="249" y="48"/>
      <point x="199" y="77" type="curve"/>
      <point x="785" y="963" type="line"/>
      <point x="880" y="874"/>
      <point x="917" y="725"/>
      <point x="883" y="531" type="curve" smooth="yes"/>
      <point x="831" y="239"/>
      <point x="624" y="34"/>
    </contour>
  </outline>
</glyph>
<glyph name="dcroat" format="2">
  <advance width="1223"/>
  <unicode hex="0111"/>
  <note>
uni0111
</note>
  <outline>
    <contour>
      <point x="334" y="-20" type="curve" smooth="yes"/>
      <point x="496" y="-20"/>
      <point x="642" y="50"/>
      <point x="737" y="173" type="curve"/>
      <point x="706" y="0" type="line"/>
      <point x="760" y="0" type="line"/>
      <point x="986" y="1281" type="line"/>
      <point x="1146" y="1281" type="line"/>
      <point x="1156" y="1335" type="line"/>
      <point x="996" y="1335" type="line"/>
      <point x="1031" y="1536" type="line"/>
      <point x="977" y="1536" type="line"/>
      <point x="942" y="1335" type="line"/>
      <point x="569" y="1335" type="line"/>
      <point x="559" y="1281" type="line"/>
      <point x="932" y="1281" type="line"/>
      <point x="862" y="883" type="line"/>
      <point x="810" y="1028"/>
      <point x="696" y="1102"/>
      <point x="534" y="1102" type="curve" smooth="yes"/>
      <point x="280" y="1102"/>
      <point x="89" y="897"/>
      <point x="26" y="538" type="curve" smooth="yes"/>
      <point x="-35" y="191"/>
      <point x="83" y="-20"/>
    </contour>
    <contour>
      <point x="342" y="34" type="curve" smooth="yes"/>
      <point x="120" y="34"/>
      <point x="27" y="224"/>
      <point x="81" y="531" type="curve" smooth="yes"/>
      <point x="141" y="871"/>
      <point x="302" y="1048"/>
      <point x="523" y="1048" type="curve" smooth="yes"/>
      <point x="706" y="1048"/>
      <point x="813" y="957"/>
      <point x="843" y="775" type="curve"/>
      <point x="753" y="268" type="line"/>
      <point x="665" y="115"/>
      <point x="521" y="34"/>
    </contour>
  </outline>
</glyph>
<glyph name="Hbar" format="2">
  <advance width="1434"/>
  <unicode hex="0126"/>
  <note>
uni0126
</note>
  <outline>
    <contour>
      <point x="-32" y="0" type="line"/>
      <point x="22" y="0" type="line"/>
      <point x="150" y="722" type="line"/>
      <point x="1080" y="722" type="line"/>
      <point x="952" y="0" type="line"/>
      <point x="1006" y="0" type="line"/>
      <point x="1187" y="1028" type="line"/>
      <point x="1342" y="1028" type="line"/>
      <point x="1352" y="1081" type="line"/>
      <point x="1197" y="1081" type="line"/>
      <point x="1263" y="1456" type="line"/>
      <point x="1209" y="1456" type="line"/>
      <point x="1143" y="1081" type="line"/>
      <point x="213" y="1081" type="line"/>
      <point x="279" y="1456" type="line"/>
      <point x="225" y="1456" type="line"/>
      <point x="159" y="1081" type="line"/>
      <point x="20" y="1081" type="line"/>
      <point x="10" y="1028" type="line"/>
      <point x="149" y="1028" type="line"/>
    </contour>
    <contour>
      <point x="159" y="776" type="line"/>
      <point x="203" y="1028" type="line"/>
      <point x="1133" y="1028" type="line"/>
      <point x="1089" y="776" type="line"/>
    </contour>
  </outline>
</glyph>
<glyph name="Eng" format="2">
  <advance width="1419"/>
  <unicode hex="014A"/>
  <note>
uni014A
</note>
  <outline>
    <contour>
      <point x="697" y="-437" type="curve" smooth="yes"/>
      <point x="876" y="-437"/>
      <point x="1004" y="-316"/>
      <point x="1044" y="-89" type="curve" smooth="yes"/>
      <point x="1316" y="1456" type="line"/>
      <point x="1262" y="1456" type="line"/>
      <point x="1022" y="93" type="line"/>
      <point x="320" y="1456" type="line"/>
      <point x="266" y="1456" type="line"/>
      <point x="9" y="0" type="line"/>
      <point x="63" y="0" type="line"/>
      <point x="304" y="1364" type="line"/>
      <point x="1005" y="0" type="line"/>
      <point x="990" y="-89" type="line" smooth="yes"/>
      <point x="956" y="-278"/>
      <point x="855" y="-383"/>
      <point x="707" y="-383" type="curve" smooth="yes"/>
      <point x="673" y="-383"/>
      <point x="641" y="-377"/>
      <point x="611" y="-365" type="curve"/>
      <point x="589" y="-417" type="line"/>
      <point x="625" y="-430"/>
      <point x="661" y="-437"/>
    </contour>
  </outline>
</glyph>
<glyph name="eng" format="2">
  <advance width="1160"/>
  <unicode hex="014B"/>
  <note>
uni014B
</note>
  <outline>
    <contour>
      <point x="401" y="-437" type="curve" smooth="yes"/>
      <point x="580" y="-437"/>
      <point x="708" y="-316"/>
      <point x="748" y="-89" type="curve" smooth="yes"/>
      <point x="878" y="649" type="line" smooth="yes"/>
      <point x="930" y="961"/>
      <point x="840" y="1102"/>
      <point x="604" y="1102" type="curve" smooth="yes"/>
      <point x="414" y="1102"/>
      <point x="275" y="1009"/>
      <point x="185" y="858" type="curve"/>
      <point x="218" y="1082" type="line"/>
      <point x="170" y="1082" type="line"/>
      <point x="-21" y="0" type="line"/>
      <point x="33" y="0" type="line"/>
      <point x="153" y="680" type="line"/>
      <point x="228" y="917"/>
      <point x="384" y="1048"/>
      <point x="595" y="1048" type="curve" smooth="yes"/>
      <point x="802" y="1048"/>
      <point x="870" y="914"/>
      <point x="822" y="639" type="curve" smooth="yes"/>
      <point x="694" y="-89" type="line" smooth="yes"/>
      <point x="660" y="-278"/>
      <point x="559" y="-384"/>
      <point x="411" y="-384" type="curve" smooth="yes"/>
      <point x="369" y="-384"/>
      <point x="330" y="-378"/>
      <point x="294" y="-365" type="curve"/>
      <point x="272" y="-417" type="line"/>
      <point x="315" y="-430"/>
      <point x="358" y="-437"/>
    </contour>
  </outline>
</glyph>
<glyph name="OE" format="2">
  <advance width="1953"/>
  <unicode hex="0152"/>
  <note>
uni0152
</note>
  <outline>
    <contour>
      <point x="469" y="-21" type="curve"/>
      <point x="556" y="-21"/>
      <point x="667" y="-14"/>
      <point x="802" y="0" type="curve"/>
      <point x="1642" y="0" type="line"/>
      <point x="1652" y="54" type="line"/>
      <point x="820" y="54" type="line"/>
      <point x="938" y="722" type="line"/>
      <point x="1668" y="722" type="line"/>
      <point x="1677" y="776" type="line"/>
      <point x="947" y="776" type="line"/>
      <point x="1057" y="1402" type="line"/>
      <point x="1889" y="1402" type="line"/>
      <point x="1899" y="1456" type="line"/>
      <point x="1059" y="1456" type="line"/>
      <point x="934" y="1469"/>
      <point x="825" y="1476"/>
      <point x="730" y="1476" type="curve" smooth="yes"/>
      <point x="248" y="1472"/>
      <point x="133" y="1019"/>
      <point x="108" y="880" type="curve" smooth="yes"/>
      <point x="53" y="565" type="line" smooth="yes"/>
      <point x="-20" y="150"/>
      <point x="193" y="0"/>
    </contour>
    <contour>
      <point x="478" y="33" type="curve" smooth="yes"/>
      <point x="181" y="33"/>
      <point x="57" y="281"/>
      <point x="109" y="576" type="curve" smooth="yes"/>
      <point x="162" y="875" type="line" smooth="yes"/>
      <point x="221" y="1211"/>
      <point x="442" y="1422"/>
      <point x="721" y="1422" type="curve" smooth="yes"/>
      <point x="840" y="1422"/>
      <point x="935" y="1418"/>
      <point x="1005" y="1409" type="curve"/>
      <point x="764" y="46" type="line"/>
      <point x="692" y="37"/>
      <point x="597" y="33"/>
    </contour>
  </outline>
</glyph>
<glyph name="longs" format="2">
  <advance width="508"/>
  <unicode hex="017F"/>
  <note>
uni017F
</note>
  <outline>
    <contour>
      <point x="-17" y="0" type="line"/>
      <point x="37" y="0" type="line"/>
      <point x="255" y="1236" type="line" smooth="yes"/>
      <point x="285" y="1407"/>
      <point x="389" y="1503"/>
      <point x="531" y="1503" type="curve" smooth="yes"/>
      <point x="576" y="1503"/>
      <point x="615" y="1498"/>
      <point x="648" y="1488" type="curve"/>
      <point x="665" y="1540" type="line"/>
      <point x="631" y="1551"/>
      <point x="590" y="1557"/>
      <point x="540" y="1557" type="curve" smooth="yes"/>
      <point x="362" y="1557"/>
      <point x="238" y="1444"/>
      <point x="201" y="1236" type="curve" smooth="yes"/>
    </contour>
  </outline>
</glyph>
<glyph name="Schwa" format="2">
  <advance width="1415"/>
  <unicode hex="018F"/>
  <note>
uni018F
</note>
  <outline>
    <contour>
      <point x="560" y="-20" type="curve" smooth="yes"/>
      <point x="777" y="-20"/>
      <point x="983" y="102"/>
      <point x="1117" y="311" type="curve" smooth="yes"/>
      <point x="1185" y="415"/>
      <point x="1230" y="532"/>
      <point x="1253" y="663" type="curve" smooth="yes"/>
      <point x="1282" y="825" type="line" smooth="yes"/>
      <point x="1354" y="1236"/>
      <point x="1165" y="1476"/>
      <point x="797" y="1476" type="curve" smooth="yes"/>
      <point x="626" y="1476"/>
      <point x="479" y="1437"/>
      <point x="283" y="1311" type="curve"/>
      <point x="306" y="1268" type="line"/>
      <point x="430" y="1359"/>
      <point x="592" y="1422"/>
      <point x="788" y="1422" type="curve" smooth="yes"/>
      <point x="1132" y="1422"/>
      <point x="1294" y="1202"/>
      <point x="1208" y="711" type="curve"/>
      <point x="91" y="711" type="line"/>
      <point x="3" y="217"/>
      <point x="194" y="-20"/>
    </contour>
    <contour>
      <point x="569" y="34" type="curve" smooth="yes"/>
      <point x="88" y="36"/>
      <point x="108" y="504"/>
      <point x="122" y="584" type="curve" smooth="yes"/>
      <point x="135" y="656" type="line"/>
      <point x="1198" y="656" type="line"/>
      <point x="1137" y="324"/>
      <point x="901" y="34"/>
    </contour>
  </outline>
</glyph>
<glyph name="florin" format="2">
  <advance width="697"/>
  <unicode hex="0192"/>
  <note>
uni0192
</note>
  <outline>
    <contour>
      <point x="-246" y="-437" type="curve" smooth="yes"/>
      <point x="-66" y="-437"/>
      <point x="61" y="-316"/>
      <point x="101" y="-89" type="curve" smooth="yes"/>
      <point x="297" y="1027" type="line"/>
      <point x="583" y="1027" type="line"/>
      <point x="593" y="1082" type="line"/>
      <point x="307" y="1082" type="line"/>
      <point x="334" y="1236" type="line" smooth="yes"/>
      <point x="364" y="1407"/>
      <point x="469" y="1503"/>
      <point x="611" y="1503" type="curve" smooth="yes"/>
      <point x="656" y="1503"/>
      <point x="695" y="1498"/>
      <point x="728" y="1488" type="curve"/>
      <point x="745" y="1540" type="line"/>
      <point x="711" y="1551"/>
      <point x="669" y="1557"/>
      <point x="620" y="1557" type="curve" smooth="yes"/>
      <point x="442" y="1557"/>
      <point x="317" y="1440"/>
      <point x="281" y="1240" type="curve" smooth="yes"/>
      <point x="253" y="1082" type="line"/>
      <point x="65" y="1082" type="line"/>
      <point x="55" y="1027" type="line"/>
      <point x="243" y="1027" type="line"/>
      <point x="47" y="-89" type="line" smooth="yes"/>
      <point x="13" y="-278"/>
      <point x="-87" y="-383"/>
      <point x="-236" y="-383" type="curve" smooth="yes"/>
      <point x="-270" y="-383"/>
      <point x="-302" y="-377"/>
      <point x="-332" y="-365" type="curve"/>
      <point x="-354" y="-417" type="line"/>
      <point x="-318" y="-430"/>
      <point x="-282" y="-437"/>
    </contour>
  </outline>
</glyph>
<glyph name="jdotless" format="2">
  <advance width="515"/>
  <unicode hex="0237"/>
  <note>
uni0237
</note>
  <outline>
    <contour>
      <point x="-313" y="-437" type="curve" smooth="yes"/>
      <point x="-133" y="-437"/>
      <point x="-6" y="-316"/>
      <point x="34" y="-89" type="curve" smooth="yes"/>
      <point x="240" y="1082" type="line"/>
      <point x="186" y="1082" type="line"/>
      <point x="-20" y="-89" type="line" smooth="yes"/>
      <point x="-54" y="-278"/>
      <point x="-154" y="-383"/>
      <point x="-303" y="-383" type="curve" smooth="yes"/>
      <point x="-337" y="-383"/>
      <point x="-369" y="-377"/>
      <point x="-399" y="-365" type="curve"/>
      <point x="-421" y="-417" type="line"/>
      <point x="-385" y="-430"/>
      <point x="-349" y="-437"/>
    </contour>
  </outline>
</glyph>
<glyph name="circumflex" format="2">
  <advance width="964"/>
  <unicode hex="02C6"/>
  <note>
uni02C6
</note>
  <outline>
    <contour>
      <point x="184" y="1264" type="line"/>
      <point x="248" y="1264" type="line"/>
      <point x="468" y="1460" type="line"/>
      <point x="620" y="1264" type="line"/>
      <point x="688" y="1264" type="line"/>
      <point x="690" y="1274" type="line"/>
      <point x="499" y="1517" type="line"/>
      <point x="459" y="1517" type="line"/>
      <point x="187" y="1278" type="line"/>
    </contour>
  </outline>
</glyph>
<glyph name="caron" format="2">
  <advance width="909"/>
  <unicode hex="02C7"/>
  <note>
uni02C7
</note>
  <outline>
    <contour>
      <point x="394" y="1243" type="line"/>
      <point x="453" y="1243" type="line"/>
      <point x="715" y="1493" type="line"/>
      <point x="718" y="1506" type="line"/>
      <point x="665" y="1506" type="line"/>
      <point x="432" y="1289" type="line"/>
      <point x="278" y="1506" type="line"/>
      <point x="221" y="1506" type="line"/>
      <point x="219" y="1495" type="line"/>
    </contour>
  </outline>
</glyph>
<glyph name="breve" format="2">
  <advance width="857"/>
  <unicode hex="02D8"/>
  <note>
uni02D8
</note>
  <outline>
    <contour>
      <point x="454" y="1238" type="curve" smooth="yes"/>
      <point x="623" y="1238"/>
      <point x="749" y="1337"/>
      <point x="775" y="1486" type="curve"/>
      <point x="721" y="1486" type="line"/>
      <point x="700" y="1367"/>
      <point x="606" y="1294"/>
      <point x="463" y="1294" type="curve" smooth="yes"/>
      <point x="315" y="1294"/>
      <point x="251" y="1365"/>
      <point x="272" y="1486" type="curve"/>
      <point x="218" y="1486" type="line"/>
      <point x="192" y="1337"/>
      <point x="283" y="1238"/>
    </contour>
  </outline>
</glyph>
<glyph name="dotaccent" format="2">
  <advance width="497"/>
  <unicode hex="02D9"/>
  <note>
uni02D9
</note>
  <outline>
    <contour>
      <point x="257" y="1342" type="curve" smooth="yes"/>
      <point x="288" y="1342"/>
      <point x="317" y="1366"/>
      <point x="323" y="1397" type="curve" smooth="yes"/>
      <point x="328" y="1428"/>
      <point x="307" y="1453"/>
      <point x="276" y="1453" type="curve" smooth="yes"/>
      <point x="246" y="1453"/>
      <point x="217" y="1428"/>
      <point x="212" y="1397" type="curve" smooth="yes"/>
      <point x="206" y="1366"/>
      <point x="226" y="1342"/>
    </contour>
  </outline>
</glyph>
<glyph name="ogonek" format="2">
  <advance width="554"/>
  <unicode hex="02DB"/>
  <note>
uni02DB
</note>
  <outline>
    <contour>
      <point x="-42" y="-395" type="curve" smooth="yes"/>
      <point x="4" y="-395"/>
      <point x="49" y="-380"/>
      <point x="91" y="-351" type="curve"/>
      <point x="84" y="-303" type="line"/>
      <point x="44" y="-328"/>
      <point x="5" y="-341"/>
      <point x="-33" y="-341" type="curve" smooth="yes"/>
      <point x="-95" y="-341"/>
      <point x="-120" y="-309"/>
      <point x="-109" y="-246" type="curve" smooth="yes"/>
      <point x="-95" y="-166"/>
      <point x="51" y="-49"/>
      <point x="122" y="0" type="curve"/>
      <point x="83" y="20" type="line"/>
      <point x="-67" y="-79"/>
      <point x="-149" y="-168"/>
      <point x="-163" y="-246" type="curve" smooth="yes"/>
      <point x="-181" y="-347"/>
      <point x="-132" y="-395"/>
    </contour>
  </outline>
</glyph>
<glyph name="tilde" format="2">
  <advance width="966"/>
  <unicode hex="02DC"/>
  <note>
uni02DC
</note>
  <outline>
    <contour>
      <point x="180" y="1282" type="line"/>
      <point x="194" y="1358"/>
      <point x="249" y="1411"/>
      <point x="324" y="1411" type="curve" smooth="yes"/>
      <point x="435" y="1411"/>
      <point x="451" y="1286"/>
      <point x="589" y="1286" type="curve" smooth="yes"/>
      <point x="689" y="1286"/>
      <point x="778" y="1363"/>
      <point x="798" y="1472" type="curve"/>
      <point x="743" y="1472" type="line"/>
      <point x="729" y="1393"/>
      <point x="671" y="1341"/>
      <point x="599" y="1341" type="curve" smooth="yes"/>
      <point x="493" y="1341"/>
      <point x="468" y="1465"/>
      <point x="334" y="1465" type="curve" smooth="yes"/>
      <point x="232" y="1465"/>
      <point x="145" y="1393"/>
      <point x="126" y="1286" type="curve"/>
    </contour>
  </outline>
</glyph>
<glyph name="lowringmod" format="2">
  <advance width="642"/>
  <unicode hex="02F3"/>
  <note>
uni02F3
</note>
  <outline>
    <contour>
      <point x="73" y="-335" type="curve" smooth="yes"/>
      <point x="145" y="-335"/>
      <point x="215" y="-284"/>
      <point x="227" y="-219" type="curve" smooth="yes"/>
      <point x="238" y="-155"/>
      <point x="189" y="-99"/>
      <point x="115" y="-99" type="curve" smooth="yes"/>
      <point x="39" y="-99"/>
      <point x="-29" y="-155"/>
      <point x="-40" y="-219" type="curve" smooth="yes"/>
      <point x="-52" y="-284"/>
      <point x="0" y="-335"/>
    </contour>
    <contour>
      <point x="76" y="-280" type="curve" smooth="yes"/>
      <point x="41" y="-277"/>
      <point x="11" y="-257"/>
      <point x="18" y="-219" type="curve" smooth="yes"/>
      <point x="27" y="-167"/>
      <point x="91" y="-148"/>
      <point x="133" y="-162" type="curve" smooth="yes"/>
      <point x="158" y="-170"/>
      <point x="175" y="-189"/>
      <point x="170" y="-219" type="curve" smooth="yes"/>
      <point x="162" y="-262"/>
      <point x="116" y="-282"/>
    </contour>
  </outline>
</glyph>
<glyph name="hookabovecomb" format="2">
  <unicode hex="0309"/>
  <note>
uni0309
</note>
  <outline>
    <contour>
      <point x="-572" y="1227" type="line"/>
      <point x="-524" y="1227" type="line"/>
      <point x="-515" y="1281" type="line"/>
      <point x="-384" y="1290"/>
      <point x="-306" y="1347"/>
      <point x="-290" y="1440" type="curve" smooth="yes"/>
      <point x="-272" y="1540"/>
      <point x="-382" y="1599"/>
      <point x="-547" y="1599" type="curve"/>
      <point x="-562" y="1550" type="line"/>
      <point x="-418" y="1550"/>
      <point x="-334" y="1508"/>
      <point x="-346" y="1440" type="curve" smooth="yes"/>
      <point x="-359" y="1365"/>
      <point x="-421" y="1337"/>
      <point x="-555" y="1326" type="curve"/>
    </contour>
  </outline>
</glyph>
<glyph name="dotbelowcomb" format="2">
  <unicode hex="0323"/>
  <note>
uni0323
</note>
  <outline>
    <contour>
      <point x="-818" y="-272" type="curve" smooth="yes"/>
      <point x="-787" y="-272"/>
      <point x="-758" y="-248"/>
      <point x="-752" y="-217" type="curve" smooth="yes"/>
      <point x="-747" y="-186"/>
      <point x="-767" y="-161"/>
      <point x="-798" y="-161" type="curve" smooth="yes"/>
      <point x="-829" y="-161"/>
      <point x="-858" y="-186"/>
      <point x="-863" y="-217" type="curve" smooth="yes"/>
      <point x="-869" y="-248"/>
      <point x="-849" y="-272"/>
    </contour>
  </outline>
</glyph>
<glyph name="Gamma" format="2">
  <advance width="1139"/>
  <unicode hex="0393"/>
  <note>
uni0393
</note>
  <outline>
    <contour>
      <point x="2" y="0" type="line"/>
      <point x="56" y="0" type="line"/>
      <point x="303" y="1402" type="line"/>
      <point x="1111" y="1402" type="line"/>
      <point x="1121" y="1456" type="line"/>
      <point x="259" y="1456" type="line"/>
    </contour>
  </outline>
</glyph>
<glyph name="Theta" format="2">
  <advance width="1393"/>
  <unicode hex="0398"/>
  <note>
uni0398
</note>
  <outline>
    <contour>
      <point x="485" y="-20" type="curve" smooth="yes"/>
      <point x="841" y="-20"/>
      <point x="1083" y="263"/>
      <point x="1145" y="619" type="curve" smooth="yes"/>
      <point x="1184" y="837" type="line" smooth="yes"/>
      <point x="1247" y="1193"/>
      <point x="1102" y="1476"/>
      <point x="746" y="1476" type="curve" smooth="yes"/>
      <point x="391" y="1476"/>
      <point x="148" y="1189"/>
      <point x="86" y="837" type="curve" smooth="yes"/>
      <point x="49" y="627" type="line" smooth="yes"/>
      <point x="-21" y="231"/>
      <point x="157" y="-20"/>
    </contour>
    <contour>
      <point x="494" y="34" type="curve" smooth="yes"/>
      <point x="166" y="34"/>
      <point x="46" y="297"/>
      <point x="102" y="619" type="curve" smooth="yes"/>
      <point x="140" y="832" type="line" smooth="yes"/>
      <point x="204" y="1196"/>
      <point x="437" y="1422"/>
      <point x="737" y="1422" type="curve" smooth="yes"/>
      <point x="1041" y="1422"/>
      <point x="1192" y="1191"/>
      <point x="1130" y="839" type="curve" smooth="yes"/>
      <point x="1093" y="627" type="line" smooth="yes"/>
      <point x="1028" y="260"/>
      <point x="798" y="34"/>
    </contour>
    <contour>
      <point x="371" y="699" type="line"/>
      <point x="888" y="699" type="line"/>
      <point x="896" y="741" type="line"/>
      <point x="379" y="741" type="line"/>
    </contour>
  </outline>
</glyph>
<glyph name="Xi" format="2">
  <advance width="1169"/>
  <unicode hex="039E"/>
  <note>
uni039E
</note>
  <outline>
    <contour>
      <point x="-79" y="0" type="line"/>
      <point x="826" y="0" type="line"/>
      <point x="836" y="54" type="line"/>
      <point x="-69" y="54" type="line"/>
    </contour>
    <contour>
      <point x="150" y="687" type="line"/>
      <point x="831" y="687" type="line"/>
      <point x="841" y="741" type="line"/>
      <point x="160" y="741" type="line"/>
    </contour>
    <contour>
      <point x="190" y="1403" type="line"/>
      <point x="1035" y="1403" type="line"/>
      <point x="1044" y="1456" type="line"/>
      <point x="199" y="1456" type="line"/>
    </contour>
  </outline>
</glyph>
<glyph name="Phi" format="2">
  <advance width="1467"/>
  <unicode hex="03A6"/>
  <note>
uni03A6
</note>
  <outline>
    <contour>
      <point x="511" y="0" type="line"/>
      <point x="566" y="0" type="line"/>
      <point x="603" y="209" type="line"/>
      <point x="841" y="212"/>
      <point x="1050" y="308"/>
      <point x="1179" y="469" type="curve" smooth="yes"/>
      <point x="1243" y="550"/>
      <point x="1284" y="640"/>
      <point x="1302" y="739" type="curve" smooth="yes"/>
      <point x="1336" y="936"/>
      <point x="1260" y="1107"/>
      <point x="1093" y="1197" type="curve" smooth="yes"/>
      <point x="1009" y="1242"/>
      <point x="908" y="1265"/>
      <point x="789" y="1266" type="curve"/>
      <point x="823" y="1456" type="line"/>
      <point x="768" y="1456" type="line"/>
      <point x="734" y="1265" type="line"/>
      <point x="554" y="1262"/>
      <point x="400" y="1212"/>
      <point x="272" y="1114" type="curve" smooth="yes"/>
      <point x="158" y="1026"/>
      <point x="84" y="916"/>
      <point x="49" y="783" type="curve"/>
      <point x="11" y="574"/>
      <point x="68" y="412"/>
      <point x="196" y="315" type="curve" smooth="yes"/>
      <point x="283" y="248"/>
      <point x="402" y="211"/>
      <point x="548" y="209" type="curve"/>
    </contour>
    <contour>
      <point x="558" y="263" type="line"/>
      <point x="226" y="268"/>
      <point x="45" y="458"/>
      <point x="94" y="737" type="curve" smooth="yes"/>
      <point x="148" y="1040"/>
      <point x="429" y="1207"/>
      <point x="725" y="1211" type="curve"/>
    </contour>
    <contour>
      <point x="613" y="263" type="curve"/>
      <point x="780" y="1212" type="line"/>
      <point x="1091" y="1206"/>
      <point x="1299" y="1034"/>
      <point x="1247" y="739" type="curve" smooth="yes"/>
      <point x="1197" y="459"/>
      <point x="945" y="266"/>
    </contour>
  </outline>
</glyph>
<glyph name="Psi" format="2">
  <advance width="1417"/>
  <unicode hex="03A8"/>
  <note>
uni03A8
</note>
  <outline>
    <contour>
      <point x="495" y="0" type="line"/>
      <point x="550" y="0" type="line"/>
      <point x="624" y="416" type="line"/>
      <point x="1019" y="424"/>
      <point x="1205" y="688"/>
      <point x="1249" y="939" type="curve" smooth="yes"/>
      <point x="1340" y="1456" type="line"/>
      <point x="1286" y="1456" type="line"/>
      <point x="1195" y="938" type="line" smooth="yes"/>
      <point x="1146" y="661"/>
      <point x="913" y="476"/>
      <point x="633" y="471" type="curve"/>
      <point x="807" y="1456" type="line"/>
      <point x="752" y="1456" type="line"/>
      <point x="578" y="471" type="line"/>
      <point x="296" y="479"/>
      <point x="138" y="667"/>
      <point x="188" y="951" type="curve" smooth="yes"/>
      <point x="277" y="1456" type="line"/>
      <point x="222" y="1456" type="line"/>
      <point x="131" y="941" type="line" smooth="yes"/>
      <point x="75" y="625"/>
      <point x="250" y="424"/>
      <point x="569" y="416" type="curve"/>
    </contour>
  </outline>
</glyph>
<glyph name="alpha" format="2">
  <advance width="1157"/>
  <unicode hex="03B1"/>
  <note>
uni03B1
</note>
  <outline>
    <contour>
      <point x="340" y="-21" type="curve" smooth="yes"/>
      <point x="503" y="-21"/>
      <point x="651" y="64"/>
      <point x="750" y="217" type="curve"/>
      <point x="727" y="46"/>
      <point x="773" y="-21"/>
      <point x="888" y="-21" type="curve" smooth="yes"/>
      <point x="918" y="-21"/>
      <point x="942" y="-16"/>
      <point x="963" y="-7" type="curve"/>
      <point x="961" y="42" type="line"/>
      <point x="930" y="35"/>
      <point x="909" y="32"/>
      <point x="894" y="32" type="curve" smooth="yes"/>
      <point x="815" y="32"/>
      <point x="786" y="100"/>
      <point x="807" y="236" type="curve" smooth="yes"/>
      <point x="956" y="1082" type="line"/>
      <point x="908" y="1082" type="line"/>
      <point x="859" y="837" type="line"/>
      <point x="816" y="1009"/>
      <point x="705" y="1102"/>
      <point x="540" y="1102" type="curve" smooth="yes"/>
      <point x="288" y="1102"/>
      <point x="94" y="890"/>
      <point x="33" y="542" type="curve" smooth="yes"/>
      <point x="22" y="477" type="line" smooth="yes"/>
      <point x="-20" y="166"/>
      <point x="101" y="-21"/>
    </contour>
    <contour>
      <point x="348" y="33" type="curve" smooth="yes"/>
      <point x="124" y="33"/>
      <point x="31" y="216"/>
      <point x="85" y="521" type="curve" smooth="yes"/>
      <point x="146" y="864"/>
      <point x="309" y="1048"/>
      <point x="529" y="1048" type="curve" smooth="yes"/>
      <point x="704" y="1048"/>
      <point x="814" y="919"/>
      <point x="834" y="694" type="curve"/>
      <point x="772" y="343" type="line"/>
      <point x="685" y="146"/>
      <point x="536" y="33"/>
    </contour>
  </outline>
</glyph>
<glyph name="beta" format="2">
  <advance width="1213"/>
  <unicode hex="03B2"/>
  <note>
uni03B2
</note>
  <outline>
    <contour>
      <point x="-69" y="-413" type="line"/>
      <point x="-15" y="-413" type="line"/>
      <point x="84" y="148" type="line"/>
      <point x="143" y="44"/>
      <point x="285" y="-21"/>
      <point x="440" y="-21" type="curve" smooth="yes"/>
      <point x="714" y="-21"/>
      <point x="912" y="137"/>
      <point x="956" y="385" type="curve" smooth="yes"/>
      <point x="992" y="586"/>
      <point x="896" y="729"/>
      <point x="705" y="770" type="curve"/>
      <point x="855" y="829"/>
      <point x="951" y="954"/>
      <point x="978" y="1102" type="curve" smooth="yes"/>
      <point x="1017" y="1325"/>
      <point x="884" y="1476"/>
      <point x="652" y="1476" type="curve" smooth="yes"/>
      <point x="512" y="1476"/>
      <point x="374" y="1401"/>
      <point x="281" y="1270" type="curve" smooth="yes"/>
      <point x="234" y="1205"/>
      <point x="204" y="1133"/>
      <point x="190" y="1054" type="curve" smooth="yes"/>
    </contour>
    <contour>
      <point x="449" y="33" type="curve" smooth="yes"/>
      <point x="273" y="33"/>
      <point x="132" y="119"/>
      <point x="101" y="244" type="curve"/>
      <point x="243" y="1049" type="line" smooth="yes"/>
      <point x="281" y="1265"/>
      <point x="454" y="1422"/>
      <point x="643" y="1422" type="curve" smooth="yes"/>
      <point x="847" y="1422"/>
      <point x="957" y="1292"/>
      <point x="924" y="1107" type="curve" smooth="yes"/>
      <point x="887" y="896"/>
      <point x="754" y="791"/>
      <point x="525" y="791" type="curve" smooth="yes"/>
      <point x="425" y="791" type="line"/>
      <point x="415" y="735" type="line"/>
      <point x="561" y="735" type="line" smooth="yes"/>
      <point x="817" y="734"/>
      <point x="940" y="604"/>
      <point x="900" y="381" type="curve" smooth="yes"/>
      <point x="861" y="160"/>
      <point x="698" y="33"/>
    </contour>
  </outline>
</glyph>
<glyph name="delta" format="2">
  <advance width="1160"/>
  <unicode hex="03B4"/>
  <note>
uni03B4
</note>
  <outline>
    <contour>
      <point x="368" y="-20" type="curve" smooth="yes"/>
      <point x="657" y="-20"/>
      <point x="880" y="206"/>
      <point x="937" y="532" type="curve" smooth="yes"/>
      <point x="984" y="796"/>
      <point x="840" y="1005"/>
      <point x="583" y="1061" type="curve" smooth="yes"/>
      <point x="378" y="1106"/>
      <point x="286" y="1177"/>
      <point x="309" y="1309" type="curve" smooth="yes"/>
      <point x="330" y="1429"/>
      <point x="466" y="1509"/>
      <point x="644" y="1509" type="curve" smooth="yes"/>
      <point x="727" y="1509"/>
      <point x="797" y="1496"/>
      <point x="920" y="1437" type="curve"/>
      <point x="946" y="1486" type="line"/>
      <point x="871" y="1537"/>
      <point x="773" y="1563"/>
      <point x="653" y="1563" type="curve" smooth="yes"/>
      <point x="450" y="1563"/>
      <point x="280" y="1452"/>
      <point x="255" y="1309" type="curve" smooth="yes"/>
      <point x="234" y="1192"/>
      <point x="300" y="1103"/>
      <point x="449" y="1029" type="curve"/>
      <point x="226" y="998"/>
      <point x="35" y="786"/>
      <point x="-8" y="542" type="curve" smooth="yes"/>
      <point x="-70" y="191"/>
      <point x="88" y="-20"/>
    </contour>
    <contour>
      <point x="377" y="34" type="curve" smooth="yes"/>
      <point x="-1" y="33"/>
      <point x="31" y="457"/>
      <point x="44" y="530" type="curve" smooth="yes"/>
      <point x="92" y="805"/>
      <point x="313" y="997"/>
      <point x="568" y="997" type="curve"/>
      <point x="774" y="963"/>
      <point x="926" y="776"/>
      <point x="885" y="542" type="curve" smooth="yes"/>
      <point x="830" y="230"/>
      <point x="624" y="34"/>
    </contour>
  </outline>
</glyph>
<glyph name="epsilon" format="2">
  <advance width="1104"/>
  <unicode hex="03B5"/>
  <note>
uni03B5
</note>
  <outline>
    <contour>
      <point x="356" y="-20" type="curve" smooth="yes"/>
      <point x="612" y="-20"/>
      <point x="825" y="108"/>
      <point x="859" y="301" type="curve"/>
      <point x="804" y="301" type="line"/>
      <point x="777" y="148"/>
      <point x="599" y="35"/>
      <point x="365" y="35" type="curve" smooth="yes"/>
      <point x="127" y="35"/>
      <point x="2" y="130"/>
      <point x="30" y="287" type="curve" smooth="yes"/>
      <point x="59" y="452"/>
      <point x="202" y="522"/>
      <point x="443" y="525" type="curve" smooth="yes"/>
      <point x="620" y="525" type="line"/>
      <point x="629" y="580" type="line"/>
      <point x="469" y="580" type="line" smooth="yes"/>
      <point x="225" y="580"/>
      <point x="116" y="655"/>
      <point x="142" y="805" type="curve" smooth="yes"/>
      <point x="169" y="956"/>
      <point x="312" y="1048"/>
      <point x="544" y="1048" type="curve" smooth="yes"/>
      <point x="763" y="1048"/>
      <point x="900" y="943"/>
      <point x="875" y="799" type="curve"/>
      <point x="929" y="799" type="line"/>
      <point x="960" y="974"/>
      <point x="799" y="1102"/>
      <point x="554" y="1102" type="curve" smooth="yes"/>
      <point x="291" y="1102"/>
      <point x="118" y="987"/>
      <point x="86" y="802" type="curve" smooth="yes"/>
      <point x="66" y="689"/>
      <point x="135" y="595"/>
      <point x="272" y="554" type="curve"/>
      <point x="100" y="518"/>
      <point x="1" y="430"/>
      <point x="-24" y="290" type="curve" smooth="yes"/>
      <point x="-57" y="103"/>
      <point x="93" y="-20"/>
    </contour>
  </outline>
</glyph>
<glyph name="zeta" format="2">
  <advance width="1061"/>
  <unicode hex="03B6"/>
  <note>
uni03B6
</note>
  <outline>
    <contour>
      <point x="456" y="-392" type="line"/>
      <point x="542" y="-357"/>
      <point x="637" y="-243"/>
      <point x="656" y="-136" type="curve" smooth="yes"/>
      <point x="672" y="-49"/>
      <point x="635" y="2"/>
      <point x="497" y="42" type="curve" smooth="yes"/>
      <point x="153" y="134"/>
      <point x="72" y="208"/>
      <point x="95" y="341" type="curve" smooth="yes"/>
      <point x="120" y="484"/>
      <point x="206" y="627"/>
      <point x="367" y="802" type="curve" smooth="yes"/>
      <point x="946" y="1419" type="line"/>
      <point x="953" y="1456" type="line"/>
      <point x="104" y="1456" type="line"/>
      <point x="95" y="1403" type="line"/>
      <point x="863" y="1403" type="line"/>
      <point x="309" y="812" type="line" smooth="yes"/>
      <point x="153" y="645"/>
      <point x="68" y="485"/>
      <point x="42" y="341" type="curve" smooth="yes"/>
      <point x="16" y="192"/>
      <point x="91" y="102"/>
      <point x="330" y="31" type="curve" smooth="yes"/>
      <point x="586" y="-41"/>
      <point x="614" y="-74"/>
      <point x="603" y="-135" type="curve" smooth="yes"/>
      <point x="588" y="-224"/>
      <point x="498" y="-330"/>
      <point x="425" y="-361" type="curve"/>
    </contour>
  </outline>
</glyph>
<glyph name="eta" format="2">
  <advance width="1160"/>
  <unicode hex="03B7"/>
  <note>
uni03B7
</note>
  <outline>
    <contour>
      <point x="636" y="-416" type="line"/>
      <point x="690" y="-416" type="line"/>
      <point x="885" y="688" type="line" smooth="yes"/>
      <point x="932" y="971"/>
      <point x="842" y="1102"/>
      <point x="604" y="1102" type="curve" smooth="yes"/>
      <point x="413" y="1102"/>
      <point x="276" y="1008"/>
      <point x="186" y="857" type="curve"/>
      <point x="226" y="1082" type="line"/>
      <point x="172" y="1082" type="line"/>
      <point x="-19" y="0" type="line"/>
      <point x="35" y="0" type="line"/>
      <point x="153" y="667" type="line"/>
      <point x="227" y="916"/>
      <point x="383" y="1048"/>
      <point x="595" y="1048" type="curve" smooth="yes"/>
      <point x="799" y="1048"/>
      <point x="870" y="929"/>
      <point x="831" y="692" type="curve" smooth="yes"/>
    </contour>
  </outline>
</glyph>
<glyph name="theta" format="2">
  <advance width="1166"/>
  <unicode hex="03B8"/>
  <note>
uni03B8
</note>
  <outline>
    <contour>
      <point x="398" y="-20" type="curve" smooth="yes"/>
      <point x="672" y="-20"/>
      <point x="871" y="203"/>
      <point x="940" y="594" type="curve" smooth="yes"/>
      <point x="987" y="858" type="line" smooth="yes"/>
      <point x="1056" y="1250"/>
      <point x="936" y="1477"/>
      <point x="660" y="1477" type="curve" smooth="yes"/>
      <point x="385" y="1477"/>
      <point x="184" y="1249"/>
      <point x="116" y="862" type="curve" smooth="yes"/>
      <point x="70" y="598" type="line" smooth="yes"/>
      <point x="1" y="206"/>
      <point x="124" y="-20"/>
    </contour>
    <contour>
      <point x="407" y="34" type="curve" smooth="yes"/>
      <point x="166" y="34"/>
      <point x="61" y="244"/>
      <point x="123" y="596" type="curve" smooth="yes"/>
      <point x="141" y="695" type="line"/>
      <point x="904" y="695" type="line"/>
      <point x="887" y="601" type="line" smooth="yes"/>
      <point x="824" y="242"/>
      <point x="650" y="34"/>
    </contour>
    <contour>
      <point x="150" y="749" type="line"/>
      <point x="169" y="857" type="line" smooth="yes"/>
      <point x="233" y="1216"/>
      <point x="405" y="1423"/>
      <point x="650" y="1423" type="curve" smooth="yes"/>
      <point x="894" y="1423"/>
      <point x="996" y="1215"/>
      <point x="933" y="862" type="curve" smooth="yes"/>
      <point x="913" y="749" type="line"/>
    </contour>
  </outline>
</glyph>
<glyph name="iota" format="2">
  <advance width="663"/>
  <unicode hex="03B9"/>
  <note>
uni03B9
</note>
  <outline>
    <contour>
      <point x="199" y="-8" type="curve" smooth="yes"/>
      <point x="252" y="-8"/>
      <point x="291" y="-4"/>
      <point x="314" y="4" type="curve"/>
      <point x="314" y="55" type="line"/>
      <point x="271" y="49"/>
      <point x="235" y="46"/>
      <point x="205" y="46" type="curve" smooth="yes"/>
      <point x="89" y="46"/>
      <point x="56" y="116"/>
      <point x="81" y="263" type="curve" smooth="yes"/>
      <point x="225" y="1082" type="line"/>
      <point x="170" y="1082" type="line"/>
      <point x="26" y="264" type="line" smooth="yes"/>
      <point x="-6" y="76"/>
      <point x="41" y="-8"/>
    </contour>
  </outline>
</glyph>
<glyph name="lambda" format="2">
  <advance width="1134"/>
  <unicode hex="03BB"/>
  <note>
uni03BB
</note>
  <outline>
    <contour>
      <point x="838" y="-6" type="curve" smooth="yes"/>
      <point x="864" y="-6"/>
      <point x="884" y="-3"/>
      <point x="897" y="4" type="curve"/>
      <point x="896" y="48" type="line"/>
      <point x="848" y="48" type="line" smooth="yes"/>
      <point x="786" y="48"/>
      <point x="747" y="85"/>
      <point x="725" y="202" type="curve" smooth="yes"/>
      <point x="511" y="1330" type="line" smooth="yes"/>
      <point x="488" y="1450"/>
      <point x="383" y="1529"/>
      <point x="263" y="1508" type="curve"/>
      <point x="263" y="1458" type="line"/>
      <point x="385" y="1473"/>
      <point x="433" y="1422"/>
      <point x="450" y="1334" type="curve" smooth="yes"/>
      <point x="502" y="1075" type="line"/>
      <point x="-129" y="0" type="line"/>
      <point x="-70" y="0" type="line"/>
      <point x="516" y="1001" type="line"/>
      <point x="677" y="140" type="line" smooth="yes"/>
      <point x="692" y="58"/>
      <point x="743" y="-6"/>
    </contour>
  </outline>
</glyph>
<glyph name="xi" format="2">
  <advance width="1004"/>
  <unicode hex="03BE"/>
  <note>
uni03BE
</note>
  <outline>
    <contour>
      <point x="502" y="-370" type="line"/>
      <point x="598" y="-323"/>
      <point x="678" y="-234"/>
      <point x="693" y="-150" type="curve" smooth="yes"/>
      <point x="707" y="-69"/>
      <point x="670" y="-24"/>
      <point x="537" y="16" type="curve" smooth="yes"/>
      <point x="418" y="50" type="line" smooth="yes"/>
      <point x="194" y="117"/>
      <point x="37" y="201"/>
      <point x="80" y="445" type="curve" smooth="yes"/>
      <point x="123" y="689"/>
      <point x="325" y="835"/>
      <point x="641" y="835" type="curve" smooth="yes"/>
      <point x="755" y="835" type="line"/>
      <point x="765" y="891" type="line"/>
      <point x="635" y="891" type="line" smooth="yes"/>
      <point x="372" y="893"/>
      <point x="256" y="979"/>
      <point x="286" y="1148" type="curve" smooth="yes"/>
      <point x="317" y="1324"/>
      <point x="475" y="1423"/>
      <point x="712" y="1423" type="curve" smooth="yes"/>
      <point x="809" y="1423"/>
      <point x="896" y="1408"/>
      <point x="975" y="1377" type="curve"/>
      <point x="990" y="1427" type="line"/>
      <point x="911" y="1460"/>
      <point x="822" y="1476"/>
      <point x="723" y="1476" type="curve" smooth="yes"/>
      <point x="447" y="1476"/>
      <point x="267" y="1355"/>
      <point x="230" y="1144" type="curve" smooth="yes"/>
      <point x="206" y="1011"/>
      <point x="284" y="908"/>
      <point x="441" y="861" type="curve"/>
      <point x="211" y="804"/>
      <point x="62" y="657"/>
      <point x="25" y="449" type="curve" smooth="yes"/>
      <point x="2" y="317"/>
      <point x="33" y="212"/>
      <point x="116" y="135" type="curve" smooth="yes"/>
      <point x="150" y="102"/>
      <point x="194" y="75"/>
      <point x="247" y="52" type="curve" smooth="yes"/>
      <point x="352" y="6"/>
      <point x="661" y="-28"/>
      <point x="640" y="-149" type="curve" smooth="yes"/>
      <point x="628" y="-217"/>
      <point x="564" y="-290"/>
      <point x="475" y="-337" type="curve"/>
    </contour>
  </outline>
</glyph>
<glyph name="pi" format="2">
  <advance width="1220"/>
  <unicode hex="03C0"/>
  <note>
uni03C0
</note>
  <outline>
    <contour>
      <point x="889" y="-8" type="curve" smooth="yes"/>
      <point x="942" y="-8"/>
      <point x="981" y="-4"/>
      <point x="1004" y="4" type="curve"/>
      <point x="1004" y="55" type="line"/>
      <point x="961" y="49"/>
      <point x="925" y="46"/>
      <point x="895" y="46" type="curve" smooth="yes"/>
      <point x="778" y="46"/>
      <point x="745" y="118"/>
      <point x="772" y="271" type="curve" smooth="yes"/>
      <point x="905" y="1027" type="line"/>
      <point x="1120" y="1027" type="line"/>
      <point x="1130" y="1082" type="line"/>
      <point x="62" y="1082" type="line"/>
      <point x="52" y="1027" type="line"/>
      <point x="247" y="1027" type="line"/>
      <point x="66" y="0" type="line"/>
      <point x="120" y="0" type="line"/>
      <point x="301" y="1027" type="line"/>
      <point x="850" y="1027" type="line"/>
      <point x="716" y="264" type="line" smooth="yes"/>
      <point x="684" y="76"/>
      <point x="731" y="-8"/>
    </contour>
  </outline>
</glyph>
<glyph name="rho" format="2">
  <advance width="1160"/>
  <unicode hex="03C1"/>
  <note>
uni03C1
</note>
  <outline>
    <contour>
      <point x="-92" y="-416" type="line"/>
      <point x="-38" y="-416" type="line"/>
      <point x="65" y="163" type="line"/>
      <point x="115" y="41"/>
      <point x="227" y="-20"/>
      <point x="399" y="-20" type="curve" smooth="yes"/>
      <point x="651" y="-20"/>
      <point x="841" y="186"/>
      <point x="900" y="521" type="curve" smooth="yes"/>
      <point x="903" y="536" type="line" smooth="yes"/>
      <point x="965" y="892"/>
      <point x="846" y="1102"/>
      <point x="596" y="1102" type="curve" smooth="yes"/>
      <point x="344" y="1102"/>
      <point x="147" y="925"/>
      <point x="94" y="642" type="curve" smooth="yes"/>
    </contour>
    <contour>
      <point x="409" y="34" type="curve" smooth="yes"/>
      <point x="231" y="34"/>
      <point x="116" y="117"/>
      <point x="82" y="261" type="curve"/>
      <point x="144" y="608" type="line" smooth="yes"/>
      <point x="195" y="885"/>
      <point x="362" y="1048"/>
      <point x="586" y="1048" type="curve" smooth="yes"/>
      <point x="807" y="1048"/>
      <point x="904" y="855"/>
      <point x="846" y="526" type="curve" smooth="yes"/>
      <point x="791" y="213"/>
      <point x="632" y="34"/>
    </contour>
  </outline>
</glyph>
<glyph name="sigmafinal" format="2">
  <advance width="1101"/>
  <unicode hex="03C2"/>
  <note>
uni03C2
</note>
  <outline>
    <contour>
      <point x="435" y="-379" type="line"/>
      <point x="503" y="-352"/>
      <point x="599" y="-240"/>
      <point x="612" y="-163" type="curve" smooth="yes"/>
      <point x="633" y="-44"/>
      <point x="584" y="0"/>
      <point x="434" y="35" type="curve" smooth="yes"/>
      <point x="158" y="98"/>
      <point x="33" y="264"/>
      <point x="84" y="554" type="curve" smooth="yes"/>
      <point x="138" y="861"/>
      <point x="323" y="1048"/>
      <point x="566" y="1048" type="curve" smooth="yes"/>
      <point x="769" y="1048"/>
      <point x="883" y="921"/>
      <point x="847" y="720" type="curve"/>
      <point x="901" y="720" type="line"/>
      <point x="943" y="955"/>
      <point x="808" y="1102"/>
      <point x="576" y="1102" type="curve" smooth="yes"/>
      <point x="262" y="1102"/>
      <point x="80" y="847"/>
      <point x="20" y="509" type="curve" smooth="yes"/>
      <point x="-24" y="236"/>
      <point x="101" y="55"/>
      <point x="408" y="-16" type="curve" smooth="yes"/>
      <point x="547" y="-48"/>
      <point x="574" y="-76"/>
      <point x="558" y="-163" type="curve" smooth="yes"/>
      <point x="546" y="-234"/>
      <point x="474" y="-318"/>
      <point x="406" y="-347" type="curve"/>
    </contour>
  </outline>
</glyph>
<glyph name="sigma" format="2">
  <advance width="1160"/>
  <unicode hex="03C3"/>
  <note>
uni03C3
</note>
  <outline>
    <contour>
      <point x="401" y="-20" type="curve" smooth="yes"/>
      <point x="584" y="-20"/>
      <point x="752" y="77"/>
      <point x="860" y="241" type="curve" smooth="yes"/>
      <point x="913" y="323"/>
      <point x="950" y="416"/>
      <point x="968" y="521" type="curve" smooth="yes"/>
      <point x="1013" y="775"/>
      <point x="945" y="943"/>
      <point x="795" y="1027" type="curve"/>
      <point x="1140" y="1027" type="line"/>
      <point x="1150" y="1082" type="line"/>
      <point x="587" y="1082" type="line" smooth="yes"/>
      <point x="163" y="1077"/>
      <point x="37" y="612"/>
      <point x="28" y="562" type="curve" smooth="yes"/>
      <point x="-42" y="140"/>
      <point x="245" y="-20"/>
    </contour>
    <contour>
      <point x="410" y="34" type="curve" smooth="yes"/>
      <point x="145" y="34"/>
      <point x="30" y="265"/>
      <point x="75" y="520" type="curve" smooth="yes"/>
      <point x="129" y="828"/>
      <point x="336" y="1027"/>
      <point x="583" y="1027" type="curve" smooth="yes"/>
      <point x="951" y="1027"/>
      <point x="930" y="611"/>
      <point x="916" y="531" type="curve" smooth="yes"/>
      <point x="864" y="239"/>
      <point x="657" y="34"/>
    </contour>
  </outline>
</glyph>
<glyph name="tau" format="2">
  <advance width="1068"/>
  <unicode hex="03C4"/>
  <note>
uni03C4
</note>
  <outline>
    <contour>
      <point x="512" y="-21" type="curve" smooth="yes"/>
      <point x="559" y="-21"/>
      <point x="597" y="-17"/>
      <point x="627" y="-8" type="curve"/>
      <point x="627" y="42" type="line"/>
      <point x="582" y="36"/>
      <point x="546" y="33"/>
      <point x="518" y="33" type="curve" smooth="yes"/>
      <point x="389" y="33"/>
      <point x="347" y="114"/>
      <point x="376" y="279" type="curve" smooth="yes"/>
      <point x="508" y="1027" type="line"/>
      <point x="944" y="1027" type="line"/>
      <point x="954" y="1082" type="line"/>
      <point x="73" y="1082" type="line"/>
      <point x="63" y="1027" type="line"/>
      <point x="453" y="1027" type="line"/>
      <point x="319" y="268" type="line" smooth="yes"/>
      <point x="287" y="69"/>
      <point x="342" y="-21"/>
    </contour>
  </outline>
</glyph>
<glyph name="upsilon" format="2">
  <advance width="1117"/>
  <unicode hex="03C5"/>
  <note>
uni03C5
</note>
  <outline>
    <contour>
      <point x="310" y="-20" type="curve" smooth="yes"/>
      <point x="575" y="-20"/>
      <point x="772" y="194"/>
      <point x="830" y="523" type="curve" smooth="yes"/>
      <point x="865" y="720"/>
      <point x="869" y="859"/>
      <point x="830" y="1082" type="curve"/>
      <point x="764" y="1082" type="line"/>
      <point x="806" y="899"/>
      <point x="811" y="711"/>
      <point x="777" y="520" type="curve" smooth="yes"/>
      <point x="725" y="224"/>
      <point x="548" y="34"/>
      <point x="317" y="34" type="curve" smooth="yes"/>
      <point x="140" y="34"/>
      <point x="61" y="152"/>
      <point x="97" y="375" type="curve" smooth="yes"/>
      <point x="222" y="1082" type="line"/>
      <point x="168" y="1082" type="line"/>
      <point x="45" y="387" type="line" smooth="yes"/>
      <point x="-1" y="122"/>
      <point x="90" y="-20"/>
    </contour>
  </outline>
</glyph>
<glyph name="phi" format="2">
  <advance width="1443"/>
  <unicode hex="03C6"/>
  <note>
uni03C6
</note>
  <outline>
    <contour>
      <point x="378" y="-479" type="line"/>
      <point x="432" y="-479" type="line"/>
      <point x="513" y="-20" type="line"/>
      <point x="844" y="-10"/>
      <point x="1083" y="234"/>
      <point x="1138" y="546" type="curve" smooth="yes"/>
      <point x="1174" y="750"/>
      <point x="1131" y="923"/>
      <point x="1023" y="1014" type="curve" smooth="yes"/>
      <point x="969" y="1059"/>
      <point x="903.667" y="1082"/>
      <point x="827" y="1082" type="curve" smooth="yes"/>
      <point x="729.667" y="1082"/>
      <point x="639" y="1005"/>
      <point x="620" y="894" type="curve" smooth="yes"/>
      <point x="468" y="34" type="line"/>
      <point x="172" y="47"/>
      <point x="41" y="220"/>
      <point x="98" y="544" type="curve" smooth="yes"/>
      <point x="134" y="749"/>
      <point x="262" y="952"/>
      <point x="420" y="1039" type="curve"/>
      <point x="403" y="1083" type="line"/>
      <point x="221" y="978"/>
      <point x="85" y="773"/>
      <point x="45" y="546" type="curve" smooth="yes"/>
      <point x="-17" y="190"/>
      <point x="129" y="-8"/>
      <point x="459" y="-20" type="curve"/>
    </contour>
    <contour>
      <point x="522" y="33" type="curve"/>
      <point x="673" y="892" type="line" smooth="yes"/>
      <point x="688" y="973"/>
      <point x="751" y="1028"/>
      <point x="817" y="1028" type="curve" smooth="yes"/>
      <point x="1047" y="1028"/>
      <point x="1124" y="766"/>
      <point x="1085" y="544" type="curve" smooth="yes"/>
      <point x="1034" y="252"/>
      <point x="807" y="41"/>
    </contour>
  </outline>
</glyph>
<glyph name="psi" format="2">
  <advance width="1434"/>
  <unicode hex="03C8"/>
  <note>
uni03C8
</note>
  <outline>
    <contour>
      <point x="389" y="-415" type="line"/>
      <point x="443" y="-415" type="line"/>
      <point x="513" y="-19" type="line"/>
      <point x="855" y="-12"/>
      <point x="1079" y="203"/>
      <point x="1147" y="590" type="curve" smooth="yes"/>
      <point x="1173" y="738"/>
      <point x="1167" y="871"/>
      <point x="1095" y="1082" type="curve"/>
      <point x="1028" y="1082" type="line"/>
      <point x="1101" y="921"/>
      <point x="1123" y="756"/>
      <point x="1093" y="588" type="curve" smooth="yes"/>
      <point x="1031" y="235"/>
      <point x="834" y="41"/>
      <point x="522" y="34" type="curve"/>
      <point x="707" y="1082" type="line"/>
      <point x="653" y="1082" type="line"/>
      <point x="468" y="35" type="line"/>
      <point x="183" y="47"/>
      <point x="57" y="235"/>
      <point x="112" y="574" type="curve" smooth="yes"/>
      <point x="202" y="1082" type="line"/>
      <point x="148" y="1082" type="line"/>
      <point x="59" y="580" type="line" smooth="yes"/>
      <point x="-5" y="201"/>
      <point x="137" y="-7"/>
      <point x="459" y="-19" type="curve"/>
    </contour>
  </outline>
</glyph>
<glyph name="omega" format="2">
  <advance width="1687"/>
  <unicode hex="03C9"/>
  <note>
uni03C9
</note>
  <outline>
    <contour>
      <point x="323" y="-20" type="curve" smooth="yes"/>
      <point x="493" y="-20"/>
      <point x="622" y="76"/>
      <point x="699" y="251" type="curve"/>
      <point x="715" y="76"/>
      <point x="810" y="-20"/>
      <point x="981" y="-20" type="curve" smooth="yes"/>
      <point x="1206" y="-20"/>
      <point x="1383" y="186"/>
      <point x="1439" y="503" type="curve" smooth="yes"/>
      <point x="1470" y="678"/>
      <point x="1467" y="835"/>
      <point x="1402" y="1082" type="curve"/>
      <point x="1336" y="1082" type="line"/>
      <point x="1407" y="867"/>
      <point x="1418" y="685"/>
      <point x="1385" y="500" type="curve" smooth="yes"/>
      <point x="1336" y="220"/>
      <point x="1181" y="34"/>
      <point x="989" y="34" type="curve" smooth="yes"/>
      <point x="797" y="34"/>
      <point x="721" y="189"/>
      <point x="766" y="468" type="curve" smooth="yes"/>
      <point x="819" y="770" type="line"/>
      <point x="764" y="770" type="line"/>
      <point x="712" y="473" type="line" smooth="yes"/>
      <point x="659" y="188"/>
      <point x="524" y="34"/>
      <point x="334" y="34" type="curve" smooth="yes"/>
      <point x="141" y="34"/>
      <point x="53" y="221"/>
      <point x="102" y="500" type="curve" smooth="yes"/>
      <point x="137" y="695"/>
      <point x="222" y="889"/>
      <point x="357" y="1082" type="curve"/>
      <point x="291" y="1082" type="line"/>
      <point x="138" y="832"/>
      <point x="80" y="676"/>
      <point x="50" y="503" type="curve" smooth="yes"/>
      <point x="-5" y="190"/>
      <point x="95" y="-20"/>
    </contour>
  </outline>
</glyph>
<glyph name="thetaSymbol" format="2">
  <advance width="1185"/>
  <unicode hex="03D1"/>
  <note>
uni03D1
</note>
  <outline>
    <contour>
      <point x="353" y="-20" type="curve" smooth="yes"/>
      <point x="621" y="-20"/>
      <point x="777" y="123"/>
      <point x="831" y="407" type="curve" smooth="yes"/>
      <point x="880" y="685" type="line"/>
      <point x="944" y="688"/>
      <point x="1035" y="705"/>
      <point x="1073" y="720" type="curve"/>
      <point x="1071" y="772" type="line"/>
      <point x="1017" y="753"/>
      <point x="956" y="742"/>
      <point x="890" y="739" type="curve"/>
      <point x="949" y="1074" type="line" smooth="yes"/>
      <point x="997" y="1346"/>
      <point x="910" y="1497"/>
      <point x="714" y="1497" type="curve" smooth="yes"/>
      <point x="559" y="1497"/>
      <point x="424" y="1363"/>
      <point x="388" y="1161" type="curve" smooth="yes"/>
      <point x="337" y="872"/>
      <point x="498" y="698"/>
      <point x="826" y="686" type="curve"/>
      <point x="776" y="401" type="line" smooth="yes"/>
      <point x="726" y="150"/>
      <point x="604" y="34"/>
      <point x="362" y="34" type="curve" smooth="yes"/>
      <point x="144" y="34"/>
      <point x="41" y="165"/>
      <point x="82" y="413" type="curve" smooth="yes"/>
      <point x="141" y="748" type="line"/>
      <point x="87" y="746" type="line"/>
      <point x="28" y="410" type="line" smooth="yes"/>
      <point x="-17" y="134"/>
      <point x="107" y="-20"/>
    </contour>
    <contour>
      <point x="836" y="740" type="line"/>
      <point x="535" y="752"/>
      <point x="395" y="895"/>
      <point x="441" y="1154" type="curve" smooth="yes"/>
      <point x="477" y="1343"/>
      <point x="582" y="1443"/>
      <point x="705" y="1443" type="curve"/>
      <point x="878" y="1443"/>
      <point x="937" y="1320"/>
      <point x="896" y="1084" type="curve" smooth="yes"/>
    </contour>
  </outline>
</glyph>
<glyph name="UpsilonhookSymbol" format="2">
  <advance width="1090"/>
  <unicode hex="03D2"/>
  <note>
uni03D2
</note>
  <outline>
    <contour>
      <point x="344" y="0" type="line"/>
      <point x="399" y="0" type="line"/>
      <point x="508" y="617" type="line"/>
      <point x="892" y="1235" type="line" smooth="yes"/>
      <point x="973" y="1366"/>
      <point x="1075" y="1437"/>
      <point x="1137" y="1419" type="curve" smooth="yes"/>
      <point x="1210" y="1398" type="line"/>
      <point x="1240" y="1439" type="line"/>
      <point x="1213" y="1458"/>
      <point x="1181" y="1467"/>
      <point x="1143" y="1467" type="curve" smooth="yes"/>
      <point x="1026" y="1467"/>
      <point x="946" y="1412"/>
      <point x="840" y="1239" type="curve" smooth="yes"/>
      <point x="487" y="669" type="line"/>
      <point x="336" y="1239" type="line" smooth="yes"/>
      <point x="290" y="1408"/>
      <point x="231" y="1467"/>
      <point x="114" y="1467" type="curve" smooth="yes"/>
      <point x="77" y="1467"/>
      <point x="41" y="1458"/>
      <point x="6" y="1439" type="curve"/>
      <point x="22" y="1398" type="line"/>
      <point x="110" y="1420" type="line" smooth="yes"/>
      <point x="203" y="1443"/>
      <point x="246" y="1362"/>
      <point x="287" y="1215" type="curve" smooth="yes"/>
      <point x="454" y="623" type="line"/>
    </contour>
  </outline>
</glyph>
<glyph name="ho-ethiopic" format="2">
  <advance width="1128"/>
  <unicode hex="1206"/>
  <outline>
    <contour>
      <point x="707" y="783" type="curve" smooth="yes"/>
      <point x="803" y="783"/>
      <point x="891" y="857"/>
      <point x="908" y="953" type="curve" smooth="yes"/>
      <point x="925" y="1049"/>
      <point x="864" y="1127"/>
      <point x="768" y="1127" type="curve" smooth="yes"/>
      <point x="675" y="1127"/>
      <point x="584" y="1053"/>
      <point x="566" y="953" type="curve" smooth="yes"/>
      <point x="549" y="853"/>
      <point x="615" y="783"/>
    </contour>
    <contour>
      <point x="717" y="837" type="curve" smooth="yes"/>
      <point x="649" y="837"/>
      <point x="608" y="884"/>
      <point x="620" y="953" type="curve" smooth="yes"/>
      <point x="633" y="1025"/>
      <point x="690" y="1073"/>
      <point x="758" y="1073" type="curve" smooth="yes"/>
      <point x="826" y="1073"/>
      <point x="867" y="1025"/>
      <point x="854" y="953" type="curve" smooth="yes"/>
      <point x="842" y="884"/>
      <point x="785" y="837"/>
    </contour>
    <component base="ha.base"/>
  </outline>
</glyph>
<glyph name="le-ethiopic" format="2">
  <advance width="1129"/>
  <unicode hex="120D"/>
  <anchor x="712" y="-122" name="_hee"/>
  <anchor x="728" y="12" name="haa"/>
  <anchor x="11" y="585" name="he"/>
  <anchor x="712" y="-122" name="hee"/>
  <anchor x="813" y="43" name="hi"/>
  <anchor x="966" y="667" name="hu"/>
  <anchor x="727" y="2" name="hwa"/>
  <outline>
    <contour>
      <point x="246" y="-43" type="curve" smooth="yes"/>
      <point x="368" y="-43"/>
      <point x="480" y="51"/>
      <point x="502" y="173" type="curve" smooth="yes"/>
      <point x="523" y="296"/>
      <point x="445" y="395"/>
      <point x="323" y="395" type="curve" smooth="yes"/>
      <point x="204" y="395"/>
      <point x="88" y="301"/>
      <point x="66" y="173" type="curve" smooth="yes"/>
      <point x="43" y="46"/>
      <point x="129" y="-43"/>
    </contour>
    <contour>
      <point x="256" y="17" type="curve" smooth="yes"/>
      <point x="164" y="17"/>
      <point x="109" y="80"/>
      <point x="126" y="173" type="curve" smooth="yes"/>
      <point x="143" y="270"/>
      <point x="220" y="335"/>
      <point x="312" y="335" type="curve" smooth="yes"/>
      <point x="404" y="335"/>
      <point x="459" y="270"/>
      <point x="442" y="173" type="curve" smooth="yes"/>
      <point x="425" y="80"/>
      <point x="348" y="17"/>
    </contour>
    <component base="la.base"/>
  </outline>
</glyph>
<glyph name="lo-ethiopic" format="2">
  <advance width="1280"/>
  <unicode hex="120E"/>
  <anchor x="712" y="-122" name="_hee"/>
  <anchor x="728" y="12" name="haa"/>
  <anchor x="11" y="585" name="he"/>
  <anchor x="712" y="-122" name="hee"/>
  <anchor x="813" y="43" name="hi"/>
  <anchor x="966" y="667" name="hu"/>
  <anchor x="727" y="2" name="hwa"/>
  <outline>
    <contour>
      <point x="967" y="534" type="curve" smooth="yes"/>
      <point x="1063" y="534"/>
      <point x="1151" y="608"/>
      <point x="1168" y="704" type="curve" smooth="yes"/>
      <point x="1185" y="800"/>
      <point x="1124" y="878"/>
      <point x="1028" y="878" type="curve" smooth="yes"/>
      <point x="935" y="878"/>
      <point x="844" y="804"/>
      <point x="826" y="704" type="curve" smooth="yes"/>
      <point x="809" y="604"/>
      <point x="875" y="534"/>
    </contour>
    <contour>
      <point x="977" y="588" type="curve" smooth="yes"/>
      <point x="909" y="588"/>
      <point x="868" y="635"/>
      <point x="880" y="704" type="curve" smooth="yes"/>
      <point x="893" y="776"/>
      <point x="951" y="824"/>
      <point x="1019" y="824" type="curve" smooth="yes"/>
      <point x="1087" y="824"/>
      <point x="1127" y="776"/>
      <point x="1114" y="704" type="curve" smooth="yes"/>
      <point x="1102" y="635"/>
      <point x="1045" y="588"/>
    </contour>
    <component base="la.base"/>
  </outline>
</glyph>
<glyph name="ro-ethiopic" format="2">
  <advance width="949"/>
  <unicode hex="122E"/>
  <anchor x="593" y="1278" name="hat"/>
  <anchor x="572" y="-26" name="hwa"/>
  <anchor x="575" y="-15" name="leg"/>
  <outline>
    <contour>
      <point x="718" y="760" type="curve" smooth="yes"/>
      <point x="814" y="760"/>
      <point x="902" y="834"/>
      <point x="919" y="930" type="curve" smooth="yes"/>
      <point x="936" y="1026"/>
      <point x="875" y="1104"/>
      <point x="779" y="1104" type="curve" smooth="yes"/>
      <point x="686" y="1104"/>
      <point x="595" y="1030"/>
      <point x="577" y="930" type="curve" smooth="yes"/>
      <point x="560" y="830"/>
      <point x="626" y="760"/>
    </contour>
    <contour>
      <point x="728" y="814" type="curve" smooth="yes"/>
      <point x="660" y="814"/>
      <point x="619" y="861"/>
      <point x="631" y="930" type="curve" smooth="yes"/>
      <point x="644" y="1002"/>
      <point x="701" y="1050"/>
      <point x="769" y="1050" type="curve" smooth="yes"/>
      <point x="837" y="1050"/>
      <point x="878" y="1002"/>
      <point x="865" y="930" type="curve" smooth="yes"/>
      <point x="853" y="861"/>
      <point x="796" y="814"/>
    </contour>
    <component base="re-ethiopic"/>
  </outline>
</glyph>
<glyph name="qwaa-ethiopic" format="2">
  <advance width="1385"/>
  <unicode hex="124B"/>
  <anchor x="549" y="11" name="haa"/>
  <anchor x="755" y="1331" name="hat"/>
  <anchor x="708" y="-95" name="hee"/>
  <anchor x="1295" y="657" name="hu"/>
  <anchor x="509" y="-25" name="hwa"/>
  <anchor x="510" y="-25" name="leg"/>
  <anchor x="715" y="1102" name="neck"/>
  <outline>
    <contour>
      <point x="535" y="-340" type="line"/>
      <point x="504" y="-516" type="line"/>
      <point x="548" y="-516" type="line"/>
      <point x="579" y="-340" type="line"/>
    </contour>
    <component base="wa.base"/>
    <component base="_smart.neck" xOffset="871" yOffset="1126"/>
    <component base="_smart.leg" xOffset="703" yOffset="-312"/>
    <component base="_smart.hwa" xOffset="704" yOffset="-393"/>
  </outline>
</glyph>
<glyph name="qhwaa-ethiopic" format="2">
  <advance width="1385"/>
  <unicode hex="125B"/>
  <anchor x="549" y="11" name="haa"/>
  <anchor x="755" y="1331" name="hat"/>
  <anchor x="708" y="-95" name="hee"/>
  <anchor x="1295" y="657" name="hu"/>
  <anchor x="509" y="-25" name="hwa"/>
  <anchor x="510" y="-25" name="leg"/>
  <anchor x="715" y="1102" name="neck"/>
  <outline>
    <contour>
      <point x="559" y="-344" type="line"/>
      <point x="532" y="-496" type="line"/>
      <point x="566" y="-496" type="line"/>
      <point x="593" y="-344" type="line"/>
    </contour>
    <component base="wa.base"/>
    <component base="_smart.neck" xOffset="875" yOffset="1126"/>
    <component base="_smart.leg" xOffset="703" yOffset="-312"/>
    <component base="_smart.hwa" xOffset="704" yOffset="-393"/>
    <component base="_smart.hat" xOffset="320" yOffset="1219"/>
  </outline>
</glyph>
<glyph name="xe-ethiopic" format="2">
  <advance width="943"/>
  <unicode hex="1285"/>
  <anchor x="623" y="21" name="haa"/>
  <anchor x="493" y="0" name="haa.acute"/>
  <anchor x="507" y="1367" name="hat"/>
  <anchor x="368" y="1176" name="hat.left"/>
  <anchor x="687" y="91" name="he.left.outer"/>
  <anchor x="508" y="40" name="hee"/>
  <anchor x="567" y="50" name="hi"/>
  <anchor x="472" y="868" name="ho.ring"/>
  <anchor x="170" y="1152" name="ho.ring.uniq"/>
  <anchor x="663" y="638" name="hu"/>
  <anchor x="523" y="0" name="hwa"/>
  <anchor x="368" y="1102" name="neck"/>
  <anchor x="197" y="1041" name="neck.left"/>
  <anchor x="143" y="1235" name="nose"/>
  <anchor x="538" y="1060" name="ring"/>
  <anchor x="512" y="1" name="xwaa"/>
  <outline>
    <contour>
      <point x="15" y="1052" type="line"/>
      <point x="-25" y="844" type="line"/>
      <point x="17" y="844" type="line"/>
      <point x="57" y="1052" type="line"/>
    </contour>
    <component base="ga.base" xOffset="60"/>
    <component base="_smart.neck.left" xOffset="303" yOffset="1065"/>
    <component base="_smart.nose" xOffset="3" yOffset="1134"/>
  </outline>
</glyph>
<glyph name="xoa-ethiopic" format="2">
  <advance width="949"/>
  <unicode hex="1287"/>
  <anchor x="642" y="1278" name="hat"/>
  <anchor x="621" y="-26" name="hwa"/>
  <anchor x="624" y="-15" name="leg"/>
  <outline>
    <contour>
      <point x="233" y="-344" type="line"/>
      <point x="221" y="-408" type="line"/>
      <point x="575" y="-408" type="line"/>
      <point x="587" y="-344" type="line"/>
    </contour>
    <component base="xo-ethiopic"/>
  </outline>
</glyph>
<glyph name="xwi-ethiopic" format="2">
  <advance width="757"/>
  <unicode hex="128A"/>
  <anchor x="108" y="1277" name="hat"/>
  <anchor x="164" y="1173" name="hat.002"/>
  <anchor x="289" y="-56" name="hee"/>
  <anchor x="346" y="45" name="hi"/>
  <anchor x="450" y="681" name="hu"/>
  <anchor x="269" y="3" name="hwa"/>
  <anchor x="111" y="1058" name="neck"/>
  <anchor x="-95" y="1235" name="nose"/>
  <anchor x="-2" y="1043" name="shoulder"/>
  <outline>
    <contour>
      <point x="387" y="613" type="line"/>
      <point x="380" y="572" type="line"/>
      <point x="511" y="572" type="line"/>
      <point x="518" y="613" type="line"/>
    </contour>
    <contour>
      <point x="500" y="766" type="line"/>
      <point x="431" y="371" type="line"/>
      <point x="477" y="371" type="line"/>
      <point x="546" y="766" type="line"/>
    </contour>
    <contour>
      <point x="460" y="421" type="line"/>
      <point x="452" y="371" type="line"/>
      <point x="588" y="371" type="line"/>
      <point x="596" y="421" type="line"/>
    </contour>
    <component base="ga.base" xOffset="75"/>
    <component base="_smart.shoulder" xOffset="318" yOffset="1116"/>
    <component base="_smart.nose" xOffset="20" yOffset="1134"/>
  </outline>
</glyph>
<glyph name="xwe-ethiopic" format="2">
  <advance width="833"/>
  <unicode hex="128D"/>
  <anchor x="108" y="1277" name="hat"/>
  <anchor x="164" y="1173" name="hat.002"/>
  <anchor x="289" y="-56" name="hee"/>
  <anchor x="346" y="45" name="hi"/>
  <anchor x="450" y="681" name="hu"/>
  <anchor x="269" y="3" name="hwa"/>
  <anchor x="111" y="1058" name="neck"/>
  <anchor x="-95" y="1235" name="nose"/>
  <anchor x="-2" y="1043" name="shoulder"/>
  <outline>
    <contour>
      <point x="379" y="635" type="line"/>
      <point x="367" y="566" type="line"/>
      <point x="552" y="566" type="line"/>
      <point x="564" y="635" type="line"/>
    </contour>
    <contour>
      <point x="583" y="740" type="line"/>
      <point x="528" y="431" type="line"/>
      <point x="570" y="431" type="line"/>
      <point x="625" y="740" type="line"/>
    </contour>
    <contour>
      <point x="535" y="483" type="line"/>
      <point x="526" y="431" type="line"/>
      <point x="663" y="431" type="line"/>
      <point x="672" y="483" type="line"/>
    </contour>
    <component base="ga.base" xOffset="75"/>
    <component base="_smart.shoulder" xOffset="315" yOffset="1116"/>
    <component base="_smart.nose" xOffset="10" yOffset="1134"/>
  </outline>
</glyph>
<glyph name="ne-ethiopic" format="2">
  <advance width="862"/>
  <unicode hex="1295"/>
  <anchor x="409" y="-263" name="_neck.left"/>
  <anchor x="503" y="21" name="haa"/>
  <anchor x="373" y="0" name="haa.acute"/>
  <anchor x="387" y="1367" name="hat"/>
  <anchor x="248" y="1176" name="hat.left"/>
  <anchor x="567" y="91" name="he.left.outer"/>
  <anchor x="388" y="40" name="hee"/>
  <anchor x="447" y="50" name="hi"/>
  <anchor x="352" y="868" name="ho.ring"/>
  <anchor x="543" y="638" name="hu"/>
  <anchor x="403" y="0" name="hwa"/>
  <anchor x="248" y="1102" name="neck"/>
  <anchor x="78" y="1037" name="neck.left"/>
  <anchor x="23" y="1235" name="nose"/>
  <outline>
    <contour>
      <point x="386" y="-255" type="line"/>
      <point x="440" y="-255" type="line"/>
      <point x="534" y="275" type="line"/>
      <point x="473" y="237" type="line"/>
    </contour>
    <component base="ga.base"/>
  </outline>
</glyph>
<glyph name="eGlottal-ethiopic" format="2">
  <advance width="1032"/>
  <unicode hex="12A5"/>
  <anchor x="730" y="8" name="haa"/>
  <anchor x="627" y="1382" name="hat"/>
  <anchor x="286" y="1372" name="hat.001"/>
  <anchor x="751" y="-1" name="hee"/>
  <anchor x="850" y="12" name="hi"/>
  <anchor x="5" y="21" name="ho"/>
  <anchor x="957" y="673" name="hu"/>
  <anchor x="738" y="9" name="hwa"/>
  <anchor x="595" y="1114" name="neck"/>
  <outline>
    <contour>
      <point x="169" y="1709" type="line"/>
      <point x="115" y="1403" type="line"/>
      <point x="177" y="1403" type="line"/>
      <point x="231" y="1709" type="line"/>
    </contour>
    <component base="ba.base"/>
    <component base="_aa.neck" xOffset="1131"/>
  </outline>
</glyph>
<glyph name="yi-ethiopic" format="2">
  <advance width="1004"/>
  <unicode hex="12EA"/>
  <anchor x="14" y="54" name="da"/>
  <anchor x="543" y="10" name="haa"/>
  <anchor x="61" y="-15" name="haa.acute"/>
  <anchor x="566" y="1341" name="hat"/>
  <anchor x="955" y="756" name="he"/>
  <anchor x="108" y="480" name="he.left.outer"/>
  <anchor x="541" y="51" name="hee"/>
  <anchor x="701" y="11" name="hha"/>
  <anchor x="545" y="-50" name="hi"/>
  <anchor x="-51" y="0" name="ho"/>
  <anchor x="578" y="159" name="hu"/>
  <anchor x="543" y="10" name="hwa"/>
  <anchor x="558" y="1112" name="neck"/>
  <anchor x="79" y="57" name="ye"/>
  <outline>
    <contour>
      <point x="233" y="197" type="line"/>
      <point x="223" y="142" type="line"/>
      <point x="530" y="142" type="line"/>
      <point x="540" y="197" type="line"/>
    </contour>
    <component base="ya.base"/>
    <component base="_smart.hi" xOffset="353" yOffset="149"/>
  </outline>
</glyph>
<glyph name="ge-ethiopic" format="2">
  <advance width="676"/>
  <unicode hex="130D"/>
  <anchor x="192" y="1277" name="hat"/>
  <anchor x="248" y="1173" name="hat.002"/>
  <anchor x="373" y="-56" name="hee"/>
  <anchor x="430" y="45" name="hi"/>
  <anchor x="534" y="681" name="hu"/>
  <anchor x="353" y="3" name="hwa"/>
  <anchor x="195" y="1058" name="neck"/>
  <anchor x="-11" y="1235" name="nose"/>
  <anchor x="82" y="1043" name="shoulder"/>
  <outline>
    <contour>
      <point x="83" y="738" type="curve" smooth="yes"/>
      <point x="179" y="738"/>
      <point x="267" y="812"/>
      <point x="284" y="908" type="curve" smooth="yes"/>
      <point x="301" y="1004"/>
      <point x="240" y="1082"/>
      <point x="144" y="1082" type="curve" smooth="yes"/>
      <point x="51" y="1082"/>
      <point x="-40" y="1008"/>
      <point x="-58" y="908" type="curve" smooth="yes"/>
      <point x="-75" y="808"/>
      <point x="-9" y="738"/>
    </contour>
    <contour>
      <point x="93" y="792" type="curve" smooth="yes"/>
      <point x="25" y="792"/>
      <point x="-16" y="839"/>
      <point x="-4" y="908" type="curve" smooth="yes"/>
      <point x="9" y="980"/>
      <point x="66" y="1028"/>
      <point x="134" y="1028" type="curve" smooth="yes"/>
      <point x="202" y="1028"/>
      <point x="243" y="980"/>
      <point x="230" y="908" type="curve" smooth="yes"/>
      <point x="218" y="839"/>
      <point x="161" y="792"/>
    </contour>
    <component base="ga.base" xOffset="159"/>
  </outline>
</glyph>
<glyph name="gwaa-ethiopic" format="2">
  <advance width="697"/>
  <unicode hex="1313"/>
  <anchor x="33" y="1277" name="hat"/>
  <anchor x="89" y="1173" name="hat.002"/>
  <anchor x="214" y="-56" name="hee"/>
  <anchor x="271" y="45" name="hi"/>
  <anchor x="375" y="681" name="hu"/>
  <anchor x="194" y="3" name="hwa"/>
  <anchor x="36" y="1058" name="neck"/>
  <anchor x="-170" y="1235" name="nose"/>
  <anchor x="-77" y="1043" name="shoulder"/>
  <outline>
    <contour>
      <point x="406" y="-340" type="line"/>
      <point x="461" y="-340" type="line"/>
      <point x="520" y="-5" type="line"/>
      <point x="139" y="-5" type="line"/>
      <point x="130" y="-59" type="line"/>
      <point x="457" y="-59" type="line"/>
    </contour>
    <component base="ga.base"/>
  </outline>
</glyph>
<glyph name="paa-ethiopic" format="2">
  <advance width="679"/>
  <unicode hex="1353"/>
  <anchor x="210" y="42" name="haa"/>
  <anchor x="71" y="1" name="haa.acute"/>
  <anchor x="308" y="1339" name="hat"/>
  <anchor x="211" y="1167" name="he.acute.top"/>
  <anchor x="121" y="0" name="hee"/>
  <anchor x="143" y="50" name="hi"/>
  <anchor x="506" y="1275" name="ho.ring"/>
  <anchor x="241" y="669" name="hu"/>
  <anchor x="78" y="20" name="hwa"/>
  <anchor x="235" y="1082" name="neck"/>
  <outline>
    <contour>
      <point x="-40" y="0" type="line"/>
      <point x="217" y="0" type="line"/>
      <point x="225" y="45" type="line"/>
      <point x="-32" y="45" type="line"/>
    </contour>
    <component base="pa.base"/>
  </outline>
</glyph>
<glyph name="rya-ethiopic" format="2">
  <advance width="1014"/>
  <unicode hex="1358"/>
  <anchor x="516" y="71" name="fa"/>
  <anchor x="400" y="-13" name="haa"/>
  <anchor x="375" y="-11" name="haa.acute"/>
  <anchor x="439" y="1051" name="hat"/>
  <anchor x="794" y="590" name="hee"/>
  <anchor x="685" y="985" name="ho.ring"/>
  <anchor x="445" y="4" name="hwa"/>
  <outline>
    <contour>
      <point x="34" y="1082" type="line"/>
      <point x="456" y="1082" type="line"/>
      <point x="464" y="1126" type="line"/>
      <point x="42" y="1126" type="line"/>
    </contour>
    <component base="ra.base"/>
    <component base="acute" xScale="-1" xOffset="1127" yOffset="-1000"/>
  </outline>
</glyph>
<glyph name="period-ethiopic" format="2">
  <advance width="965"/>
  <unicode hex="1362"/>
  <outline>
    <contour>
      <point x="181" y="537" type="curve" smooth="yes"/>
      <point x="212" y="537"/>
      <point x="241" y="561"/>
      <point x="247" y="592" type="curve" smooth="yes"/>
      <point x="252" y="623"/>
      <point x="231" y="648"/>
      <point x="201" y="648" type="curve" smooth="yes"/>
      <point x="170" y="648"/>
      <point x="141" y="623"/>
      <point x="136" y="592" type="curve" smooth="yes"/>
      <point x="130" y="561"/>
      <point x="150" y="537"/>
    </contour>
    <contour>
      <point x="180" y="-6" type="curve" smooth="yes"/>
      <point x="211" y="-6"/>
      <point x="240" y="18"/>
      <point x="246" y="49" type="curve" smooth="yes"/>
      <point x="251" y="80"/>
      <point x="230" y="105"/>
      <point x="200" y="105" type="curve" smooth="yes"/>
      <point x="169" y="105"/>
      <point x="140" y="80"/>
      <point x="135" y="49" type="curve" smooth="yes"/>
      <point x="129" y="18"/>
      <point x="149" y="-6"/>
    </contour>
    <contour>
      <point x="580" y="-6" type="curve" smooth="yes"/>
      <point x="611" y="-6"/>
      <point x="640" y="18"/>
      <point x="646" y="49" type="curve" smooth="yes"/>
      <point x="651" y="80"/>
      <point x="630" y="105"/>
      <point x="600" y="105" type="curve" smooth="yes"/>
      <point x="569" y="105"/>
      <point x="540" y="80"/>
      <point x="535" y="49" type="curve" smooth="yes"/>
      <point x="529" y="18"/>
      <point x="549" y="-6"/>
    </contour>
    <contour>
      <point x="581" y="537" type="curve" smooth="yes"/>
      <point x="612" y="537"/>
      <point x="641" y="561"/>
      <point x="647" y="592" type="curve" smooth="yes"/>
      <point x="652" y="623"/>
      <point x="631" y="648"/>
      <point x="601" y="648" type="curve" smooth="yes"/>
      <point x="570" y="648"/>
      <point x="541" y="623"/>
      <point x="536" y="592" type="curve" smooth="yes"/>
      <point x="530" y="561"/>
      <point x="550" y="537"/>
    </contour>
  </outline>
</glyph>
<glyph name="comma-ethiopic" format="2">
  <advance width="556"/>
  <unicode hex="1363"/>
  <outline>
    <contour>
      <point x="181" y="1382" type="line"/>
      <point x="500" y="1382" type="line"/>
      <point x="510" y="1439" type="line"/>
      <point x="191" y="1439" type="line"/>
    </contour>
    <component base="period" xOffset="20" yOffset="100"/>
    <component base="period" xOffset="21" yOffset="983"/>
  </outline>
</glyph>
<glyph name="colon-ethiopic" format="2">
  <advance width="556"/>
  <unicode hex="1365"/>
  <outline>
    <contour>
      <point x="53" y="512" type="line"/>
      <point x="282" y="512" type="line"/>
      <point x="289" y="551" type="line"/>
      <point x="60" y="551" type="line"/>
    </contour>
    <component base="colon" xOffset="30"/>
  </outline>
</glyph>
<glyph name="prefacecolon-ethiopic" format="2">
  <advance width="730"/>
  <unicode hex="1366"/>
  <outline>
    <contour>
      <point x="282" y="507" type="line"/>
      <point x="512" y="507" type="line"/>
      <point x="531" y="615" type="line"/>
      <point x="301" y="615" type="line"/>
    </contour>
    <component base="period" xOffset="20"/>
    <component base="period" xOffset="251" yOffset="883"/>
  </outline>
</glyph>
<glyph name="question-ethiopic" format="2">
  <advance width="556"/>
  <unicode hex="1367"/>
  <outline>
    <contour>
      <point x="288" y="555" type="curve" smooth="yes"/>
      <point x="319" y="555"/>
      <point x="348" y="579"/>
      <point x="354" y="610" type="curve" smooth="yes"/>
      <point x="359" y="641"/>
      <point x="338" y="666"/>
      <point x="307" y="666" type="curve" smooth="yes"/>
      <point x="277" y="666"/>
      <point x="248" y="641"/>
      <point x="243" y="610" type="curve" smooth="yes"/>
      <point x="237" y="579"/>
      <point x="257" y="555"/>
    </contour>
    <component base="period" xOffset="20"/>
    <component base="period" xOffset="571" yOffset="883"/>
  </outline>
</glyph>
<glyph name="paragraphseparator-ethiopic" format="2">
  <advance width="1337"/>
  <unicode hex="1368"/>
  <outline>
    <contour>
      <point x="636" y="950" type="curve" smooth="yes"/>
      <point x="667" y="951"/>
      <point x="696" y="975"/>
      <point x="701" y="1006" type="curve" smooth="yes"/>
      <point x="706" y="1037"/>
      <point x="684" y="1062"/>
      <point x="654" y="1062" type="curve" smooth="yes"/>
      <point x="623" y="1061"/>
      <point x="595" y="1035"/>
      <point x="590" y="1004" type="curve" smooth="yes"/>
      <point x="585" y="973"/>
      <point x="605" y="950"/>
    </contour>
    <contour>
      <point x="320" y="245" type="curve" smooth="yes"/>
      <point x="348" y="260"/>
      <point x="353" y="291"/>
      <point x="333" y="315" type="curve" smooth="yes"/>
      <point x="313" y="338"/>
      <point x="276" y="345"/>
      <point x="249" y="330" type="curve" smooth="yes"/>
      <point x="222" y="314"/>
      <point x="216" y="281"/>
      <point x="235" y="258" type="curve" smooth="yes"/>
      <point x="255" y="235"/>
      <point x="293" y="229"/>
    </contour>
    <contour>
      <point x="650" y="67" type="curve" smooth="yes"/>
      <point x="681" y="68"/>
      <point x="710" y="92"/>
      <point x="715" y="123" type="curve" smooth="yes"/>
      <point x="720" y="154"/>
      <point x="698" y="179"/>
      <point x="668" y="179" type="curve" smooth="yes"/>
      <point x="637" y="178"/>
      <point x="609" y="152"/>
      <point x="604" y="121" type="curve" smooth="yes"/>
      <point x="599" y="90"/>
      <point x="619" y="67"/>
    </contour>
    <contour>
      <point x="293" y="816" type="curve" smooth="yes"/>
      <point x="313" y="793"/>
      <point x="346" y="793"/>
      <point x="365" y="816" type="curve" smooth="yes"/>
      <point x="385" y="839"/>
      <point x="385" y="878"/>
      <point x="364" y="901" type="curve" smooth="yes"/>
      <point x="344" y="926"/>
      <point x="313" y="926"/>
      <point x="293" y="902" type="curve" smooth="yes"/>
      <point x="273" y="878"/>
      <point x="273" y="841"/>
    </contour>
    <contour>
      <point x="653" y="479" type="curve" smooth="yes"/>
      <point x="684" y="479"/>
      <point x="713" y="503"/>
      <point x="719" y="534" type="curve" smooth="yes"/>
      <point x="724" y="565"/>
      <point x="703" y="590"/>
      <point x="672" y="590" type="curve" smooth="yes"/>
      <point x="642" y="590"/>
      <point x="613" y="565"/>
      <point x="608" y="534" type="curve" smooth="yes"/>
      <point x="602" y="503"/>
      <point x="622" y="479"/>
    </contour>
    <contour>
      <point x="969" y="247" type="curve" smooth="yes"/>
      <point x="989" y="224"/>
      <point x="1022" y="224"/>
      <point x="1041" y="247" type="curve" smooth="yes"/>
      <point x="1061" y="270"/>
      <point x="1061" y="309"/>
      <point x="1040" y="332" type="curve" smooth="yes"/>
      <point x="1020" y="357"/>
      <point x="989" y="357"/>
      <point x="969" y="333" type="curve" smooth="yes"/>
      <point x="949" y="309"/>
      <point x="949" y="272"/>
    </contour>
    <contour>
      <point x="997" y="811" type="curve" smooth="yes"/>
      <point x="1025" y="826"/>
      <point x="1030" y="857"/>
      <point x="1010" y="881" type="curve" smooth="yes"/>
      <point x="990" y="904"/>
      <point x="953" y="911"/>
      <point x="926" y="896" type="curve" smooth="yes"/>
      <point x="899" y="880"/>
      <point x="893" y="847"/>
      <point x="912" y="824" type="curve" smooth="yes"/>
      <point x="932" y="801"/>
      <point x="970" y="795"/>
    </contour>
  </outline>
</glyph>
<glyph name="two-ethiopic" format="2">
  <advance width="1623"/>
  <unicode hex="136A"/>
  <outline>
    <contour>
      <point x="313" y="1074" type="line"/>
      <point x="160" y="383" type="line"/>
      <point x="215" y="383" type="line"/>
      <point x="367" y="1074" type="line"/>
    </contour>
    <component base="_num.bar" xOffset="180"/>
    <component base="three" xOffset="180"/>
  </outline>
</glyph>
<glyph name="four-ethiopic" format="2">
  <advance width="1693"/>
  <unicode hex="136C"/>
  <outline>
    <contour>
      <point x="655" y="-20" type="curve" smooth="yes"/>
      <point x="930" y="-20"/>
      <point x="1128" y="203"/>
      <point x="1197" y="594" type="curve" smooth="yes"/>
      <point x="1244" y="858" type="line" smooth="yes"/>
      <point x="1313" y="1250"/>
      <point x="1193" y="1477"/>
      <point x="917" y="1477" type="curve" smooth="yes"/>
      <point x="642" y="1477"/>
      <point x="441" y="1249"/>
      <point x="373" y="862" type="curve" smooth="yes"/>
      <point x="327" y="598" type="line" smooth="yes"/>
      <point x="258" y="206"/>
      <point x="382" y="-20"/>
    </contour>
    <contour>
      <point x="664" y="34" type="curve" smooth="yes"/>
      <point x="423" y="34"/>
      <point x="318" y="244"/>
      <point x="380" y="596" type="curve" smooth="yes"/>
      <point x="426" y="857" type="line" smooth="yes"/>
      <point x="490" y="1216"/>
      <point x="662" y="1423"/>
      <point x="907" y="1423" type="curve" smooth="yes"/>
      <point x="1151" y="1423"/>
      <point x="1252" y="1215"/>
      <point x="1190" y="862" type="curve" smooth="yes"/>
      <point x="1144" y="601" type="line" smooth="yes"/>
      <point x="1081" y="242"/>
      <point x="907" y="34"/>
    </contour>
    <component base="_num.bar" xOffset="232"/>
  </outline>
</glyph>
<glyph name="five-ethiopic" format="2">
  <advance width="1315"/>
  <unicode hex="136D"/>
  <outline>
    <contour>
      <point x="34" y="0" type="line"/>
      <point x="964" y="0" type="line"/>
      <point x="974" y="54" type="line"/>
      <point x="106" y="54" type="line"/>
      <point x="353" y="1456" type="line"/>
      <point x="291" y="1456" type="line"/>
    </contour>
    <component base="_num.bar" xOffset="82"/>
    <component base="_bar.part" xOffset="62" yOffset="810"/>
  </outline>
</glyph>
<glyph name="ten-ethiopic" format="2">
  <advance width="1150"/>
  <unicode hex="1372"/>
  <outline>
    <contour>
      <point x="414" y="0" type="line"/>
      <point x="468" y="0" type="line"/>
      <point x="726" y="1460" type="line"/>
      <point x="715" y="1460" type="line"/>
      <point x="659" y="1388" type="line"/>
    </contour>
    <component base="_num.bar"/>
  </outline>
</glyph>
<glyph name="twenty-ethiopic" format="2">
  <advance width="1150"/>
  <unicode hex="1373"/>
  <outline>
    <contour>
      <point x="-62" y="3" type="line" name="❌"/>
      <point x="-8" y="3" type="line" name="❌"/>
      <point x="101" y="621" type="line"/>
      <point x="169" y="782"/>
      <point x="367" y="903"/>
      <point x="553" y="903" type="curve" smooth="yes"/>
      <point x="785" y="903"/>
      <point x="898" y="739"/>
      <point x="853" y="480" type="curve" smooth="yes"/>
      <point x="769" y="3" type="line" name="❌"/>
      <point x="823" y="3" type="line" name="❌"/>
      <point x="907" y="480" type="line" smooth="yes"/>
      <point x="957" y="767"/>
      <point x="826" y="957"/>
      <point x="570" y="957" type="curve" smooth="yes"/>
      <point x="395" y="957"/>
      <point x="223" y="870"/>
      <point x="121" y="733" type="curve"/>
      <point x="216" y="1169"/>
      <point x="492" y="1422"/>
      <point x="900" y="1422" type="curve"/>
      <point x="909" y="1476" type="line"/>
      <point x="448" y="1476"/>
      <point x="145" y="1177"/>
      <point x="54" y="660" type="curve" smooth="yes"/>
    </contour>
    <component base="_num.bar"/>
  </outline>
</glyph>
<glyph name="thirty-ethiopic" format="2">
  <advance width="1150"/>
  <unicode hex="1374"/>
  <outline>
    <contour>
      <point x="-27" y="49" type="line"/>
      <point x="27" y="49" type="line"/>
      <point x="168" y="847" type="line" smooth="yes"/>
      <point x="231" y="1206"/>
      <point x="239" y="1413"/>
      <point x="418" y="1413" type="curve" smooth="yes"/>
      <point x="522" y="1413"/>
      <point x="560" y="1182"/>
      <point x="486" y="762" type="curve" smooth="yes"/>
      <point x="480" y="728" type="line" smooth="yes"/>
      <point x="413" y="353"/>
      <point x="372" y="59"/>
      <point x="628" y="59" type="curve" smooth="yes"/>
      <point x="843" y="59"/>
      <point x="843" y="287"/>
      <point x="911" y="674" type="curve" smooth="yes"/>
      <point x="1053" y="1477" type="line"/>
      <point x="999" y="1477" type="line"/>
      <point x="858" y="679" type="line" smooth="yes"/>
      <point x="795" y="320"/>
      <point x="786" y="113"/>
      <point x="607" y="113" type="curve" smooth="yes"/>
      <point x="503" y="113"/>
      <point x="459" y="304"/>
      <point x="533" y="724" type="curve" smooth="yes"/>
      <point x="539" y="758" type="line" smooth="yes"/>
      <point x="605" y="1133"/>
      <point x="654" y="1467"/>
      <point x="398" y="1467" type="curve" smooth="yes"/>
      <point x="183" y="1467"/>
      <point x="183" y="1239"/>
      <point x="114" y="852" type="curve" smooth="yes"/>
    </contour>
    <component base="_num.bar"/>
  </outline>
</glyph>
<glyph name="forty-ethiopic" format="2">
  <advance width="1150"/>
  <unicode hex="1375"/>
  <outline>
    <contour>
      <point x="447" y="507" type="line"/>
      <point x="501" y="507" type="line"/>
      <point x="662" y="1423" type="line"/>
      <point x="608" y="1423" type="line"/>
    </contour>
    <component base="fifty-ethiopic"/>
  </outline>
</glyph>
<glyph name="seventy-ethiopic" format="2">
  <advance width="1150"/>
  <unicode hex="1378"/>
  <outline>
    <contour>
      <point x="841" y="1330" type="curve"/>
      <point x="908" y="1339" type="line"/>
      <point x="851" y="1429"/>
      <point x="757" y="1477"/>
      <point x="630" y="1477" type="curve" smooth="yes"/>
      <point x="355" y="1477"/>
      <point x="154" y="1249"/>
      <point x="86" y="862" type="curve" smooth="yes"/>
      <point x="40" y="598" type="line" smooth="yes"/>
      <point x="-29" y="206"/>
      <point x="94" y="-20"/>
      <point x="368" y="-20" type="curve" smooth="yes"/>
      <point x="487" y="-20"/>
      <point x="591" y="22"/>
      <point x="677" y="101" type="curve"/>
      <point x="613" y="115" type="line"/>
      <point x="545" y="62"/>
      <point x="466" y="34"/>
      <point x="377" y="34" type="curve" smooth="yes"/>
      <point x="136" y="34"/>
      <point x="31" y="244"/>
      <point x="93" y="596" type="curve" smooth="yes"/>
      <point x="139" y="857" type="line" smooth="yes"/>
      <point x="203" y="1216"/>
      <point x="375" y="1423"/>
      <point x="620" y="1423" type="curve" smooth="yes"/>
      <point x="716" y="1423"/>
      <point x="790" y="1391"/>
    </contour>
    <component base="ring" xOffset="470" yOffset="-170"/>
    <component base="_num.bar"/>
  </outline>
</glyph>
<glyph name="ninety-ethiopic" format="2">
  <advance width="1150"/>
  <unicode hex="137A"/>
  <outline>
    <contour>
      <point x="530" y="652" type="line"/>
      <point x="583" y="651" type="line"/>
      <point x="1067" y="1422" type="line"/>
      <point x="1073" y="1456" type="line"/>
      <point x="143" y="1456" type="line"/>
      <point x="133" y="1402" type="line"/>
      <point x="1001" y="1402" type="line"/>
    </contour>
    <contour>
      <point x="577" y="684" type="line"/>
      <point x="531" y="647" type="line"/>
      <point x="665" y="-23" type="line"/>
      <point x="711" y="16" type="line"/>
    </contour>
    <component base="_num.bar"/>
  </outline>
</glyph>
<glyph name="hundred-ethiopic" format="2">
  <advance width="1676"/>
  <unicode hex="137B"/>
  <outline>
    <contour>
      <point x="95" y="-3" type="line"/>
      <point x="150" y="-3" type="line"/>
      <point x="275" y="710" type="line"/>
      <point x="328" y="573"/>
      <point x="470" y="486"/>
      <point x="645" y="486" type="curve" smooth="yes"/>
      <point x="901" y="486"/>
      <point x="1099" y="676"/>
      <point x="1150" y="963" type="curve" smooth="yes"/>
      <point x="1196" y="1226"/>
      <point x="1085" y="1463"/>
      <point x="827" y="1463" type="curve" smooth="yes"/>
      <point x="689" y="1463"/>
      <point x="343" y="1396"/>
      <point x="265" y="962" type="curve" smooth="yes"/>
      <point x="233" y="783" type="line"/>
    </contour>
    <contour>
      <point x="647" y="540" type="curve" smooth="yes"/>
      <point x="460" y="540"/>
      <point x="306" y="661"/>
      <point x="294" y="822" type="curve"/>
      <point x="317" y="950" type="line" smooth="yes"/>
      <point x="366" y="1225"/>
      <point x="570" y="1410"/>
      <point x="818" y="1410" type="curve" smooth="yes"/>
      <point x="1025" y="1410"/>
      <point x="1136" y="1188"/>
      <point x="1096" y="963" type="curve" smooth="yes"/>
      <point x="1050" y="704"/>
      <point x="879" y="540"/>
    </contour>
    <component base="_num.bar" xOffset="222" yOffset="17"/>
  </outline>
</glyph>
<glyph name="underscoredbl" format="2">
  <advance width="923"/>
  <unicode hex="2017"/>
  <note>
uni2017
</note>
  <outline>
    <contour>
      <point x="-165" y="-288" type="line"/>
      <point x="681" y="-288" type="line"/>
      <point x="691" y="-234" type="line"/>
      <point x="-155" y="-234" type="line"/>
    </contour>
    <contour>
      <point x="-123" y="-54" type="line"/>
      <point x="723" y="-54" type="line"/>
      <point x="732" y="0" type="line"/>
      <point x="-114" y="0" type="line"/>
    </contour>
  </outline>
</glyph>
<glyph name="quoteleft" format="2">
  <advance width="320"/>
  <unicode hex="2018"/>
  <note>
uni2018
</note>
  <outline>
    <contour>
      <point x="116" y="1168" type="line"/>
      <point x="170" y="1168" type="line"/>
      <point x="191" y="1288" type="line" smooth="yes"/>
      <point x="208" y="1372"/>
      <point x="252" y="1450"/>
      <point x="322" y="1522" type="curve"/>
      <point x="290" y="1554" type="line"/>
      <point x="209" y="1481"/>
      <point x="158" y="1392"/>
      <point x="137" y="1286" type="curve" smooth="yes"/>
    </contour>
  </outline>
</glyph>
<glyph name="quoteright" format="2">
  <advance width="320"/>
  <unicode hex="2019"/>
  <note>
uni2019
</note>
  <outline>
    <contour>
      <point x="126" y="1151" type="line"/>
      <point x="207" y="1224"/>
      <point x="258" y="1313"/>
      <point x="279" y="1419" type="curve" smooth="yes"/>
      <point x="300" y="1536" type="line"/>
      <point x="246" y="1536" type="line"/>
      <point x="221" y="1398" type="line"/>
      <point x="203" y="1324"/>
      <point x="161" y="1252"/>
      <point x="95" y="1183" type="curve"/>
    </contour>
  </outline>
</glyph>
<glyph name="quotereversed" format="2">
  <advance width="320"/>
  <unicode hex="201B"/>
  <note>
uni201B
</note>
  <outline>
    <contour>
      <point x="218" y="1151" type="curve"/>
      <point x="261" y="1183" type="line"/>
      <point x="219" y="1252"/>
      <point x="202" y="1324"/>
      <point x="211" y="1398" type="curve" smooth="yes"/>
      <point x="234" y="1536" type="line"/>
      <point x="180" y="1536" type="line"/>
      <point x="159" y="1419" type="line" smooth="yes"/>
      <point x="143" y="1313"/>
      <point x="163" y="1224"/>
    </contour>
  </outline>
</glyph>
<glyph name="quotedblbase" format="2">
  <advance width="481"/>
  <unicode hex="201E"/>
  <note>
uni201E
</note>
  <outline>
    <contour>
      <point x="32" y="-182" type="line"/>
      <point x="113" y="-109"/>
      <point x="164" y="-20"/>
      <point x="185" y="86" type="curve" smooth="yes"/>
      <point x="210" y="228" type="line"/>
      <point x="156" y="228" type="line"/>
      <point x="127" y="65" type="line"/>
      <point x="109" y="-9"/>
      <point x="67" y="-81"/>
      <point x="1" y="-150" type="curve"/>
    </contour>
    <contour>
      <point x="-139" y="-182" type="line"/>
      <point x="-58" y="-109"/>
      <point x="-7" y="-20"/>
      <point x="14" y="86" type="curve" smooth="yes"/>
      <point x="39" y="228" type="line"/>
      <point x="-15" y="228" type="line"/>
      <point x="-44" y="65" type="line"/>
      <point x="-62" y="-9"/>
      <point x="-104" y="-81"/>
      <point x="-170" y="-150" type="curve"/>
    </contour>
  </outline>
</glyph>
<glyph name="dagger" format="2">
  <advance width="1126"/>
  <unicode hex="2020"/>
  <note>
uni2020
</note>
  <outline>
    <contour>
      <point x="349" y="0" type="line"/>
      <point x="403" y="0" type="line"/>
      <point x="584" y="1024" type="line"/>
      <point x="1045" y="1024" type="line"/>
      <point x="1055" y="1082" type="line"/>
      <point x="594" y="1082" type="line"/>
      <point x="660" y="1456" type="line"/>
      <point x="606" y="1456" type="line"/>
      <point x="540" y="1082" type="line"/>
      <point x="65" y="1082" type="line"/>
      <point x="55" y="1024" type="line"/>
      <point x="530" y="1024" type="line"/>
    </contour>
  </outline>
</glyph>
<glyph name="hyphenationpoint" format="2">
  <advance width="311"/>
  <unicode hex="2027"/>
  <note>
uni2027
</note>
  <outline>
    <contour>
      <point x="72" y="611" type="curve" smooth="yes"/>
      <point x="103" y="611"/>
      <point x="132" y="635"/>
      <point x="138" y="666" type="curve" smooth="yes"/>
      <point x="143" y="697"/>
      <point x="122" y="722"/>
      <point x="92" y="722" type="curve" smooth="yes"/>
      <point x="61" y="722"/>
      <point x="32" y="697"/>
      <point x="27" y="666" type="curve" smooth="yes"/>
      <point x="21" y="635"/>
      <point x="41" y="611"/>
    </contour>
  </outline>
</glyph>
